<svg width="1190" height="337" viewBox="0 0 1190 337" fill="none" xmlns="http://www.w3.org/2000/svg">
<mask id="mask0_2288_5561" style="mask-type:alpha" maskUnits="userSpaceOnUse" x="0" y="0" width="1190" height="337">
<path d="M0 0H1190V336.283L0 132.817V0Z" fill="#D9D9D9"/>
</mask>
<g mask="url(#mask0_2288_5561)">
<rect y="-43.8584" width="1233" height="424" fill="url(#paint0_linear_2288_5561)"/>
<path d="M90.6888 36.1411L19 77.5307V160.565L21.0117 161.727H21.0431L88.9256 200.919L88.9413 200.946L90.9543 202.108L90.97 202.099L91.0426 202.141L92.9417 201.045L93.0143 200.919L160.897 161.727H161.042L162.943 160.63V77.8568L90.6888 36.1411Z" fill="white" fill-opacity="0.09"/>
<path d="M1106.5 -99.2109L979 -25.6001V122.076L982.578 124.142H982.634L1103.36 193.844L1103.39 193.893L1106.97 195.959L1107 195.943L1107.13 196.018L1110.5 194.068L1110.63 193.844L1231.36 124.142H1231.62L1235 122.19V-25.0201L1106.5 -99.2109Z" fill="white" fill-opacity="0.09"/>
<path d="M889.657 14.1411L845.66 39.5425V90.5021L846.895 91.2149H846.914L888.574 115.268L888.584 115.284L889.82 115.998L889.829 115.992L889.874 116.018L891.039 115.345L891.084 115.268L932.744 91.2149H932.833L934 90.5415V39.7426L889.657 14.1411Z" fill="white" fill-opacity="0.09"/>
<path d="M1037.43 132.504L978.32 166.63V235.091L979.979 236.049H980.005L1035.97 268.363L1035.99 268.385L1037.65 269.343L1037.66 269.336L1037.72 269.37L1039.28 268.466L1039.34 268.363L1095.31 236.049H1095.43L1097 235.144V166.899L1037.43 132.504Z" fill="white" fill-opacity="0.09"/>
<path d="M1112.17 219.733L1030.98 266.608V360.647L1033.26 361.963H1033.29L1110.17 406.349L1110.19 406.38L1112.47 407.696L1112.49 407.686L1112.57 407.733L1114.72 406.491L1114.8 406.349L1191.68 361.963H1191.85L1194 360.72V266.977L1112.17 219.733Z" fill="white" fill-opacity="0.09"/>
<path d="M750.093 -105.859L669.82 -59.5134V33.4638L672.073 34.7643H672.108L748.119 78.6491L748.136 78.6795L750.39 79.9809L750.408 79.9707L750.489 80.0177L752.616 78.7899L752.697 78.6491L828.708 34.7643H828.87L830.998 33.5357V-59.1482L750.093 -105.859Z" fill="white" fill-opacity="0.09"/>
<path d="M641.582 -3.85889L578 32.8504V106.496L579.784 107.526H579.812L640.018 142.286L640.032 142.31L641.818 143.341L641.832 143.333L641.896 143.37L643.58 142.398L643.645 142.286L703.851 107.526H703.98L705.666 106.553V33.1396L641.582 -3.85889Z" fill="white" fill-opacity="0.09"/>
<path d="M796.203 79.8032L594 196.545V430.751L599.674 434.027H599.763L791.23 544.57L791.274 544.647L796.952 547.925L796.996 547.9L797.201 548.018L802.558 544.925L802.762 544.57L994.23 434.027H994.639L1000 430.932V197.465L796.203 79.8032Z" fill="white" fill-opacity="0.09"/>
<path d="M1110.79 227.658V406.946L1107.38 408.916H1107.06L1106.83 409.049L958.85 494.488L958.617 494.622L958.483 494.853L958.458 494.895L955.051 496.863L954.893 496.772L954.857 496.792L951.201 494.679L951.168 494.622L950.937 494.488L802.954 409.049L802.722 408.916H802.654L799 406.806V226.947L954.28 137.295L1110.79 227.658Z" stroke="white" stroke-opacity="0.09" stroke-width="2"/>
<path d="M626.792 158.999V245.705L625.506 246.448H625.353L625.12 246.582L553.064 288.183L552.832 288.317L552.754 288.451L551.471 289.191L551.395 289.147L551.377 289.157L549.973 288.346L549.956 288.317L549.725 288.183L477.669 246.582L477.437 246.448H477.404L476 245.637V158.652L551.096 115.295L626.792 158.999Z" stroke="white" stroke-opacity="0.09" stroke-width="2"/>
<path d="M237.001 -4.89502V46.3062L236.531 46.5776H236.439L236.207 46.7114L193.27 71.5024L193.037 71.6362L192.99 71.7153L192.522 71.9858L192.477 71.9595L192.466 71.9653L191.924 71.6519L191.915 71.6362L191.684 71.5024L148.745 46.7114L148.514 46.5776H148.494L147.953 46.2651V-5.10205L192.298 -30.7046L237.001 -4.89502Z" stroke="white" stroke-opacity="0.09" stroke-width="2"/>
<path d="M973.893 58.1411L952.207 70.6614V95.7792L952.816 96.1305H952.825L973.359 107.986L973.364 107.994L973.973 108.346L973.978 108.343L974 108.356L974.574 108.024L974.596 107.986L995.131 96.1305H995.174L995.749 95.7986V70.76L973.893 58.1411Z" fill="white" fill-opacity="0.09"/>
<path d="M963 -16.4121V43.2686L962.335 43.6533H962.229L961.996 43.7871L912.105 72.5918L911.873 72.7256L911.819 72.8184L911.155 73.2012L911.103 73.1709L911.091 73.1768L910.343 72.7451L910.332 72.7256L910.1 72.5918L860.209 43.7871L859.977 43.6533H859.954L859.207 43.2217V-16.6514L910.896 -46.4941L963 -16.4121Z" stroke="white" stroke-opacity="0.09" stroke-width="2"/>
</g>
<defs>
<linearGradient id="paint0_linear_2288_5561" x1="1435.32" y1="431.598" x2="-147.535" y2="275.598" gradientUnits="userSpaceOnUse">
<stop stop-color="#006D80"/>
<stop offset="1" stop-color="#68D8D5"/>
</linearGradient>
</defs>
</svg>
