<svg width="1190" height="338" viewBox="0 0 1190 338" fill="none" xmlns="http://www.w3.org/2000/svg">
<mask id="mask0_1499_14586" style="mask-type:alpha" maskUnits="userSpaceOnUse" x="0" y="0" width="1190" height="338">
<path d="M0 0.858887H1190V337.141L0 133.676V0.858887Z" fill="#D9D9D9"/>
</mask>
<g mask="url(#mask0_1499_14586)">
<rect y="-43" width="1233" height="424" fill="url(#paint0_linear_1499_14586)"/>
<path d="M90.6888 37L19 78.3896V161.424L21.0117 162.586H21.0431L88.9256 201.778L88.9413 201.805L90.9543 202.967L90.97 202.958L91.0426 203L92.9417 201.904L93.0143 201.778L160.897 162.586H161.042L162.943 161.489V78.7157L90.6888 37Z" fill="white" fill-opacity="0.09"/>
<path d="M1106.5 -98.3525L979 -24.7417V122.934L982.578 125H982.634L1103.36 194.703L1103.39 194.751L1106.97 196.818L1107 196.802L1107.13 196.876L1110.5 194.926L1110.63 194.703L1231.36 125H1231.62L1235 123.049V-24.1617L1106.5 -98.3525Z" fill="white" fill-opacity="0.09"/>
<path d="M889.657 15L845.66 40.4014V91.361L846.895 92.0738H846.914L888.574 116.126L888.584 116.143L889.82 116.856L889.829 116.851L889.874 116.877L891.039 116.204L891.084 116.126L932.744 92.0738H932.833L934 91.4004V40.6015L889.657 15Z" fill="white" fill-opacity="0.09"/>
<path d="M1037.43 133.363L978.32 167.489V235.95L979.979 236.908H980.005L1035.97 269.221L1035.99 269.244L1037.65 270.202L1037.66 270.195L1037.72 270.229L1039.28 269.325L1039.34 269.221L1095.31 236.908H1095.43L1097 236.003V167.758L1037.43 133.363Z" fill="white" fill-opacity="0.09"/>
<path d="M1112.17 220.592L1030.98 267.467V361.506L1033.26 362.822H1033.29L1110.17 407.208L1110.19 407.239L1112.47 408.555L1112.49 408.545L1112.57 408.592L1114.72 407.35L1114.8 407.208L1191.68 362.822H1191.85L1194 361.579V267.836L1112.17 220.592Z" fill="white" fill-opacity="0.09"/>
<path d="M750.093 -105L669.82 -58.6545V34.3227L672.073 35.6232H672.108L748.119 79.508L748.136 79.5384L750.39 80.8398L750.408 80.8296L750.489 80.8766L752.616 79.6488L752.697 79.508L828.708 35.6232H828.87L830.998 34.3945V-58.2893L750.093 -105Z" fill="white" fill-opacity="0.09"/>
<path d="M641.582 -3L578 33.7093V107.355L579.784 108.385H579.812L640.018 143.145L640.032 143.169L641.818 144.2L641.832 144.192L641.896 144.229L643.58 143.256L643.645 143.145L703.851 108.385H703.98L705.666 107.411V33.9985L641.582 -3Z" fill="white" fill-opacity="0.09"/>
<path d="M796.203 80.6621L594 197.404V431.61L599.674 434.885H599.763L791.23 545.429L791.274 545.506L796.952 548.784L796.996 548.758L797.201 548.877L802.558 545.784L802.762 545.429L994.23 434.885H994.639L1000 431.791V198.324L796.203 80.6621Z" fill="white" fill-opacity="0.09"/>
<path d="M802.954 409.908L802.722 409.774H802.653L799 407.665V227.806L954.28 138.155L1110.79 228.517V407.805L1107.38 409.774H1107.33H1107.06L1106.83 409.908L958.85 495.346L958.618 495.48L958.484 495.712L958.459 495.754L955.051 497.722L954.893 497.631L954.859 497.65L951.203 495.539L951.168 495.48L950.936 495.346L802.954 409.908Z" stroke="white" stroke-opacity="0.09" stroke-width="2"/>
<path d="M477.669 247.441L477.437 247.307H477.403L476 246.496V159.511L551.096 116.155L626.792 159.858V246.564L625.507 247.307H625.352L625.12 247.441L553.065 289.042L552.833 289.176L552.755 289.309L551.472 290.051L551.394 290.006L551.378 290.016L549.973 289.205L549.956 289.176L549.724 289.042L477.669 247.441Z" stroke="white" stroke-opacity="0.09" stroke-width="2"/>
<path d="M148.745 47.5708L148.513 47.4368H148.494L147.953 47.1248V-4.2425L192.298 -29.8453L237.001 -4.03621V47.1654L236.531 47.4368H236.439L236.207 47.5708L193.269 72.3609L193.037 72.4949L192.991 72.5744L192.522 72.8453L192.476 72.8186L192.466 72.8243L191.925 72.512L191.915 72.4948L191.683 72.3609L148.745 47.5708Z" stroke="white" stroke-opacity="0.09" stroke-width="2"/>
<path d="M973.893 59L952.207 71.5203V96.6381L952.816 96.9894H952.825L973.359 108.845L973.364 108.853L973.973 109.205L973.978 109.202L974 109.215L974.574 108.883L974.596 108.845L995.131 96.9894H995.174L995.749 96.6575V71.6189L973.893 59Z" fill="white" fill-opacity="0.09"/>
<path d="M860.209 44.6453L859.977 44.5113H859.954L859.207 44.0803V-15.7927L910.896 -45.6353L963 -15.553V44.1275L962.335 44.5113H962.229L961.996 44.6453L912.105 73.4501L911.873 73.5841L911.82 73.6765L911.156 74.0597L911.102 74.0289L911.091 74.0355L910.344 73.604L910.332 73.584L910.1 73.4501L860.209 44.6453Z" stroke="white" stroke-opacity="0.09" stroke-width="2"/>
</g>
<defs>
<linearGradient id="paint0_linear_1499_14586" x1="1435.32" y1="432.456" x2="-147.535" y2="276.456" gradientUnits="userSpaceOnUse">
<stop stop-color="#24D6E0"/>
<stop offset="1" stop-color="#9747FF"/>
</linearGradient>
</defs>
</svg>
