<svg width="592" height="564" viewBox="0 0 592 564" fill="none" xmlns="http://www.w3.org/2000/svg">
<g clip-path="url(#clip0_1469_12014)">
<path d="M593.292 -0.0717773H15C15 -0.0717773 50.2312 109.76 179 166C247.574 195.95 282.248 268.87 316.293 340.468C346.178 403.317 375.579 465.148 427 496C537 562 593.292 563.211 593.292 563.211V-0.0717773Z" fill="url(#paint0_linear_1469_12014)"/>
<path d="M592.109 213.204L756.385 367.282C671.142 355.734 546.565 330.846 517 281.999C497.02 248.989 487.221 223.538 479.254 202.843C468.878 175.892 461.608 157.008 439 139.999C400.064 110.706 355.372 89.1371 299.468 62.1559C297.986 61.441 296.497 60.7222 295 59.9994C237 31.9994 227.912 0.361937 227.912 0.361937L592.109 0.362049V213.204Z" fill="url(#paint1_linear_1469_12014)"/>
</g>
<defs>
<linearGradient id="paint0_linear_1469_12014" x1="399.857" y1="445.53" x2="790.772" y2="61.1223" gradientUnits="userSpaceOnUse">
<stop offset="0.116205" stop-color="#F184DF"/>
<stop offset="0.470742" stop-color="#24D6E0"/>
</linearGradient>
<linearGradient id="paint1_linear_1469_12014" x1="443" y1="-294.572" x2="-4.09409" y2="14.1843" gradientUnits="userSpaceOnUse">
<stop offset="0.109116" stop-color="#F184DF"/>
<stop offset="0.533203" stop-color="#FBDF46"/>
</linearGradient>
<clipPath id="clip0_1469_12014">
<rect width="592" height="564" fill="white"/>
</clipPath>
</defs>
</svg>
