<?xml version="1.0" encoding="utf-8"?>
<!DOCTYPE svg PUBLIC "-//W3C//DTD SVG 1.0//EN" "http://www.w3.org/TR/2001/REC-SVG-20010904/DTD/svg10.dtd">
<svg version="1.0" xmlns="http://www.w3.org/2000/svg" width="90px" height="90px" viewBox="0 0 45 45" preserveAspectRatio="xMidYMid meet">
 <g fill="#15263B">
  <path d="M9.45 38.55 c-1.10 -0.90 -1.20 -1.40 -1.35 -6.25 -0.20 -5.05 -0.15 -5.30 1.10 -6.55 1.20 -1.15 1.55 -1.25 6.30 -1.25 4.70 0 5.15 0.10 6.25 1.25 1.15 1.10 1.25 1.55 1.25 6.25 0 4.70 -0.10 5.15 -1.25 6.25 -1.10 1.15 -1.55 1.25 -6.15 1.25 -4.15 0 -5.20 -0.15 -6.15 -0.95z m8.55 -6.55 l0 -2.50 -2.50 0 -2.50 0 0 2.50 0 2.50 2.50 0 2.50 0 0 -2.50z"/>
  <path d="M28.25 38.90 c-0.15 -0.40 -0.20 -3.75 -0.15 -7.45 l0.15 -6.70 3.30 -0.15 c3.10 -0.15 3.30 -0.05 3.85 1.15 0.50 1.05 0.90 1.25 2.60 1.25 1.70 0 2.10 -0.20 2.50 -1.30 0.35 -0.80 0.80 -1.20 1.40 -1.10 0.75 0.15 0.85 0.80 0.85 4.90 l0 4.75 -3.30 0.15 c-3.10 0.15 -3.30 0.10 -3.85 -1.15 -0.40 -0.85 -0.95 -1.25 -1.50 -1.15 -0.70 0.15 -0.90 0.85 -1.10 3.65 l-0.25 3.50 -2.15 0.15 c-1.45 0.10 -2.20 -0.05 -2.35 -0.50z"/>
  <path d="M35.70 38.75 c-0.20 -0.45 -0.10 -1.05 0.20 -1.35 0.75 -0.75 2.20 -0.05 2 0.95 -0.20 1.15 -1.80 1.45 -2.20 0.40z"/>
  <path d="M40.70 38.75 c-0.20 -0.45 -0.10 -1.05 0.20 -1.35 0.75 -0.75 2.20 -0.05 2 0.95 -0.20 1.15 -1.80 1.45 -2.20 0.40z"/>
  <path d="M9.45 18.55 c-1.10 -0.90 -1.20 -1.40 -1.35 -6.25 -0.20 -5.05 -0.15 -5.30 1.10 -6.55 1.20 -1.15 1.55 -1.25 6.30 -1.25 4.70 0 5.15 0.10 6.25 1.25 1.15 1.10 1.25 1.55 1.25 6.25 0 4.70 -0.10 5.15 -1.25 6.25 -1.10 1.15 -1.55 1.25 -6.15 1.25 -4.15 0 -5.20 -0.15 -6.15 -0.95z m8.55 -6.55 l0 -2.50 -2.50 0 -2.50 0 0 2.50 0 2.50 2.50 0 2.50 0 0 -2.50z"/>
  <path d="M29.25 18.25 c-1.15 -1.10 -1.25 -1.55 -1.25 -6.25 0 -4.70 0.10 -5.15 1.25 -6.25 1.10 -1.15 1.55 -1.25 6.25 -1.25 4.70 0 5.15 0.10 6.25 1.25 1.15 1.10 1.25 1.55 1.25 6.25 0 4.70 -0.10 5.15 -1.25 6.25 -1.10 1.15 -1.55 1.25 -6.25 1.25 -4.70 0 -5.15 -0.10 -6.25 -1.25z m8.75 -6.25 l0 -2.50 -2.50 0 -2.50 0 0 2.50 0 2.50 2.50 0 2.50 0 0 -2.50z"/>
 </g>
</svg>