<?xml version="1.0" encoding="utf-8"?>
<!-- Generator: Adobe Illustrator 21.0.0, SVG Export Plug-In . SVG Version: 6.00 Build 0)  -->
<svg version="1.1" id="Layer_1" xmlns="http://www.w3.org/2000/svg" xmlns:xlink="http://www.w3.org/1999/xlink" x="0px" y="0px"
	 viewBox="0 0 100 100" style="enable-background:new 0 0 100 100;" xml:space="preserve">
<style type="text/css">
	.st0{fill:#55499E;}
	.st1{fill-rule:evenodd;clip-rule:evenodd;fill:#55499E;}
</style>
<path class="st0" d="M13,57.7c0.4,0.3,0.7,0.6,1.1,0.8c1.9,1.4,4,2.6,6.2,3.7c2.5,1.2,5.1,2.2,7.7,3c1.7,0.5,3.4,0.9,5.2,1.2
	c2.1,0.3,4.2,0.5,6.3,0.4c3-0.1,5.9-0.5,8.8-1.4c2.1-0.6,4-1.5,5.9-2.6c0.1,0,0.2-0.1,0.2-0.2c-0.3-0.2-0.6-0.5-0.9-0.7
	c-3.1-2.4-6-5-8.8-7.6c-3.1-2.9-6-5.9-8.8-9c-4.1-4.6-8-9.3-11.8-14.2c-0.3-0.4-0.8-0.8-1.1-1.3c-0.9-1.1-1.7-2.3-2.5-3.5
	c-0.2-0.2-0.3-0.5-0.4-0.7c1.8,1.6,3.7,3.2,5.6,4.7c1.9,1.6,3.8,3.1,5.8,4.6c1.9,1.5,3.9,3,5.9,4.5c2,1.5,4,2.9,6,4.3
	c2,1.4,4,2.8,6.2,4c-1.5-1.6-3-3.3-4.4-4.9c-1.4-1.7-2.9-3.4-4.3-5.1c-1.4-1.7-2.8-3.4-4.1-5.2c-1.4-1.7-2.7-3.5-4-5.3
	c-1.3-1.8-2.6-3.6-3.8-5.4c5.4,5.4,11.1,10.5,17,15.4c5.9,4.8,12,9.4,18.5,13.5c0.1-0.3,0.2-0.5,0.3-0.7c0.6-1.7,1.1-3.5,1.4-5.4
	c0.2-1.2,0.3-2.3,0.3-3.5c0-0.9,0-1.9,0-2.8c-0.1-1.9-0.3-3.8-0.7-5.6c-1.1-5-3.1-9.6-5.8-14c-0.1-0.2-0.2-0.4-0.3-0.5
	c-0.1-0.2-0.1-0.3,0.1-0.3c0.4,0,6.4,3.9,8.5,6.1c4.2,4.4,7.6,9.3,9.9,14.9c1.1,2.5,1.9,5.1,2.3,7.8c0.2,1.1,0.4,2.2,0.5,3.3
	c0.1,1.1,0.2,2.2,0.1,3.3c0,2.7-0.4,5.4-1.2,7.9c-0.1,0.2,0,0.3,0.1,0.5c2.3,2.9,4,6.1,5.1,9.7c0.6,2,0.9,4.1,0.9,6.2
	c0,0.9-0.1,1.8-0.3,2.6c-0.1,0.2-0.1,0.3-0.2,0.5c-0.2,0.2-0.3,0.2-0.5,0c-0.1-0.2-0.3-0.5-0.4-0.8c-0.8-1.4-1.8-2.7-3.2-3.6
	c-1.3-0.9-2.7-1.4-4.2-1.7c-1.7-0.2-3.4-0.1-5.1,0.3c-1.4,0.3-2.7,0.8-3.9,1.3c-0.5,0.2-1,0.5-1.5,0.8c-2,1-4.1,1.8-6.3,2.3
	c-1.3,0.3-2.7,0.6-4,0.7c-1.5,0.2-3,0.2-4.5,0.2c-1.6,0-3.2-0.2-4.8-0.4c-3.1-0.4-6.1-1.2-9-2.3c-3.4-1.3-6.6-2.9-9.7-4.9
	c-5.9-3.9-10.9-8.8-14.8-14.7C13.2,58.1,13.1,57.9,13,57.7C13,57.7,13,57.7,13,57.7z"/>
</svg>
