<svg xmlns="http://www.w3.org/2000/svg" xmlns:xlink="http://www.w3.org/1999/xlink" version="1.1" width="100" height="100" viewBox="18 18 60 60"><path d="M50,20.5C43.7,26.4,35.3,30,26,30v31.2C30.054,71.324,39.603,77.03,50,80c10.399-2.971,19.947-8.677,24-18.8V30  C64.7,30,56.3,26.4,50,20.5z M50,75.8c-2.919-0.817-10.598-2.472-16.7-10.1c2.7-4.8,7.4-8.3,13-9.4C42.1,54.9,39,50.8,39,46  c0-6.1,4.9-11,11-11c6.1,0,11,4.9,11,11c0,4.8-3.1,8.9-7.3,10.4c5.6,1.1,10.3,4.6,13,9.399C61.89,71.65,56.575,74.223,50,75.8z"/></svg>