<svg xmlns="http://www.w3.org/2000/svg" xmlns:xlink="http://www.w3.org/1999/xlink" viewBox="0 -89 470.584 470"><defs><style>.a{fill:#077CC1;}</style></defs><path class="" d="M93.469,5C79.309,5,67.162,16.167,67.162,30.327c0,12.172,0,51.158,0,91.666H22V191.6c0,72.1,52.43,132.063,121.077,144.116V475.584h50.817V335.716C262.541,323.662,314.971,263.7,314.971,191.6V121.992h-45.98V30.327C268.991,16.167,256.844,5,242.684,5a25.109,25.109,0,0,0-25.327,25.327c0,11.939,0,51.158,0,91.666H119.613L118.8,30.327A25.188,25.188,0,0,0,93.469,5Z" transform="translate(475.584 -22) rotate(90)"/></svg>
