<svg id="svg" version="1.1" xmlns="http://www.w3.org/2000/svg" xmlns:xlink="http://www.w3.org/1999/xlink" width="100" height="100" viewBox="0, 0, 400,400"  style="enable-background:new 0 0 99.6 99.6;">



<g id="svgg">

<path id="path0" d="M225.972 61.744 C 204.473 96.276,189.067 134.067,181.849 169.980 C 179.935 179.505,179.013 186.141,177.946 198.083 L 177.786 199.877 200.319 200.133 C 222.512 200.384,231.840 200.765,235.803 201.579 C 238.572 202.149,238.620 202.587,236.751 210.257 C 232.300 228.518,228.962 258.311,231.407 257.952 C 231.858 257.885,234.775 257.464,237.891 257.015 C 261.198 253.656,283.657 246.653,304.389 236.279 C 307.341 234.802,309.909 233.594,310.098 233.594 C 310.455 233.594,316.797 245.313,316.797 245.974 C 316.797 246.491,301.816 253.752,295.313 256.386 C 279.569 262.765,264.934 267.003,247.852 270.131 L 240.820 271.419 302.247 271.452 L 363.673 271.484 363.575 163.379 L 363.477 55.273 296.800 55.175 L 230.124 55.076 225.972 61.744 M272.070 124.023 L 272.070 143.945 263.672 143.945 L 255.273 143.945 255.172 124.414 C 255.116 113.672,255.156 104.660,255.260 104.387 C 255.407 104.003,257.325 103.914,263.760 103.996 L 272.070 104.102 272.070 124.023 " stroke="none" fill="#bfcae6" fill-rule="evenodd"></path><path id="path1" d="M37.370 55.339 C 36.730 55.978,37.082 320.229,37.723 320.871 C 38.278 321.425,47.096 321.484,128.960 321.484 L 219.584 321.484 219.331 320.605 C 218.914 319.155,218.788 318.611,218.580 317.383 C 218.471 316.738,218.022 314.461,217.582 312.322 C 216.016 304.713,214.357 291.932,213.879 283.789 C 213.753 281.641,213.551 278.542,213.429 276.904 L 213.208 273.925 199.280 273.720 C 168.809 273.271,140.385 268.377,111.161 258.548 C 99.440 254.606,83.594 248.085,83.594 247.204 C 83.594 246.826,89.827 234.766,90.022 234.766 C 90.083 234.766,91.958 235.575,94.188 236.564 C 127.133 251.178,166.027 259.358,202.637 259.371 L 213.281 259.375 213.283 258.496 C 213.297 251.614,214.891 235.633,216.469 226.563 C 218.098 217.188,218.241 218.154,215.234 218.218 C 190.822 218.734,165.179 218.164,162.893 217.054 L 161.914 216.579 161.988 211.121 C 162.572 168.042,181.211 110.245,210.383 61.055 C 212.192 58.004,213.672 55.412,213.672 55.293 C 213.672 54.982,37.681 55.028,37.370 55.339 M133.516 104.375 C 134.191 105.050,134.191 142.996,133.516 143.672 C 132.854 144.334,117.928 144.334,117.266 143.672 C 116.590 142.996,116.590 105.050,117.266 104.375 C 117.928 103.713,132.854 103.713,133.516 104.375 " stroke="none" fill="#55499E" fill-rule="evenodd"></path><path id="path2" d="M244.880 11.328 C 242.370 12.795,224.559 36.725,216.453 49.520 L 213.180 54.688 125.205 54.688 C 40.473 54.687,37.207 54.714,36.584 55.402 C 35.526 56.571,35.593 321.833,36.652 322.791 C 37.312 323.389,44.238 323.438,128.351 323.439 L 219.336 323.440 220.469 327.638 C 224.221 341.546,234.937 368.106,238.040 371.191 C 240.040 373.179,245.785 370.817,251.805 365.531 C 253.503 364.040,253.472 363.566,251.402 359.445 C 247.363 351.402,238.281 326.604,238.281 323.617 C 238.281 323.518,266.467 323.438,300.916 323.438 C 361.099 323.437,363.576 323.410,364.197 322.723 C 365.254 321.555,365.188 56.292,364.131 55.335 C 363.475 54.741,358.184 54.682,297.885 54.591 L 232.352 54.492 236.542 48.438 C 241.380 41.449,246.947 33.911,252.189 27.252 C 256.675 21.554,256.678 22.016,252.115 16.896 C 246.619 10.730,246.310 10.492,244.880 11.328 M213.946 55.371 C 213.856 55.532,212.113 58.477,210.073 61.914 C 184.398 105.178,168.167 151.686,163.312 195.898 C 162.390 204.303,161.612 215.527,161.918 216.023 C 162.841 217.515,175.683 218.129,199.512 217.819 C 209.878 217.685,218.358 217.707,218.357 217.869 C 218.356 218.031,218.186 218.779,217.980 219.531 C 216.512 224.875,214.627 239.778,213.953 251.367 L 213.475 259.570 200.781 259.529 C 165.102 259.413,123.699 250.513,93.323 236.429 L 89.966 234.873 86.895 241.054 C 85.206 244.454,83.907 247.319,84.010 247.421 C 85.080 248.491,101.477 255.041,111.396 258.360 C 141.484 268.429,171.563 273.483,202.050 273.591 C 210.641 273.622,213.671 273.752,213.671 274.090 C 213.684 282.916,216.465 304.073,219.153 315.800 C 219.791 318.581,220.313 320.999,220.313 321.172 C 220.313 321.344,179.136 321.442,128.809 321.388 L 37.305 321.289 37.205 188.672 C 37.150 115.732,37.188 55.835,37.290 55.566 C 37.438 55.178,55.498 55.078,125.792 55.078 C 174.366 55.078,214.035 55.210,213.946 55.371 M363.477 188.281 L 363.477 321.289 299.972 321.388 L 236.468 321.487 235.438 317.091 C 232.455 304.370,230.543 291.486,229.715 278.530 C 229.287 271.834,229.050 272.421,232.319 272.093 C 257.051 269.618,285.294 261.412,309.375 249.702 C 317.550 245.727,317.070 246.861,313.479 240.001 C 311.803 236.799,310.369 234.106,310.293 234.016 C 310.217 233.926,307.035 235.363,303.222 237.210 C 281.020 247.965,259.036 254.590,235.024 257.763 C 228.543 258.620,229.107 259.342,229.669 250.903 C 230.762 234.495,234.758 210.725,237.721 203.003 C 238.355 201.353,229.778 200.768,201.074 200.505 L 177.344 200.288 177.348 198.484 C 177.359 193.790,179.111 180.900,181.097 170.898 C 188.457 133.843,205.253 93.287,227.786 58.160 L 229.764 55.076 296.620 55.175 L 363.477 55.273 363.477 188.281 M117.411 104.520 C 116.479 105.451,116.479 142.596,117.411 143.527 C 118.324 144.440,132.457 144.440,133.371 143.527 C 134.302 142.596,134.302 105.451,133.371 104.520 C 132.856 104.005,131.566 103.906,125.391 103.906 C 119.215 103.906,117.925 104.005,117.411 104.520 M255.692 104.520 C 254.761 105.451,254.761 142.596,255.692 143.527 C 256.605 144.440,270.739 144.440,271.652 143.527 C 272.583 142.596,272.583 105.451,271.652 104.520 C 271.137 104.005,269.847 103.906,263.672 103.906 C 257.496 103.906,256.207 104.005,255.692 104.520 " stroke="none" fill="#000000" fill-rule="evenodd"></path><path id="path3" d="M161.817 211.523 C 161.822 212.383,161.902 212.688,161.995 212.202 C 162.088 211.717,162.085 211.013,161.987 210.640 C 161.889 210.267,161.813 210.664,161.817 211.523 M172.956 217.861 C 173.658 217.948,174.713 217.946,175.300 217.857 C 175.887 217.768,175.313 217.697,174.023 217.699 C 172.734 217.701,172.254 217.774,172.956 217.861 M207.337 217.867 C 208.472 217.946,210.230 217.945,211.244 217.865 C 212.257 217.785,211.328 217.720,209.180 217.721 C 207.031 217.722,206.202 217.787,207.337 217.867 M213.770 250.977 C 213.775 251.836,213.855 252.142,213.948 251.656 C 214.042 251.170,214.038 250.467,213.940 250.093 C 213.842 249.720,213.766 250.117,213.770 250.977 M213.281 258.700 C 213.281 259.138,212.838 259.374,211.816 259.481 L 210.352 259.634 211.829 259.700 C 213.230 259.762,214.189 258.980,213.525 258.316 C 213.391 258.183,213.281 258.355,213.281 258.700 M186.035 259.254 C 186.411 259.352,187.026 259.352,187.402 259.254 C 187.778 259.155,187.471 259.075,186.719 259.075 C 185.967 259.075,185.659 259.155,186.035 259.254 M193.457 259.655 C 194.048 259.744,195.015 259.744,195.605 259.655 C 196.196 259.565,195.713 259.492,194.531 259.492 C 193.350 259.492,192.866 259.565,193.457 259.655 M185.254 273.316 C 185.630 273.414,186.245 273.414,186.621 273.316 C 186.997 273.218,186.689 273.138,185.938 273.138 C 185.186 273.138,184.878 273.218,185.254 273.316 M192.878 273.721 C 193.580 273.808,194.635 273.806,195.222 273.717 C 195.809 273.627,195.234 273.556,193.945 273.559 C 192.656 273.561,192.176 273.634,192.878 273.721 M211.816 273.707 C 212.192 273.805,212.808 273.805,213.184 273.707 C 213.560 273.609,213.252 273.528,212.500 273.528 C 211.748 273.528,211.440 273.609,211.816 273.707 M213.770 278.320 C 213.775 279.180,213.855 279.485,213.948 278.999 C 214.042 278.513,214.038 277.810,213.940 277.437 C 213.842 277.063,213.766 277.461,213.770 278.320 " stroke="none" fill="#28406f" fill-rule="evenodd"></path><path id="path4" d="M162.109 216.621 C 162.109 218.151,216.680 219.387,218.176 217.891 C 218.241 217.826,208.631 217.836,196.820 217.912 C 175.990 218.046,165.463 217.701,163.108 216.805 C 162.559 216.596,162.109 216.513,162.109 216.621 M213.388 256.641 C 213.388 257.607,213.464 258.003,213.557 257.520 C 213.650 257.036,213.650 256.245,213.557 255.762 C 213.464 255.278,213.388 255.674,213.388 256.641 M199.902 259.666 C 201.890 259.737,205.142 259.737,207.129 259.666 C 209.116 259.595,207.490 259.537,203.516 259.537 C 199.541 259.537,197.915 259.595,199.902 259.666 M213.388 275.391 C 213.388 276.357,213.464 276.753,213.557 276.270 C 213.650 275.786,213.650 274.995,213.557 274.512 C 213.464 274.028,213.388 274.424,213.388 275.391 M213.793 281.836 C 213.795 283.125,213.868 283.605,213.955 282.903 C 214.042 282.201,214.040 281.146,213.951 280.559 C 213.862 279.972,213.791 280.547,213.793 281.836 M214.102 286.328 C 214.014 289.472,216.125 305.243,217.582 312.322 C 218.022 314.461,218.473 316.738,218.583 317.383 C 218.995 319.782,219.574 321.484,219.979 321.484 C 220.208 321.484,220.295 321.221,220.171 320.899 C 219.048 317.970,216.003 300.920,214.870 291.211 C 214.469 287.773,214.123 285.576,214.102 286.328 " stroke="none" fill="#30528d" fill-rule="evenodd"></path><path id="path5" d="M192.285 200.290 C 193.950 200.364,196.675 200.364,198.340 200.290 C 200.005 200.217,198.643 200.157,195.313 200.157 C 191.982 200.157,190.620 200.217,192.285 200.290 M220.410 200.660 C 220.786 200.758,221.401 200.758,221.777 200.660 C 222.153 200.562,221.846 200.481,221.094 200.481 C 220.342 200.481,220.034 200.562,220.410 200.660 " stroke="none" fill="#606c84" fill-rule="evenodd"></path><path id="path6" d="M180.390 200.291 C 182.172 200.363,184.985 200.363,186.640 200.290 C 188.294 200.217,186.836 200.158,183.398 200.158 C 179.961 200.159,178.607 200.218,180.390 200.291 M203.237 200.289 C 204.480 200.367,206.414 200.366,207.534 200.287 C 208.654 200.209,207.637 200.145,205.273 200.146 C 202.910 200.147,201.994 200.211,203.237 200.289 " stroke="none" fill="#98a0ba" fill-rule="evenodd"></path><path id="path7" d="M179.388 182.422 C 179.388 183.174,179.468 183.481,179.566 183.105 C 179.664 182.729,179.664 182.114,179.566 181.738 C 179.468 181.362,179.388 181.670,179.388 182.422 M178.997 185.156 C 178.997 185.908,179.077 186.216,179.176 185.840 C 179.274 185.464,179.274 184.849,179.176 184.473 C 179.077 184.097,178.997 184.404,178.997 185.156 M178.320 189.844 C 178.166 191.587,178.124 193.098,178.226 193.200 C 178.329 193.302,178.537 191.958,178.689 190.213 C 178.842 188.467,178.884 186.957,178.783 186.856 C 178.683 186.756,178.475 188.100,178.320 189.844 M177.863 196.289 C 177.864 197.793,177.935 198.360,178.019 197.550 C 178.104 196.739,178.103 195.509,178.016 194.816 C 177.930 194.122,177.861 194.785,177.863 196.289 M237.574 204.492 C 235.433 212.419,233.332 222.385,232.059 230.664 C 230.464 241.035,229.166 258.203,229.977 258.203 C 230.604 258.203,230.693 257.587,230.798 252.539 C 231.047 240.442,233.336 224.186,236.755 210.213 C 237.615 206.699,238.246 203.623,238.158 203.377 C 238.069 203.131,237.807 203.633,237.574 204.492 M237.500 271.723 C 235.674 271.962,233.147 272.285,231.886 272.441 L 229.592 272.724 229.853 276.694 C 230.814 291.312,232.751 304.564,235.785 317.285 L 236.787 321.484 299.761 321.484 C 348.219 321.484,362.842 321.376,363.203 321.016 C 363.558 320.661,363.672 314.575,363.672 296.018 L 363.672 271.489 302.246 271.389 C 258.924 271.319,239.842 271.417,237.500 271.723 " stroke="none" fill="#a4b4cc" fill-rule="evenodd"></path><path id="path8" d="M218.066 200.660 C 218.442 200.758,219.058 200.758,219.434 200.660 C 219.810 200.562,219.502 200.481,218.750 200.481 C 217.998 200.481,217.690 200.562,218.066 200.660 " stroke="none" fill="#55499E" fill-rule="evenodd"></path></g></svg>
