<?xml version="1.0" encoding="UTF-8"?>
<svg width="128px" height="128px" viewBox="0 0 128 128" version="1.1" xmlns="http://www.w3.org/2000/svg" xmlns:xlink="http://www.w3.org/1999/xlink">
    <!-- Generator: Sketch 40.3 (33839) - http://www.bohemiancoding.com/sketch -->
    <title>icon_cloud_action_white</title>
    <desc>Created with Sketch.</desc>
    <defs></defs>
    <g id="Custom-Icons" stroke="none" stroke-width="1" fill-rule="evenodd">
        <g id="icon_cloud_action_white" >
            <path d="M47.3571429,16 C29.2444857,16 14.5,31.8503221 14.5,51.3214286 C14.5,53.240795 14.7604143,55.0583589 15.0357143,56.8883929 C8.67038571,62.5229746 4.5,70.9600354 4.5,80.5000461 C4.5,97.4266889 17.3257,111.214332 33.0714286,111.214332 L98.7857143,111.214332 C112.953486,111.214332 124.5,98.8017675 124.5,83.5714746 C124.5,70.2219711 115.608843,59.1519436 103.875,56.6004464 C104.255929,54.8892 104.5,53.1559621 104.5,51.3214286 C104.5,38.6355379 94.8722571,28.2857143 83.0714286,28.2857143 C79.7213857,28.2857143 76.6263286,29.2982721 73.7857143,30.78125 C67.8236571,21.9181361 58.3000429,16 47.3571429,16 L47.3571429,16 Z M47.3571429,22.1428571 C57.1923857,22.1428571 65.7106,27.7527446 70.4821429,36.15625 C70.8866367,36.8686232 71.543363,37.3733946 72.3012454,37.5544442 C73.0591277,37.7354939 73.8529148,37.577234 74.5,37.1160714 C76.9582571,35.3953343 79.8971714,34.4285714 83.0714286,34.4285714 C91.7840286,34.4285714 98.7857143,41.9553836 98.7857143,51.3214286 C98.7857143,53.6519518 98.3335143,55.8685404 97.5357143,57.8962054 C97.189741,58.8096816 97.2728413,59.8461883 97.7591059,60.6825573 C98.2453705,61.5189263 99.0756487,62.0534193 99.9910714,62.1193889 C110.487929,62.8018604 118.785714,72.1078282 118.785714,83.5714746 C118.785714,95.4820139 109.865257,105.071475 98.7857143,105.071475 L33.0714286,105.071475 C20.4139286,105.071475 10.2142857,94.1067818 10.2142857,80.5000461 C10.2142857,72.2902711 13.9849,65.0043818 19.7232143,60.5357604 C20.6349598,59.8235431 21.0720943,58.601734 20.8392857,57.4162946 C20.4440286,55.4311996 20.2142857,53.4265243 20.2142857,51.3214286 C20.2142857,35.1701679 32.3327143,22.1428571 47.3571429,22.1428571 L47.3571429,22.1428571 Z" id="Shape-Copy-3"></path>
            <polygon id="Shape-Copy-6" points="61.2995129 47 72.1452056 47 65.3549779 63.0752352 75.4457168 63.0752352 53 101 61.974179 72.697067 53 72.697067"></polygon>
        </g>
    </g>
</svg>
