<svg xmlns="http://www.w3.org/2000/svg" viewBox="0 0 640 640" style="fill: var(--fa-navy); display: block; width: 100%; height: 100%;"><path d="M0 482.3C0 383.8 79.8 304 178.3 304l91.4 0c20.6 0 40.4 3.5 58.8 9.9c-5.5 17-8.5 35.2-8.5 54.1c0 59.5 29.6 112.1 74.8 144L29.7 512C13.3 512 0 498.7 0 482.3zM113.1 64C136 24.4 178.3 0 224 0s88 24.4 110.9 64s22.9 88.4 0 128S269.7 256 224 256s-88-24.4-110.9-64s-22.9-88.4 0-128zM352 368c0-79.5 64.5-144 144-144s144 64.5 144 144s-64.5 144-144 144s-144-64.5-144-144zm76.7-11.3c-6.2 6.2-6.2 16.4 0 22.6l40 40c6.2 6.2 16.4 6.2 22.6 0l72-72c6.2-6.2 6.2-16.4 0-22.6s-16.4-6.2-22.6 0L480 385.4l-28.7-28.7c-6.2-6.2-16.4-6.2-22.6 0z"></path></svg>
