<?xml version="1.0" encoding="utf-8"?>
<!-- Generator: Adobe Illustrator 21.0.2, SVG Export Plug-In . SVG Version: 6.00 Build 0)  -->
<svg version="1.1" id="Layer_1" xmlns="http://www.w3.org/2000/svg" xmlns:xlink="http://www.w3.org/1999/xlink" x="0px" y="0px"
	 viewBox="0 0 100 100" style="enable-background:new 0 0 100 100;" xml:space="preserve">
<style type="text/css">
	.st0{}
	.st1{fill-rule:evenodd;clip-rule:evenodd;}
</style>
<g>
	<path class="st0" d="M27.4,52.5c0-2.9,1.2-5.6,3.2-7.7L52,23.5l-6.9,0c-1.8,0.1-3.6,0.8-5,2.2L15.6,50.1c-2.9,2.9-2.9,7.6,0,10.5
		L33.9,79c2.9,2.9,7.7,2.9,10.5,0l2.4-2.4L30.5,60.2C28.5,58.2,27.4,55.4,27.4,52.5z"/>
	<path class="st0" d="M75.4,41.5c-4.3,0-7.8-3.5-7.8-7.8c0-4.3,3.5-7.8,7.8-7.8c4.3,0,7.8,3.5,7.8,7.8C83.2,38,79.7,41.5,75.4,41.5z
		 M81,20.7l-18.6,0c-1.8,0.1-3.6,0.8-5,2.2L32.9,47.3c-2.9,2.9-2.9,7.6,0,10.5l18.4,18.4c2.9,2.9,7.7,2.9,10.5,0l24.5-24.5
		c1.4-1.4,2.1-3.2,2.1-5V28.1C88.4,24,85.1,20.7,81,20.7z"/>
</g>
</svg>
