<?xml version="1.0" encoding="utf-8"?>
<!-- Generator: Adobe Illustrator 21.0.0, SVG Export Plug-In . SVG Version: 6.00 Build 0)  -->
<svg version="1.1" id="Layer_1" xmlns="http://www.w3.org/2000/svg" xmlns:xlink="http://www.w3.org/1999/xlink" x="0px" y="0px"
	 viewBox="0 0 100 100" style="enable-background:new 0 0 100 100;" xml:space="preserve">
<style type="text/css">
	.st0{}
	.st1{fill-rule:evenodd;clip-rule:evenodd;fill:#55499E;}
</style>
<g>
	<path class="st0" d="M41,85.3c-0.5-0.2-1-0.4-1.4-0.7c-1.2-0.8-1.9-2-1.9-3.5c-0.1-3,0-6-0.1-9c0-1.4,0.1-1.2-1.2-1.2
		c-0.9,0-1.9,0-2.8,0c-2,0-3.6-1.6-3.7-3.6c0-0.3,0-0.5,0-0.8c0-9,0-17.9,0-26.9c0-0.8,0-0.9,0.8-0.9c12,0,24,0,36,0
		c1.4,0,1.4,0,1.4,1.4c0,8.9,0,17.7,0,26.6c0,1.5-0.5,2.7-1.7,3.5c-0.6,0.4-1.2,0.6-1.9,0.6c-1.1,0-2.3,0-3.4,0
		c-0.5,0-0.6,0.2-0.6,0.6c0,2.9,0,5.8,0,8.7c0,1.2-0.2,2.3-1,3.3c-0.6,0.7-1.3,1.2-2.1,1.5c-0.1,0-0.2,0.1-0.3,0.2
		c-0.4,0-0.9,0-1.3,0c-0.1,0-0.1-0.1-0.2-0.1c-2-0.7-3-2-3.2-4.1c0-0.3,0-0.6,0-0.9c0-2.7,0-5.5,0-8.2c0-0.9,0-0.9-0.9-0.9
		c-1.5,0-2.9,0-4.4,0c-1.3,0-1.3,0-1.3,1.3c0,2.8,0,5.6,0,8.3c0,1.5-0.4,2.8-1.6,3.7c-0.5,0.4-1.2,0.6-1.8,1
		C41.9,85.3,41.4,85.3,41,85.3z"/>
	<path class="st0" d="M49,36.6c-6.1,0-12.2,0-18.3,0c-0.7,0-0.7-0.1-0.7-0.7c0.2-3.2,1.2-6.1,3.1-8.7c1.5-2.2,3.5-3.8,5.8-5.2
		c1.1-0.6,1.1-0.6,0.4-1.7c-0.8-1.4-1.7-2.9-2.5-4.4c-0.1-0.2,0-0.4,0-0.7c0.2,0.1,0.4,0.2,0.5,0.3c1,1.7,2,3.3,2.9,5
		c0.2,0.4,0.4,0.4,0.8,0.3c5.2-2.1,10.5-2,15.7,0c0.4,0.2,0.6,0.1,0.8-0.3c0.9-1.7,1.9-3.3,2.9-5c0.1-0.2,0.4-0.4,0.6-0.4
		c0.4,0.2,0.2,0.5,0,0.7c-0.9,1.6-1.8,3.2-2.8,4.8c-0.2,0.4-0.2,0.6,0.2,0.9c2.5,1.3,4.5,3,6.2,5.3c1.8,2.4,2.8,5.1,3.1,8
		c0,0.4,0.1,0.7,0.1,1.1c0,0.3-0.1,0.5-0.4,0.5c-0.2,0-0.5,0-0.7,0C60.9,36.6,55,36.6,49,36.6z M59.9,28.6c0-1-0.8-1.8-1.8-1.8
		c-1,0-1.8,0.8-1.8,1.8c0,0.9,0.8,1.7,1.8,1.7C59,30.4,59.9,29.5,59.9,28.6z M40,30.4c0.9,0,1.8-0.8,1.8-1.8c0-1-0.8-1.8-1.8-1.8
		c-1,0-1.8,0.9-1.8,1.9C38.2,29.5,39.1,30.4,40,30.4z"/>
	<path class="st0" d="M19.5,51.2c0-2.7,0-5.5,0-8.2c0-1.6,0.5-3,1.9-4c1.8-1.3,4.4-0.8,5.5,1.1c0.5,0.9,0.8,1.8,0.8,2.8
		c0,5.6,0,11.1,0,16.7c0,1.6-0.5,3-1.8,4.1c-1.5,1.2-3.8,0.9-5.1-0.5c-0.9-1-1.2-2.1-1.2-3.4C19.5,56.8,19.5,54,19.5,51.2z"/>
	<path class="st0" d="M70.4,51.3c0-2.7,0-5.4,0-8.2c0-1.2,0.3-2.4,1.1-3.4c1.9-2.3,5.5-1.8,6.6,1c0.3,0.7,0.4,1.4,0.4,2.2
		c0,5.6,0,11.1,0,16.7c0,1.6-0.5,3-1.8,4c-1.5,1.2-3.9,1-5.2-0.5c-0.8-1-1.2-2.1-1.2-3.3C70.4,56.9,70.4,54.1,70.4,51.3z"/>
</g>
</svg>
