<?xml version="1.0" encoding="utf-8"?>
<!DOCTYPE svg PUBLIC "-//W3C//DTD SVG 1.0//EN" "http://www.w3.org/TR/2001/REC-SVG-20010904/DTD/svg10.dtd">
<svg version="1.0" xmlns="http://www.w3.org/2000/svg" width="100px" height="100px" viewBox="0 0 100 100" preserveAspectRatio="xMidYMid meet">
 <g fill="#ffffff">
  <path d="M13.3 95.3 c-3.1 -0.6 -7.9 -5.6 -8.6 -8.9 -1.3 -7.2 3.2 -13 11.2 -14.3 2.8 -0.4 5.3 -1 5.5 -1.2 1.6 -1.7 8.6 -17.3 8.6 -19.1 0 -1.3 -0.9 -3.6 -2 -5.3 -3.7 -5.7 -1.6 -13 4.6 -16 4 -1.9 6.7 -1.9 10.2 -0.1 5.2 2.7 6.7 5.3 6.5 11.2 -0.3 5.3 -0.2 5.4 4.4 8.9 5.1 3.9 5.9 4.1 8.7 2 1.1 -0.8 2.9 -1.5 4.1 -1.5 1.2 0 2.9 -0.6 3.8 -1.2 1.8 -1.4 7.6 -16.8 7.7 -20.4 0 -1.2 -1.3 -3.8 -3 -5.9 -3.3 -4.2 -3.7 -6.9 -1.6 -11.8 1.7 -4.2 6 -7 10.7 -7 13.9 0 15.5 20.7 1.8 22.9 -2.1 0.4 -4.3 1.2 -4.8 1.8 -0.5 0.6 -2.3 5.7 -4.2 11.3 l-3.3 10.1 3.2 3.6 c9.2 10.5 -2.7 24.8 -14.6 17.6 -3.9 -2.4 -5.2 -5.4 -5.2 -12 0 -4.7 -0.1 -4.9 -5 -8 -4.8 -3.1 -5.1 -3.1 -7.5 -1.6 -1.3 0.9 -3.8 1.6 -5.5 1.6 -5 0 -6.6 1.5 -10.9 10.4 -4.7 9.5 -4.9 10.9 -2.1 15.4 5.5 9 -2.1 19.5 -12.7 17.5z m9.8 -5.2 c5.1 -5.1 3 -13.1 -4 -15.2 -5.1 -1.5 -9 0.3 -11.4 5.3 -1.6 3.3 -1.6 4 -0.3 7.1 1.7 4.3 3.9 5.6 8.9 5.7 2.9 0 4.5 -0.7 6.8 -2.9z m52 -21 c3.9 -4 4.1 -9.7 0.3 -13.5 -5.9 -5.8 -16.4 -1.4 -16.4 6.9 0 2.7 0.8 4.4 2.9 6.6 4.1 4 9.1 4 13.2 0z m-30.6 -21.6 c3.2 -3.1 3.4 -9.1 0.5 -12.8 -5.9 -7.5 -18.3 -1.7 -16.6 7.9 1.4 7 11.1 10 16.1 4.9z m46.1 -24.7 c5.8 -5.9 1.8 -15.8 -6.3 -15.8 -4.8 0 -7.8 2.1 -9.3 6.4 -1.3 4.1 -0.2 7.5 3.7 10.6 3.5 2.7 8.6 2.2 11.9 -1.2z"/>
 </g>
</svg>