<?xml version="1.0" encoding="utf-8"?>
<!DOCTYPE svg PUBLIC "-//W3C//DTD SVG 1.0//EN" "http://www.w3.org/TR/2001/REC-SVG-20010904/DTD/svg10.dtd">
<svg version="1.0" xmlns="http://www.w3.org/2000/svg" width="100px" height="100px" viewBox="0 0 100 100" preserveAspectRatio="xMidYMid meet">
 <g fill="#15263B">
  <path d="M38.1 84.9 c-21.9 -3.6 -32.8 -27.2 -22.5 -48.4 10.5 -21.3 36.8 -29.4 55 -16.9 l6.3 4.3 4.2 -1.4 c2.3 -0.9 4.4 -1.3 4.7 -1 0.3 0.2 -0.7 2.3 -2.2 4.5 l-2.6 4 1.6 5.6 c7.7 26.6 -16.9 53.8 -44.5 49.3z m22.4 -13.8 c9 -4 17.2 -14.1 18.9 -23.4 0.8 -4.2 0 -11.6 -1.5 -13.8 -1.7 -2.6 -4.9 2.6 -4.9 8.1 0 6.2 -3.3 12.3 -8.8 16.3 -3.5 2.5 -5.5 3.2 -10.7 3.5 -3.6 0.2 -6.5 0.1 -6.5 -0.3 0 -0.4 7.6 -8.6 16.9 -18.3 9.4 -9.7 16.8 -17.8 16.6 -18 -0.2 -0.2 -1.5 0.4 -3 1.4 -2.6 1.7 -2.7 1.6 -5.8 -1.3 -5.8 -5.5 -9.3 -6.8 -18.7 -6.7 -10.4 0 -16.2 2.4 -23.2 9.6 -14.8 15.2 -10 38.1 9.4 44.4 5.5 1.8 15.4 1.1 21.3 -1.5z"/>
  <path d="M35.8 48.8 c-0.4 -6.6 0.7 -10.1 4.4 -14.3 4.4 -5 9.6 -7.5 16 -7.5 6.5 0 13 3.3 10.7 5.4 -1.1 1 -25.2 15.6 -30.1 18.3 -0.5 0.2 -0.9 -0.6 -1 -1.9z"/>
 </g>
</svg>