<?xml version="1.0" encoding="UTF-8"?>
<svg width="20px" height="20px" viewBox="0 0 20 20" version="1.1" xmlns="http://www.w3.org/2000/svg" xmlns:xlink="http://www.w3.org/1999/xlink">
    <!-- Generator: Sketch 45.1 (43504) - http://www.bohemiancoding.com/sketch -->
    <title>custom_or_general</title>
    <desc>Created with Sketch.</desc>
    <defs></defs>
    <g id="Template-Spec-Icons" stroke="none" stroke-width="1"  >
        <g id="template_icons/custom" transform="translate(-10.000000, -10.000000)" >
            <g id="custom_or_general" transform="translate(10.000000, 10.000000)">
                <g id="Group">
                    <path d="M10.1388755,0 L4.88359842,2.447712 L4.88087286,2.44633831 L4.88087286,2.44909273 L4.88087286,2.48899387 L4.88087286,8.61721687 L0,10.64253 C0.00351324822,10.6473203 0.000906194976,10.6544564 0.00135929246,10.6604161 L0.00135929246,17.2949671 L4.8808707,19.9958437 L4.8808707,20 L10.089858,17.4779899 L14.6398937,19.9917452 L19.9972814,17.5344014 L19.9972814,10.9053536 L20,10.8998589 L15.3015638,8.62963644 L15.3015638,2.44500195 L15.2920348,2.44913007 L10.1388755,0 Z M10.1361569,0.777379069 L14.479249,2.84259304 L10.0898671,4.96697038 L5.70048509,2.84259304 L10.1361569,0.777379069 Z M5.54255448,3.50714892 L9.76039131,5.54897274 L9.76039131,10.6672909 L5.54255448,8.62959488 L5.54255448,3.50714892 Z M14.6385413,3.50714892 L14.6385413,8.63097068 L10.4220656,10.6672909 L10.4220656,5.5475968 L14.6385413,3.50714892 Z M5.20082528,9.24599452 L9.30021365,11.2259033 L4.88632551,13.3640394 L0.769237756,11.0855621 L5.20082528,9.24599452 Z M14.9707357,9.25149844 L19.169512,11.2795632 L14.9707357,13.2044363 L10.880877,11.2259033 L14.9707357,9.25149844 Z M9.76038713,11.7459903 L9.76038713,11.7597484 L9.76038713,16.895953 L5.54255029,18.9377772 L5.54255029,13.7878131 L9.76038713,11.7459903 Z M10.4220614,11.7473992 L14.6398985,13.7878476 L14.6398985,19.2487631 L10.4220614,16.9193776 L10.4220614,11.7611587 L10.4220614,11.7473992 Z M0.663038885,11.7707872 L4.88087544,14.1043001 L4.88087544,19.2528877 L0.663038885,16.9193748 L0.663038885,11.7707872 Z M19.3342499,11.9469014 L19.3342499,17.0968648 L15.3015728,18.9460637 L15.3015728,13.7947238 L19.3342499,11.9469014 Z" id="Shape"></path>
                </g>
            </g>
        </g>
    </g>
</svg>