<?xml version="1.0" encoding="utf-8"?>
<!DOCTYPE svg PUBLIC "-//W3C//DTD SVG 1.0//EN" "http://www.w3.org/TR/2001/REC-SVG-20010904/DTD/svg10.dtd">
<svg version="1.0" xmlns="http://www.w3.org/2000/svg" width="100px" height="100px" viewBox="0 0 100 100" preserveAspectRatio="xMidYMid meet">
 <g fill="#ffffff">
  <path d="M0 50 l0 -50 50 0 50 0 0 50 0 50 -50 0 -50 0 0 -50z"/>
 </g>
 <g fill="#15263B">
  <path d="M45.2 98.8 c-0.7 -0.7 -1.2 -2.2 -1.2 -3.5 0 -3 -3.2 -3.1 -5.2 -0.1 -1.6 2.4 -4.7 2.1 -8.8 -1.1 -2.2 -1.7 -2.3 -2.2 -1.2 -4.6 1.6 -3.5 0 -6 -2.8 -4.5 -3.2 1.7 -4.8 1.1 -7 -2.5 -2.3 -3.6 -2 -6.9 0.5 -7.9 0.8 -0.3 1.5 -1.5 1.5 -2.6 0 -1.4 -0.7 -2 -2.3 -2 -3.3 0 -4.7 -1.8 -4.7 -6 0 -4.2 1.4 -6 4.7 -6 3 0 3.1 -3.2 0.1 -5.2 -2.2 -1.5 -2.2 -1.5 -0.4 -5.6 2.1 -4.6 3.8 -5.7 6.8 -4.1 2.8 1.5 5.8 -1.2 3.9 -3.5 -1.9 -2.3 -0.5 -5 3.4 -6.9 3.7 -1.8 6 -1.5 6.9 0.9 0.3 0.8 1.5 1.4 2.6 1.4 1.4 0 2 -0.7 2 -2.3 0 -3.3 1.8 -4.7 6 -4.7 4.2 0 6 1.4 6 4.7 0 1.6 0.6 2.3 2 2.3 1.1 0 2.3 -0.6 2.6 -1.4 0.9 -2.4 3.2 -2.7 6.9 -0.9 3.9 1.9 5.3 4.6 3.4 6.9 -1.9 2.3 1.1 5 3.9 3.5 3 -1.6 4.7 -0.5 6.8 4.1 1.8 4.1 1.8 4.1 -0.4 5.6 -3 2 -2.9 5.2 0.1 5.2 3.3 0 4.7 1.8 4.7 6 0 4.2 -1.4 6 -4.7 6 -1.6 0 -2.3 0.6 -2.3 2 0 1.1 0.7 2.3 1.5 2.6 2.5 1 2.8 4.3 0.5 7.9 -2.2 3.6 -3.8 4.2 -7 2.5 -2.8 -1.5 -4.4 1 -2.8 4.5 1.1 2.4 1 2.9 -1.2 4.6 -4.1 3.2 -7.2 3.5 -8.8 1.1 -2 -3 -5.2 -2.9 -5.2 0.1 0 1.3 -0.5 2.8 -1.2 3.5 -1.6 1.6 -8 1.6 -9.6 0z m7.8 -4.7 c0 -3.4 0.3 -3.7 5.2 -4.6 3.1 -0.6 3.7 -0.4 4.3 1.4 0.7 2.3 2.1 2.6 4.4 1.2 1.2 -0.8 1.3 -1.4 0.2 -3.7 -1.1 -2.5 -1 -3 1.7 -5.7 2.5 -2.4 3.3 -2.7 5 -1.8 2.9 1.5 3.9 1.4 4.7 -0.6 0.4 -1.2 -0.1 -2.4 -1.5 -3.5 -1.9 -1.5 -2.1 -2.3 -1.3 -5.5 0.8 -3.3 1.3 -3.8 4.1 -4.1 2.9 -0.3 3.3 -0.6 3 -3 -0.2 -2.1 -0.8 -2.6 -2.5 -2.5 -2.7 0.3 -3.9 -1.2 -4.8 -5.9 -0.6 -3.1 -0.4 -3.7 1.4 -4.3 2.3 -0.7 2.6 -2.1 1.1 -4.5 -0.7 -1.2 -1.2 -1.2 -3.5 0 -2.4 1.3 -2.8 1.2 -5.6 -1.7 -2.7 -2.7 -3 -3.3 -1.9 -5.2 0.9 -1.7 0.9 -2.6 -0.1 -3.7 -1.6 -2 -3.7 -1.7 -4.4 0.6 -0.7 2.1 -1.6 2.3 -6.3 1.4 -2.6 -0.5 -3.1 -1.2 -3.4 -3.8 -0.2 -2.6 -0.7 -3.1 -2.8 -3.1 -2 0 -2.6 0.6 -3 3 -0.4 2 -1.2 3.1 -3 3.6 -4.3 1.2 -5.8 1 -6.5 -1.1 -0.7 -2.2 -2.2 -2.5 -4.4 -1.1 -1.2 0.8 -1.3 1.4 -0.2 3.7 1.1 2.5 1 3 -1.7 5.6 -2.6 2.7 -3.1 2.8 -5.6 1.7 -2.3 -1.1 -2.9 -1 -3.7 0.2 -1.4 2.3 -1.1 3.7 1.2 4.4 1.8 0.6 2 1.2 1.4 4.3 -0.9 4.7 -2.2 6.4 -4.9 6 -1.6 -0.2 -2.2 0.3 -2.4 2.4 -0.3 2.4 0.1 2.7 3 3 2.8 0.3 3.3 0.8 4.1 4.1 0.8 3.2 0.6 4 -1.3 5.5 -1.4 1.1 -1.9 2.3 -1.5 3.5 0.8 2 1.8 2.1 4.7 0.6 1.7 -0.9 2.5 -0.6 5 1.9 2.5 2.5 2.8 3.3 1.9 5 -1.6 3 -1.4 4 0.9 4.7 1.4 0.5 2.6 0 3.8 -1.5 1.5 -1.9 2.3 -2 5.2 -1.3 3 0.8 3.5 1.4 3.8 4.1 0.3 2.8 0.7 3.2 3.3 3.2 2.5 0 2.9 -0.4 2.9 -2.9z"/>
  <path d="M42.5 83.5 c-8.2 -2.9 -14.5 -13.7 -12.9 -22.3 2 -11 9.6 -17.5 20.4 -17.5 10.9 0 18.4 6.5 20.4 17.5 1.1 5.9 -1.2 12.5 -5.8 17.3 -6 6.2 -13.7 8 -22.1 5z m11.8 -2.6 c5 -1.3 10.3 -6.1 11.8 -10.6 1.7 -5.3 0.7 -12.6 -2.4 -16.6 -9.4 -12.3 -29 -7 -30.5 8.2 -0.8 9 3.3 15.7 11.4 18.6 4.8 1.7 5 1.7 9.7 0.4z"/>
  <path d="M45.7 75.3 c-0.3 -0.5 0.9 -5.7 2.6 -11.6 2.5 -8.3 3.6 -10.7 5 -10.7 0.9 0 1.7 0.1 1.7 0.3 -0.1 0.1 -1.5 5.1 -3.3 11.1 -3 10.1 -4.7 13.1 -6 10.9z"/>
  <path d="M38.7 68.1 l-2.5 -3.8 2 -3.4 c2.6 -4.4 2.5 -4.2 4.3 -3.5 1.5 0.5 1.4 0.9 -0.5 3.5 -2 3 -2 3 -0.1 6.2 1.9 3.1 2 4.9 0.2 4.9 -0.5 0 -2 -1.7 -3.4 -3.9z"/>
  <path d="M56.6 71.2 c-0.3 -0.5 0.4 -2.3 1.5 -4.1 1.9 -3.2 1.9 -3.2 -0.1 -6.1 -2.5 -3.5 -2.5 -4 -0.2 -4 1 0 2.7 1.6 3.9 3.7 l2.1 3.6 -2.5 3.9 c-2.6 3.8 -3.7 4.5 -4.7 3z"/>
  <path d="M0 43 l0 -43 50 0 50 0 0 43 0 43 -7.5 0 c-6 0 -7.5 -0.3 -7.5 -1.5 0 -1.2 1.3 -1.5 6 -1.5 l6 0 0 -33 0 -33 -47 0 -47 0 0 33 0 33 6 0 c4.7 0 6 0.3 6 1.5 0 1.2 -1.5 1.5 -7.5 1.5 l-7.5 0 0 -43z m97 -34.5 l0 -5.5 -47 0 -47 0 0 5.5 0 5.5 47 0 47 0 0 -5.5z"/>
  <path d="M71 8.5 c0 -0.8 0.7 -1.5 1.5 -1.5 0.8 0 1.5 0.7 1.5 1.5 0 0.8 -0.7 1.5 -1.5 1.5 -0.8 0 -1.5 -0.7 -1.5 -1.5z"/>
  <path d="M79.7 9.4 c-0.8 -0.8 0.1 -2.4 1.4 -2.4 0.5 0 0.9 0.7 0.9 1.5 0 1.5 -1.2 2 -2.3 0.9z"/>
  <path d="M87.2 8.8 c0.6 -1.8 2.8 -2.1 2.8 -0.4 0 0.9 -0.7 1.6 -1.6 1.6 -0.9 0 -1.4 -0.5 -1.2 -1.2z"/>
 </g>
</svg>