<svg xmlns="http://www.w3.org/2000/svg" viewBox="0 0 640 640" style="fill: var(--fa-navy); display: block; width: 100%; height: 100%;"><path d="M440 85l0 116.1c-35.9 12-66.6 35.3-88 65.7c-11.5 4.1-23 8.2-34.5 12.3c7.4 2.7 14.8 5.3 22.2 8c-4.9 9.4-8.9 19.3-12.1 29.6c-7.9-2.8-15.7-5.7-23.6-8.5c0 41.3 0 82.6 0 123.9c11.5 4.7 22.9 9.5 34.4 14.2c9.4 18.9 22.1 35.8 37.3 50.1c-29.2-12.1-58.5-24.2-87.7-36.3c-39.2 16.2-78.4 32.5-117.6 48.7c-11.8 4.8-25 4.8-36.8 0c-34.7-14.4-69.3-28.7-104-43.1C11.7 458.3 0 440.8 0 421.4c0-42.1 0-84.1 0-126.2c0-20.3 12.8-38.4 31.9-46.1c34.7-12.1 69.4-24.1 104-36.2c0 0 .1-.1 .1-.1c0-42.6 0-85.2 0-127.8c0-20.3 12.8-38.4 31.9-45.2c34.7-12.4 69.3-24.7 104-37.1c10.4-3.7 21.8-3.7 32.2 0c34.7 12.4 69.3 24.7 104 37.1C427.2 46.6 440 64.7 440 85zM293.4 32.8c-3.5-1.2-7.3-1.2-10.8 0c-34.7 12.4-69.3 24.7-104 37.1c-2.3 .8-4.4 2.2-6 3.9c38.2 14.7 76.3 29.5 114.5 44.2c38.8-14.7 77.5-29.5 116.3-44.2c-1.6-1.7-3.7-3-6-3.9c-34.7-12.4-69.3-24.7-104-37.1zM168.1 212.9l103 37c0-34.6 0-69.1 0-103.7c-34.7-13.3-69.3-26.6-104-39.9c0 35.5 0 71 0 106.5c.3 0 .7 .1 1 .1zm135.9 37l103.9-37c0 0 .1-.1 .1-.1c0-35.5 0-71 0-106.5c-34.7 13.3-69.3 26.6-104 39.9c0 34.6 0 69.1 0 103.7zM159.1 348.6l0 129.8c37.3-15.4 74.7-30.9 112-46.3c0-41.3 0-82.6 0-123.9c-37.3 13.5-74.7 26.9-112 40.4zM41.9 436.2l85.2 35.6c0-41.2 0-82.5 0-123.7c-32-13.1-64-26.1-96-39.2c0 37.5 0 75 0 112.5c0 6.4 4.8 12.3 10.8 14.8zM157.4 243c-3.5-1.2-7.3-1.2-10.8 0c-34 12.1-68 24.3-102.1 36.4c33.3 13.6 66.6 27.2 99.8 40.8c38-13.7 76.1-27.4 114.1-41.1c-33.7-12-67.4-24.1-101.1-36.1zM491.3 419.3c-6.2 6.2-16.4 6.2-22.6 0c-13.3-13.3-26.7-26.7-40-40c-6.2-6.2-6.2-16.4 0-22.6s16.4-6.2 22.6 0c9.6 9.6 19.1 19.1 28.7 28.7c20.2-20.2 40.5-40.5 60.7-60.7c6.2-6.2 16.4-6.2 22.6 0s6.2 16.4 0 22.6c-24 24-48 48-72 72zM640 368c0 79.5-64.5 144-144 144s-144-64.5-144-144s64.5-144 144-144s144 64.5 144 144zM496 256c-61.9 0-112 50.1-112 112s50.1 112 112 112s112-50.1 112-112s-50.1-112-112-112z"></path></svg>