<?xml version="1.0" encoding="utf-8"?>
<!-- Generator: Adobe Illustrator 21.0.0, SVG Export Plug-In . SVG Version: 6.00 Build 0)  -->
<svg version="1.1" id="Layer_1" xmlns="http://www.w3.org/2000/svg" xmlns:xlink="http://www.w3.org/1999/xlink" x="0px" y="0px"
	 viewBox="0 0 100 100" style="enable-background:new 0 0 100 100;" xml:space="preserve">
<style type="text/css">
	.st0{fill:#55499E;}
	.st1{fill-rule:evenodd;clip-rule:evenodd;fill:#55499E;}
</style>
<g>
	<path class="st1" d="M71.8,44.7c0,0.4-0.2,0.7-0.5,0.8v-7.9c0.3,0.1,0.5,0.4,0.5,0.8V44.7z M70.6,45.6H70c-0.7-0.9-1.1-2.3-1.1-4
		c0-1.7,0.4-3.1,1.1-4h0.7V45.6z M70.6,51.9c0.1,0,0.2,0.1,0.2,0.2v12c0,0.1-0.1,0.2-0.2,0.2h-0.5V51.9H70.6z M68.3,66.4
		c0,4.3-3.5,7.8-7.8,7.8H37.2c-4.3,0-7.8-3.5-7.8-7.8V35.5c0-4.3,3.5-7.8,7.8-7.8h23.4c4.3,0,7.8,3.5,7.8,7.8V66.4z M70.9,36.9h-0.8
		v-2.2c0-3.7-2.4-6.8-5.6-8c-2.7-2.5-3.2-6.4-3.2-11.6c0-4-6.6-4.6-12.5-4.5c-5.9-0.1-12.5,0.5-12.5,4.5c0,5.2-0.5,9.1-3.3,11.6
		c-3.2,1.2-5.5,4.3-5.5,7.9v32.5c0,3.8,2.6,7.1,6.1,8.1c2.2,2.5,2.7,6.2,2.7,11c0,4,6.6,4.6,12.5,4.5c5.9,0.1,12.5-0.5,12.5-4.5
		c0-4.8,0.5-8.4,2.6-11c3.6-1,6.2-4.3,6.2-8.2v-2.1h0.5c0.5,0,0.9-0.4,0.9-0.9v-12c0-0.5-0.4-0.9-0.9-0.9h-0.5v-5.1h0.8
		c0.8,0,1.5-0.7,1.5-1.5v-6.3C72.4,37.6,71.8,36.9,70.9,36.9z"/>
	<circle class="st1" cx="39.5" cy="50.3" r="3.8"/>
	<path class="st1" d="M34.9,50.3c0,1.4-2.1,1.4-2.1,0C32.7,48.9,34.9,48.9,34.9,50.3"/>
	<circle class="st1" cx="48.9" cy="50.3" r="4.2"/>
	<circle class="st1" cx="44.4" cy="42.2" r="3.8"/>
	<circle class="st1" cx="36.2" cy="42.7" r="3.1"/>
	<circle class="st1" cx="40.2" cy="35.1" r="3.1"/>
	<circle class="st1" cx="48.9" cy="34.2" r="3.4"/>
	<circle class="st1" cx="57.6" cy="35.2" r="2.9"/>
	<path class="st1" d="M49.6,42.1c0,2.1,1.7,3.8,3.8,3.8c2.1,0,3.8-1.7,3.8-3.8s-1.7-3.8-3.8-3.8C51.3,38.3,49.6,40,49.6,42.1z"/>
	<circle class="st1" cx="58.2" cy="50.3" r="3.8"/>
	<path class="st1" d="M65,50.3c0,1.4-2.1,1.4-2.1,0C62.9,48.9,65,48.9,65,50.3"/>
	<circle class="st1" cx="61.5" cy="42.7" r="3.1"/>
	<path class="st1" d="M45,70.1c0,1.4-2.1,1.4-2.1,0C42.8,68.6,45,68.6,45,70.1"/>
	<circle class="st1" cx="36.1" cy="57.9" r="3.1"/>
	<circle class="st1" cx="44.2" cy="58.5" r="3.9"/>
	<circle class="st1" cx="53.2" cy="58.5" r="3.9"/>
	<circle class="st1" cx="61.5" cy="57.9" r="3"/>
	<circle class="st1" cx="40" cy="65.5" r="2.8"/>
	<circle class="st1" cx="48.8" cy="66.4" r="3.4"/>
	<path class="st1" d="M57.5,62.6c-1.7,0-3.1,1.4-3.1,3.1c0,1.7,1.4,3.1,3.1,3.1c1.7,0,3.1-1.4,3.1-3.1C60.6,64,59.2,62.6,57.5,62.6z
		"/>
</g>
</svg>
