<?xml version="1.0" encoding="utf-8"?>
<!DOCTYPE svg PUBLIC "-//W3C//DTD SVG 1.0//EN" "http://www.w3.org/TR/2001/REC-SVG-20010904/DTD/svg10.dtd">
<svg version="1.0" xmlns="http://www.w3.org/2000/svg" width="100px" height="100px" viewBox="0 0 45 45" preserveAspectRatio="xMidYMid meet">
 <g fill="#15263B">
  <path d="M3.4 37.6 c-1.4 -3.7 0 -5.1 5.6 -5.4 5 -0.3 5.7 -0.7 7.6 -3.6 l2.1 -3.3 -2.4 -4.6 c-1.3 -2.6 -2.9 -4.7 -3.7 -4.7 -1.7 0 -4.6 -3.2 -4.6 -5.2 0 -1.9 3.2 -4.8 5.3 -4.8 2.7 0 5.1 4.4 3.7 6.9 -1.7 3.3 3.1 12 7.2 12.8 1.9 0.4 3.7 1.6 4.7 3.4 1.4 2.5 2.3 2.9 7.1 3.1 5.4 0.3 5.5 0.4 5.5 3.3 l0 3 -18.8 0.3 c-15.7 0.2 -18.8 0 -19.3 -1.2z m35.6 -2.1 c0 -1.3 -2.5 -1.5 -16.5 -1.5 -14 0 -16.5 0.2 -16.5 1.5 0 1.3 2.5 1.5 16.5 1.5 14 0 16.5 -0.2 16.5 -1.5z m-12 -5.5 c-0.8 -1.4 -2.1 -2 -4.5 -2 -2.4 0 -3.7 0.6 -4.5 2 -1 1.9 -0.8 2 4.5 2 5.3 0 5.5 -0.1 4.5 -2z m-12.2 -18.7 c0.4 -2.5 -2.2 -3.7 -3.8 -1.7 -1 1.1 -1 1.7 0 2.9 1.7 2 3.4 1.4 3.8 -1.2z"/>
 </g>
</svg>