<svg xmlns="http://www.w3.org/2000/svg" viewBox="0 0 640 640" style="fill: var(--fa-navy); display: block; width: 100%; height: 100%;"><path d="M440 85l0 117.7c-9.2 11.7-16.1 25.2-20.1 39.9c-.4 .1-.9 .2-1.3 .4c-33.7 12-67.4 24.1-101.1 36.1c27.7 10 55.4 20 83.1 29.9c-7.2 8-12.5 17.8-15 28.6c-27.2-9.8-54.4-19.6-81.6-29.4c0 41.3 0 82.6 0 123.9c26.7 11 53.3 22 80 33.1c0 4.9 0 9.9 0 14.8c0 7.5 1.3 14.7 3.7 21.4c-33.2-13.8-66.4-27.5-99.7-41.3c-39.2 16.2-78.4 32.5-117.6 48.7c-11.8 4.8-25 4.8-36.8 0c-34.7-14.4-69.3-28.7-104-43.1C11.7 458.3 0 440.8 0 421.4c0-42.1 0-84.1 0-126.2c0-20.3 12.8-38.4 31.9-46.1c34.7-12.1 69.4-24.1 104-36.2c0 0 .1-.1 .1-.1c0-42.6 0-85.2 0-127.8c0-20.3 12.8-38.4 31.9-45.2c34.7-12.4 69.3-24.7 104-37.1c10.4-3.7 21.8-3.7 32.2 0c34.7 12.4 69.3 24.7 104 37.1C427.2 46.6 440 64.7 440 85zM293.4 32.8c-3.5-1.2-7.3-1.2-10.8 0c-34.7 12.4-69.3 24.7-104 37.1c-2.3 .8-4.4 2.2-6 3.9c38.2 14.7 76.3 29.5 114.5 44.2c38.8-14.7 77.5-29.5 116.3-44.2c-1.6-1.7-3.7-3-6-3.9c-34.7-12.4-69.3-24.7-104-37.1zM168.1 212.9l103 37c0-34.6 0-69.1 0-103.7c-34.7-13.3-69.3-26.6-104-39.9c0 35.5 0 71 0 106.5c.3 0 .7 .1 1 .1zm135.9 37l103.9-37c0 0 .1-.1 .1-.1c0-35.5 0-71 0-106.5c-34.7 13.3-69.3 26.6-104 39.9c0 34.6 0 69.1 0 103.7zM159.1 348.6l0 129.8c37.3-15.4 74.7-30.9 112-46.3c0-41.3 0-82.6 0-123.9c-37.3 13.5-74.7 26.9-112 40.4zM41.9 436.2l85.2 35.6c0-41.2 0-82.5 0-123.7c-32-13.1-64-26.1-96-39.2c0 37.5 0 75 0 112.5c0 6.4 4.8 12.3 10.8 14.8zM157.4 243c-3.5-1.2-7.3-1.2-10.8 0c-34 12.1-68 24.3-102.1 36.4c33.3 13.6 66.6 27.2 99.8 40.8c38-13.7 76.1-27.4 114.1-41.1c-33.7-12-67.4-24.1-101.1-36.1zM480 272l0 48c32 0 64 0 96 0c0-16 0-32 0-48c0-26.5-21.5-48-48-48s-48 21.5-48 48zm-32 48l0-48c0-44.2 35.8-80 80-80s80 35.8 80 80c0 16 0 32 0 48c17.7 0 32 14.3 32 32c0 42.7 0 85.3 0 128c0 17.7-14.3 32-32 32c-53.3 0-106.7 0-160 0c-17.7 0-32-14.3-32-32c0-42.7 0-85.3 0-128c0-17.7 14.3-32 32-32zm0 160l160 0c0-42.7 0-85.3 0-128c-53.3 0-106.7 0-160 0c0 42.7 0 85.3 0 128z"></path></svg>