<?xml version="1.0" encoding="utf-8"?>
<!-- Generator: Adobe Illustrator 21.0.0, SVG Export Plug-In . SVG Version: 6.00 Build 0)  -->
<svg version="1.1" id="Layer_1" xmlns="http://www.w3.org/2000/svg" xmlns:xlink="http://www.w3.org/1999/xlink" x="0px" y="0px"
	 viewBox="0 0 100 100" style="enable-background:new 0 0 100 100;" xml:space="preserve">
<g>
	<path class="" d="M42.9,32.4H24.2c-3,0-6.1,2.9-6.1,5.9v39.9c0,3,3.1,5.2,6.1,5.2h18.7c3,0,4.9-2.2,4.9-5.2V38.3
		C47.8,35.3,45.9,32.4,42.9,32.4z M33.6,82.6c-1.4,0-2.5-1.1-2.5-2.5c0-1.4,1.1-2.5,2.5-2.5s2.5,1.1,2.5,2.5
		C36.1,81.4,35,82.6,33.6,82.6z M45.4,74.9c0,0.8-0.6,1.5-1.4,1.5h-21c-0.8,0-2.6-0.7-2.6-1.5V41.7c0-0.8,1.8-2.2,2.6-2.2h21
		c0.8,0,1.4,1.4,1.4,2.2V74.9z"/>
	<path class="" d="M76.4,15.8h-37c-3,0-5.8,2.8-5.8,5.8v8.5h3.6v-4.8c0-1,1.1-2.3,2-2.3h37.5c0.9,0,0.9,1.3,0.9,2.3v48.3
		c0,1,0.1,1.6-0.9,1.6H50.2V78c0,2.2,0.2,4.3-1.2,5.5h27.5c3,0,4.6-2.2,4.6-5.2V21.6C81,18.6,79.4,15.8,76.4,15.8z M57.9,81.8
		c-1.4,0-2.5-1.1-2.5-2.5c0-1.4,1.1-2.5,2.5-2.5c1.4,0,2.5,1.1,2.5,2.5C60.3,80.7,59.2,81.8,57.9,81.8z"/>
</g>
</svg>
