<?xml version="1.0" encoding="utf-8"?>
<!-- Generator: Adobe Illustrator 27.2.0, SVG Export Plug-In . SVG Version: 6.00 Build 0)  -->
<svg version="1.1" id="Layer_1" xmlns="http://www.w3.org/2000/svg" xmlns:xlink="http://www.w3.org/1999/xlink" x="0px" y="0px"
	 viewBox="0 0 404.7 402.9" style="enable-background:new 0 0 404.7 402.9;" xml:space="preserve">
<style type="text/css">
	.st0{clip-path:url(#SVGID_00000178201259554050282270000007791592493044961170_);}
	.st1{clip-path:url(#SVGID_00000105392253102407885180000007407611091543873673_);}
	.st2{clip-path:url(#SVGID_00000014604714603822092460000004932690160911083934_);}
	.st3{clip-path:url(#SVGID_00000058560607223562794050000002517928301132987267_);}
	.st4{stroke:#FFFFFF;stroke-miterlimit:10;}
	.st5{fill:none;stroke:#FFFFFF;stroke-miterlimit:10;}
</style>
<g>
	<g>
		<path id="SVGID_1_" d="M69,0C31.9,0,1.9,30.1,1.8,67.2v58.4h22.9V67.2c0-14.5,29.8-44.3,44.3-44.3h268.6
			c14.5,0,44.3,29.8,44.3,44.3v268.6c0,14.5-29.8,44.3-44.3,44.3H69c-14.5,0-44.3-29.8-44.3-44.3v-58.4H1.8v58.4
			c0,37.1,30.1,67.1,67.2,67.2h268.6c37.1,0,67.1-30.1,67.2-67.2V67.2c0-37.1-30.1-67.1-67.2-67.2H69z M149.7,118.9l62.1,62.1H0
			v40.9h211.9L149.7,284l28.9,28.9l111.5-111.5L178.6,90L149.7,118.9z"/>
	</g>
	<g>
		<defs>
			<path id="SVGID_00000178910129807599573140000016986226467103657138_" d="M-8110.1,1405.9c-37.1,0-67.1,30.1-67.2,67.2v58.4h22.9
				v-58.4c0-14.5,29.8-44.3,44.3-44.3h268.6c14.5,0,44.3,29.8,44.3,44.3v268.6c0,14.5-29.8,44.3-44.3,44.3h-268.6
				c-14.5,0-44.3-29.8-44.3-44.3v-58.4h-22.9v58.4c0,37.1,30.1,67.1,67.2,67.2h268.6c37.1,0,67.1-30.1,67.2-67.2v-268.6
				c0-37.1-30.1-67.1-67.2-67.2H-8110.1z M-8029.4,1524.8l62.1,62.1h-211.8v40.9h211.9l-62.2,62.1l28.9,28.9l111.5-111.5
				l-111.5-111.4L-8029.4,1524.8z"/>
		</defs>
		<clipPath id="SVGID_00000108279914006515319890000006081700600569543849_">
			<use xlink:href="#SVGID_00000178910129807599573140000016986226467103657138_"  style="overflow:visible;"/>
		</clipPath>
		
			<g transform="translate(-8179.077 1405.92)" style="clip-path:url(#SVGID_00000108279914006515319890000006081700600569543849_);">
			<g>
				<g>
					<rect id="SVGID_00000054240138972010172840000014943875624456340123_" x="8179.1" y="-1405.9" width="405" height="403"/>
				</g>
				<g>
					<defs>
						<rect id="SVGID_00000084519463182703981800000017051202980577444486_" x="16358.2" y="-2811.8" width="405" height="403"/>
					</defs>
					<clipPath id="SVGID_00000124130166052272797890000002654341985691478973_">
						<use xlink:href="#SVGID_00000084519463182703981800000017051202980577444486_"  style="overflow:visible;"/>
					</clipPath>
					
						<g transform="translate(8179.052 -1405.947)" style="clip-path:url(#SVGID_00000124130166052272797890000002654341985691478973_);">
						<g>
							<g>
								<rect id="SVGID_00000079460517027960038070000002033402247371055802_" x="-1.7" y="-1.7" width="408.3" height="406.3"/>
							</g>
							<g>
								<defs>
									<rect id="SVGID_00000023972003241641188600000016603634731612057017_" x="-3.4" y="-3.4" width="408.3" height="406.3"/>
								</defs>
								<clipPath id="SVGID_00000020368046101256569140000016022252929068171656_">
									<use xlink:href="#SVGID_00000023972003241641188600000016603634731612057017_"  style="overflow:visible;"/>
								</clipPath>
								
									<g transform="translate(-1.662 -1.662)" style="clip-path:url(#SVGID_00000020368046101256569140000016022252929068171656_);">
									<g>
										<g>
											<rect id="SVGID_00000180339846156349939170000002473176551689477822_" x="1.7" y="1.7" width="405" height="403"/>
										</g>
										<g>
											<defs>
												<rect id="SVGID_00000055667854123896397500000017524103222187302540_" x="3.4" y="3.4" width="405" height="403"/>
											</defs>
											<clipPath id="SVGID_00000065059091791590603650000000126277433460286343_">
												<use xlink:href="#SVGID_00000055667854123896397500000017524103222187302540_"  style="overflow:visible;"/>
											</clipPath>
											
												<g transform="translate(1.662 1.662)" style="clip-path:url(#SVGID_00000065059091791590603650000000126277433460286343_);">
												<path class="st4" d="M-1.6,404.6h408.1V-1.6H-1.6V404.6z"/>
											</g>
										</g>
										<g>
											
												<rect id="SVGID_00000163755866450201172110000004347632811837282478_" x="1.7" y="1.7" class="st5" width="405" height="403"/>
										</g>
									</g>
								</g>
							</g>
							<g>
								
									<rect id="SVGID_00000090980566189961100730000001620618800590280115_" x="-1.7" y="-1.7" class="st5" width="408.3" height="406.3"/>
							</g>
						</g>
					</g>
				</g>
				<g>
					
						<rect id="SVGID_00000034060071383001589080000000434645584404457876_" x="8179.1" y="-1405.9" class="st5" width="405" height="403"/>
				</g>
			</g>
		</g>
	</g>
	<g>
		<path id="SVGID_00000031929618369123674510000002582505555618683282_" class="st5" d="M69,0C31.9,0,1.9,30.1,1.8,67.2v58.4h22.9
			V67.2c0-14.5,29.8-44.3,44.3-44.3h268.6c14.5,0,44.3,29.8,44.3,44.3v268.6c0,14.5-29.8,44.3-44.3,44.3H69
			c-14.5,0-44.3-29.8-44.3-44.3v-58.4H1.8v58.4c0,37.1,30.1,67.1,67.2,67.2h268.6c37.1,0,67.1-30.1,67.2-67.2V67.2
			c0-37.1-30.1-67.1-67.2-67.2H69z M149.7,118.9l62.1,62.1H0v40.9h211.9L149.7,284l28.9,28.9l111.5-111.5L178.6,90L149.7,118.9z"/>
	</g>
</g>
</svg>
