<?xml version="1.0" encoding="utf-8"?>
<!-- Generator: Adobe Illustrator 21.0.2, SVG Export Plug-In . SVG Version: 6.00 Build 0)  -->
<svg version="1.1" id="Layer_1" xmlns="http://www.w3.org/2000/svg" xmlns:xlink="http://www.w3.org/1999/xlink" x="0px" y="0px"
	 viewBox="0 0 100 100" style="enable-background:new 0 0 100 100;" xml:space="preserve">
<style type="text/css">
	.st0{fill:#55499E;}
	.st1{fill-rule:evenodd;clip-rule:evenodd;fill:#55499E;}
</style>
<g>
	<path class="st0" d="M8,40c0.4-0.2,0.5-0.6,0.7-0.9C14.9,29.3,20.9,19.6,27,9.8c0.5-0.7,0.9-1,1.7-1c14.9,0,29.8,0,44.8,0
		c0.8,0,1.2,0.2,1.6,0.9c6.1,9.9,12.3,19.8,18.5,29.6c0.4,0.6,0.4,1.1,0.3,1.8c-1.9,12.5-3.8,25-5.7,37.4c-0.6,4.1-1.3,8.3-1.9,12.4
		c-4.6,0-9.3,0-13.9,0c0.3-3.6,0.6-7.1,0.9-10.7c0.1-0.7,0-1.1-0.9-1.1c-1.7,0.1-3.3,0.1-5,0c-0.8,0-0.9,0.2-1,0.9
		c-0.3,3.6-0.6,7.2-0.9,10.8c-9.6,0-19.2,0-28.9,0c-0.3-3.6-0.6-7.2-0.9-10.8c-0.1-0.7-0.2-1-1-0.9c-1.6,0.1-3.3,0.1-4.9,0
		c-1-0.1-1.1,0.4-1,1.2c0.3,3.5,0.6,7.1,0.9,10.6c-4.6,0-9.3,0-13.9,0c-0.4-2.6-0.8-5.1-1.2-7.7C12.8,70.9,10.9,58.5,8.9,46
		c-0.2-1.5-0.2-3-0.9-4.3C8,41.1,8,40.5,8,40z M51,71.5c7.3,0,14.7,0,22,0c1.2,0,1.6-0.3,1.8-1.5c1.2-9.7,2.4-19.4,3.6-29.1
		c0.1-0.4,0-0.8-0.1-1.2c-2.5-4.9-4.9-9.7-7.3-14.6c-0.2-0.4-0.5-0.6-0.9-0.6c-3.7,0-7.4,0-11.1,0c-0.7,0-0.8,0.3-0.7,0.9
		c0.2,1.4,0.4,2.8,0.6,4.2c0.1,0.5,0.1,0.8-0.6,0.8c-4.8,0-9.5,0-14.3,0c-0.5,0-0.7-0.1-0.6-0.7c0.2-1.4,0.4-2.7,0.6-4.1
		c0.2-0.8,0-1.1-0.9-1.1c-3.5,0.1-7,0-10.5,0c-0.8,0-1.1,0.2-1.5,0.9c-2.3,4.7-4.6,9.3-7,14c-0.3,0.6-0.4,1.1-0.3,1.7
		c0.4,2.9,0.8,5.9,1.1,8.8c0.8,6.8,1.7,13.6,2.5,20.4c0.1,0.9,0.4,1.2,1.3,1.2C36.2,71.5,43.6,71.5,51,71.5z"/>
	<path class="st0" d="M37.1,54.4c0-2,0.2-4,0.9-5.9c0.2-0.5,0.4-1.3,1.1-1.2c0.7,0,0.9,0.7,1.1,1.2c1.2,4,1.2,7.9,0,11.9
		c-0.2,0.6-0.4,1.3-1.1,1.3c-0.7,0-0.9-0.7-1.1-1.3C37.3,58.5,37.2,56.5,37.1,54.4z"/>
	<path class="st0" d="M65.8,54.8c0,1.2-0.2,3.2-0.9,5.1c-0.2,0.5-0.4,1.2-1.1,1.2c-0.7,0-0.9-0.7-1.1-1.2c-1.2-4-1.2-7.9-0.1-11.9
		c0.2-0.6,0.4-1.3,1.1-1.3c0.8,0,1,0.8,1.2,1.4C65.6,49.9,65.8,52,65.8,54.8z"/>
</g>
</svg>
