<?xml version="1.0" encoding="utf-8"?>
<!-- Generator: Adobe Illustrator 21.0.2, SVG Export Plug-In . SVG Version: 6.00 Build 0)  -->
<svg version="1.1" id="Layer_1" xmlns="http://www.w3.org/2000/svg" xmlns:xlink="http://www.w3.org/1999/xlink" x="0px" y="0px"
	 viewBox="0 0 100 100" style="enable-background:new 0 0 100 100;" xml:space="preserve">
<style type="text/css">
	.st0{fill:#55499E;}
	.st1{fill-rule:evenodd;clip-rule:evenodd;fill:#55499E;}
</style>
<g>
	<path class="st0" d="M50.3,91.6c-0.9,0-1.8,0-2.7,0c-0.3-0.1-0.5-0.1-0.8-0.2c-1.8-0.2-3.6-0.3-5.4-0.6c-1.4-0.2-2.7-0.6-4.2-0.9
		c0.2-0.3,0.3-0.5,0.4-0.7c1-1.7,2.1-3.4,3.1-5.1c7.7-12.5,15.4-25,23.1-37.5c0.3-0.5,0.5-1,0.6-1.5c0.3-1-0.2-1.9-1.2-2.2
		c-0.6-0.2-1.2-0.2-1.8-0.2c-2,0-3.9,0-5.9,0c-0.5,0-0.7-0.1-0.6-0.7c0.8-3.3,1.6-6.6,2.5-9.9c1.7-6.7,3.3-13.4,5-20.1
		c0.1-0.4,0.2-0.8,0.4-1.2c0.3,0.1,0.5,0.2,0.8,0.2c6.1,2.3,11.5,5.9,15.9,10.7c6.7,7.3,10.4,16,11,25.9c0,0.3,0.1,0.6,0.2,0.9
		c0,0.9,0,1.8,0,2.7c-0.1,0.3-0.2,0.7-0.2,1c-0.1,2.7-0.6,5.4-1.3,8.1c-2.2,8.1-6.4,15-12.7,20.6c-7.2,6.3-15.6,9.8-25.2,10.4
		C51,91.5,50.6,91.6,50.3,91.6z"/>
	<path class="st0" d="M35.1,89.2C20.5,83.4,11,73.1,8.2,57.7c-3.1-17,2.6-31.1,16.5-41.4c10.8-8,22.9-9.7,36-6.3
		c-0.8,1.4-1.6,2.6-2.3,3.8C50.3,27,42.2,40.2,34.1,53.3c-0.2,0.4-0.4,0.9-0.6,1.3c-0.4,1.4,0.4,2.5,1.8,2.5
		c2.2,0.1,4.5,0.1,6.7,0.1c1.1,0,1.1,0,0.8,1.1c-2.5,10-5,20-7.5,30C35.3,88.6,35.2,88.8,35.1,89.2z"/>
</g>
</svg>
