<svg width="700" height="700" viewBox="0 0 700 700" fill="none" xmlns="http://www.w3.org/2000/svg">
<g clip-path="url(#clip0_1284_1700)">
<path fill-rule="evenodd" clip-rule="evenodd" d="M644.759 304.442L565.988 349.83L644.759 394.836C649.47 397.558 653.598 401.182 656.908 405.5C660.218 409.819 662.646 414.746 664.051 420.002C665.457 425.259 665.813 430.74 665.101 436.134C664.388 441.528 662.62 446.729 659.897 451.439C657.174 456.15 653.55 460.278 649.232 463.588C644.914 466.898 639.986 469.325 634.73 470.731C629.474 472.137 623.992 472.493 618.598 471.78C613.205 471.068 608.004 469.299 603.293 466.577L462.155 385.27C455.686 381.528 450.348 376.109 446.703 369.585C443.058 363.061 441.242 355.674 441.446 348.204C441.556 344.968 442.054 341.757 442.928 338.639C445.817 328.183 452.684 319.273 462.059 313.816L603.198 232.797C607.929 230.063 613.153 228.289 618.571 227.576C623.988 226.863 629.493 227.225 634.771 228.642C640.048 230.06 644.995 232.503 649.327 235.834C653.659 239.165 657.291 243.318 660.016 248.054C662.753 252.749 664.53 257.941 665.244 263.328C665.958 268.716 665.595 274.191 664.176 279.437C662.756 284.683 660.309 289.595 656.976 293.888C653.643 298.18 649.49 301.768 644.759 304.442ZM570.197 524.448L429.106 443.285C422.794 439.662 415.643 437.754 408.365 437.751C401.087 437.748 393.935 439.65 387.62 443.267C381.304 446.884 376.045 452.091 372.366 458.37C368.686 464.649 366.713 471.782 366.644 479.06V641.194C367.009 651.967 371.546 662.176 379.296 669.667C387.046 677.159 397.403 681.346 408.182 681.346C418.961 681.346 429.318 677.159 437.068 669.667C444.818 662.176 449.354 651.967 449.72 641.194V550.322L528.683 595.71C533.393 598.436 538.595 600.207 543.99 600.923C549.385 601.639 554.868 601.285 560.126 599.882C565.385 598.478 570.315 596.053 574.636 592.744C578.957 589.435 582.584 585.307 585.31 580.597C588.036 575.886 589.807 570.685 590.523 565.29C591.239 559.895 590.885 554.411 589.481 549.153C588.078 543.895 585.653 538.964 582.344 534.643C579.035 530.322 574.907 526.695 570.197 523.969V524.448ZM407.584 365.852L348.756 423.963C346.744 425.834 344.136 426.935 341.391 427.071H324.125C321.387 426.907 318.788 425.81 316.76 423.963L258.267 365.661C256.437 363.664 255.356 361.096 255.206 358.391V341.174C255.364 338.457 256.444 335.876 258.267 333.856L316.76 275.555C318.792 273.721 321.392 272.641 324.125 272.494H341.391C344.129 272.621 346.735 273.704 348.756 275.555L407.393 333.856C409.202 335.88 410.265 338.462 410.406 341.174V358.391C410.273 361.09 409.208 363.66 407.393 365.661L407.584 365.852ZM360.713 349.687C360.487 346.898 359.324 344.269 357.413 342.226L340.434 325.438C338.4 323.608 335.801 322.528 333.069 322.377H332.447C329.727 322.52 327.141 323.602 325.13 325.438L308.151 342.226C306.328 344.279 305.265 346.896 305.138 349.639V350.261C305.258 352.962 306.325 355.536 308.151 357.53L325.225 374.27C327.241 376.1 329.825 377.181 332.543 377.331H333.165C335.897 377.18 338.496 376.1 340.53 374.27L357.509 357.387C359.343 355.388 360.439 352.824 360.618 350.117L360.713 349.687ZM95.3197 175.213L236.458 256.137C242.777 259.758 249.934 261.663 257.218 261.663C264.501 261.663 271.658 259.757 277.977 256.136C284.296 252.515 289.559 247.303 293.241 241.019C296.923 234.735 298.898 227.597 298.968 220.314V58.323C298.603 47.5504 294.066 37.3412 286.316 29.8498C278.566 22.3584 268.209 18.1708 257.43 18.1708C246.651 18.1708 236.294 22.3584 228.544 29.8498C220.794 37.3412 216.258 47.5504 215.892 58.323V149.195L136.834 103.759C132.123 101.033 126.922 99.2617 121.527 98.546C116.132 97.8303 110.648 98.1843 105.39 99.5877C100.132 100.991 95.2011 103.416 90.8801 106.725C86.5591 110.034 82.9321 114.162 80.2063 118.872C77.4804 123.583 75.7091 128.784 74.9934 134.179C74.2777 139.575 74.6317 145.058 76.0351 150.316C77.4385 155.575 79.8638 160.505 83.1727 164.826C86.4816 169.147 90.6091 172.774 95.3197 175.5V175.213ZM405.049 261.685C413.384 262.344 421.722 260.459 428.963 256.28L570.053 174.974C574.764 172.248 578.891 168.621 582.2 164.3C585.509 159.979 587.935 155.048 589.338 149.79C590.741 144.532 591.095 139.048 590.38 133.653C589.664 128.258 587.893 123.057 585.167 118.346C582.441 113.636 578.814 109.508 574.493 106.199C570.172 102.89 565.241 100.465 559.983 99.0616C549.363 96.2273 538.053 97.7277 528.539 103.233L449.576 149.051V58.1796C449.211 47.4069 444.674 37.1977 436.924 29.7063C429.174 22.2149 418.817 18.0273 408.038 18.0273C397.26 18.0273 386.902 22.2149 379.152 29.7063C371.402 37.1977 366.866 47.4069 366.5 58.1796V220.314C366.487 230.811 370.46 240.921 377.616 248.601C384.772 256.281 394.577 260.957 405.049 261.685ZM260.563 437.88C252.227 437.203 243.884 439.089 236.649 443.285L95.3197 524.256C85.8063 529.761 78.8694 538.82 76.0351 549.44C73.2007 560.06 74.7012 571.37 80.2063 580.884C85.7114 590.397 94.7702 597.334 105.39 600.168C116.01 603.003 127.32 601.502 136.834 595.997L215.892 550.609V641.481C216.258 652.254 220.794 662.463 228.544 669.954C236.294 677.446 246.651 681.633 257.43 681.633C268.209 681.633 278.566 677.446 286.316 669.954C294.066 662.463 298.603 652.254 298.968 641.481V479.06C298.947 468.615 294.976 458.566 287.852 450.928C280.729 443.29 270.98 438.629 260.563 437.88ZM222.301 361.978C225.026 353.019 224.615 343.399 221.137 334.704C217.659 326.01 211.322 318.76 203.17 314.151L62.1754 232.893C52.6532 227.438 41.3604 225.972 30.7608 228.812C20.1611 231.652 11.1149 238.569 5.59573 248.054C2.86334 252.748 1.08878 257.937 0.374699 263.321C-0.33938 268.705 0.0211975 274.177 1.43557 279.421C2.84995 284.665 5.29005 289.576 8.61473 293.871C11.9394 298.166 16.0827 301.759 20.8048 304.442L99.5763 349.83L20.8048 394.836C16.0942 397.552 11.9648 401.17 8.65235 405.482C5.33988 409.794 2.90922 414.717 1.49915 419.969C0.0890742 425.22 -0.272794 430.698 0.434202 436.09C1.1412 441.481 2.90321 446.681 5.61965 451.391C8.33608 456.102 11.9537 460.231 16.266 463.544C20.5784 466.856 25.5009 469.287 30.7526 470.697C36.0043 472.107 41.4823 472.469 46.8738 471.762C52.2653 471.055 57.4648 469.293 62.1754 466.577L203.17 385.27C212.25 380.201 219.069 371.878 222.253 361.978H222.301ZM667.812 93.0935H661.451V100.889H667.764C670.682 100.889 672.547 99.5501 672.547 97.0631C672.547 94.5761 670.825 93.0935 667.764 93.0935H667.812ZM653.751 85.9194H668.099C675.847 85.9194 681.013 90.176 681.013 96.7762C681.037 98.6133 680.572 100.424 679.664 102.021C678.756 103.619 677.438 104.945 675.847 105.863L681.443 113.898V115.524H673.36L667.764 107.872H661.451V115.524H653.703L653.751 85.9194ZM693.448 101.32C693.68 97.6991 693.158 94.0696 691.915 90.661C690.672 87.2524 688.735 84.1391 686.227 81.518C683.718 78.8969 680.692 76.8253 677.341 75.4342C673.991 74.0431 670.387 73.3628 666.76 73.4365C650.929 73.4365 640.407 84.8672 640.407 101.32C640.407 117.007 650.929 129.155 666.76 129.155C670.389 129.242 673.997 128.573 677.353 127.191C680.71 125.808 683.741 123.742 686.256 121.124C688.771 118.506 690.713 115.393 691.959 111.983C693.206 108.574 693.729 104.942 693.495 101.32H693.448ZM700.048 101.32C700.048 119.925 687.613 135.468 666.569 135.468C645.525 135.468 633.616 119.781 633.616 101.32C633.616 82.8584 645.907 67.1711 666.569 67.1711C687.23 67.1711 700 82.6671 700 101.32H700.048Z" fill="#29B5E8"/>
</g>
<defs>
<clipPath id="clip0_1284_1700">
<rect width="700" height="665.564" fill="white" transform="translate(0 17)"/>
</clipPath>
</defs>
</svg>
