<?xml version="1.0" encoding="utf-8"?>
<!-- Generator: Adobe Illustrator 21.0.0, SVG Export Plug-In . SVG Version: 6.00 Build 0)  -->
<svg version="1.1" id="Layer_1" xmlns="http://www.w3.org/2000/svg" xmlns:xlink="http://www.w3.org/1999/xlink" x="0px" y="0px"
	 viewBox="0 0 100 100" style="enable-background:new 0 0 100 100;" xml:space="preserve">
<style type="text/css">
	.st0{fill:#55499E;}
	.st1{fill-rule:evenodd;clip-rule:evenodd;fill:#55499E;}
</style>
<g>
	<path class="st0" d="M82.4,44.1c0,0-3.2-5.1-6.4-7.6c-3.2-2.5-7.8-3.2-7.8-3.2H33.2c0,0-0.3,0-0.8,0c-2,0-7.1,0.2-9.7,2.2
		c-3.2,2.5-6.2,7.8-6.2,7.8s6.3,4.4,32.4,4.4C75.1,47.7,82.4,44.1,82.4,44.1z"/>
	<path class="st0" d="M49.5,64.9c-20.1,0-33.2-1.3-37.5-3.6c0.1,0.4,0.3,0.9,0.7,1.4c2.4,3.4,10.3,7.4,34.9,7.4h0c0.6,0,1.2,0,1.8,0
		c25.9-0.2,33.9-4.3,36-7.7c0.3-0.5,0.5-0.9,0.6-1.3C82.1,63.6,69.5,64.9,49.5,64.9z"/>
	<path class="st0" d="M73.8,58.6h-2.5c-0.5,0-1-0.4-1-1c0-0.5,0.4-1,1-1h2.5c0.5,0,1,0.4,1,1C74.8,58.1,74.3,58.6,73.8,58.6z
		 M86,59.1l-3-14.3l-0.2,0.1c-0.3,0.2-7.8,3.7-33.8,3.7c-26.1,0-32.7-4.4-33-4.6L15.8,44l-3.9,15.5c0,0.1-0.1,0.3-0.1,0.6
		c1.4,1.2,7.8,3.8,37.6,3.8c29.4,0,35.5-2.8,36.7-4.1C86.1,59.5,86,59.2,86,59.1z"/>
</g>
</svg>
