<?xml version="1.0" encoding="utf-8"?>
<!-- Generator: Adobe Illustrator 21.0.0, SVG Export Plug-In . SVG Version: 6.00 Build 0)  -->
<svg version="1.1" id="Layer_1" xmlns="http://www.w3.org/2000/svg" xmlns:xlink="http://www.w3.org/1999/xlink" x="0px" y="0px"
	 viewBox="0 0 100 100" style="enable-background:new 0 0 100 100;" xml:space="preserve">
<style type="text/css">
	.st0{fill:#55499E;}
	.st1{fill-rule:evenodd;clip-rule:evenodd;fill:#55499E;}
</style>
<g>
	<path class="st0" d="M17.3,77.9c0.4-1.5,1.5-2.3,2.7-3c1.6-0.9,3.3-1.2,5.1-1.4c1.4-0.1,2.8,0,4.1,0.1c0.1,0,0.2,0,0.3,0.1
		c0.9,0.5,1.8,1,2.7,1.6c0,0,0.1,0,0.1,0.1c-0.3,0-0.7-0.1-1-0.1c-1.8-0.1-3.6,0.1-5.2,1c-0.2,0.1-0.4,0.3-0.6,0.5
		c-0.7,0.6-0.7,1.3-0.1,2c0.6,0.6,1.3,1,2.1,1.3c2.1,0.9,4.3,1.3,6.5,1.6c5.3,0.8,10.7,1.1,16.1,1c4.2-0.1,8.3-0.4,12.4-1.1
		c2.6-0.4,5.3-1,7.7-2.1c1.1-0.5,2.1-1.1,2.9-2c0.8-1,1.1-2.1,0.6-3.3c0-0.1,0-0.1-0.1-0.2c1,0.5,1.9,1,2.6,1.8
		c0.8,1.1,0.6,2.2,0.1,3.3c-0.6,1.2-1.7,2-2.9,2.7c-2.1,1.3-4.5,2-6.9,2.6c-3.2,0.8-6.4,1.3-9.7,1.7c-4.1,0.4-8.3,0.6-12.4,0.6
		c-3.4,0-6.7-0.2-10.1-0.6c-2.6-0.3-5.3-0.7-7.8-1.4c-2-0.5-4-1.1-5.8-2.2c-1.1-0.6-2.2-1.4-2.8-2.6c-0.2-0.4-0.3-0.9-0.5-1.3
		C17.3,78.4,17.3,78.1,17.3,77.9z"/>
	<path class="st0" d="M49.3,52c-0.9-0.7-1.8-1.4-2.7-2.1c-2.5-2.1-4.9-4.3-6.8-6.9c-1.2-1.6-2.2-3.4-2.7-5.4c-0.5-2.2-0.2-4.2,1-6.1
		c1-1.5,2.1-2.9,3.5-4c2.3-2,4.7-3.9,7-5.9c1.8-1.5,3.5-3,4.9-4.8c1-1.2,1.8-2.5,2.2-4c0.5-1.6,0.5-3.1-0.1-4.7
		c0-0.1-0.1-0.2-0.1-0.3c0.1,0,0.1,0,0.1,0c1.4,2.2,2.4,4.6,2.3,7.3c0,1.9-0.6,3.7-1.4,5.3c-1.2,2.3-2.9,4.3-4.6,6.2
		c-1.9,2-3.9,4-5.8,6.1c-1.1,1.2-2,2.5-2.6,4c-0.5,1.3-0.5,2.6,0.1,3.8c1.6,3.8,3.4,7.5,5.6,11C49.3,51.7,49.3,51.8,49.3,52
		C49.4,51.9,49.3,52,49.3,52z"/>
	<path class="st0" d="M40.1,50.4c-1.5,0.5-3.2,1-4.7,1.6c-0.7,0.3-1.4,0.7-2.1,1.1c0,0-0.1,0.1-0.1,0.1c-0.6,0.5-0.5,1,0.3,1.2
		c0.9,0.2,1.9,0.4,2.9,0.5c3.6,0.3,7.2,0.3,10.8,0.2c2.4-0.1,4.8-0.1,7.1-0.3c2.5-0.2,5.1-0.4,7.6-0.7c1.6-0.2,3.2-0.5,4.7-0.7
		c0,0,0.1,0,0.2,0c-0.5,0.4-0.9,0.8-1.4,1.1c-1.2,0.9-2.3,1.7-3.5,2.6c-0.3,0.2-0.6,0.3-0.9,0.4c-3.6,0.7-7.3,1.2-10.9,1.5
		c-3.5,0.3-7,0.5-10.5,0.4c-3.2,0-6.3-0.2-9.4-0.7c-1.7-0.3-3.4-0.7-5-1.5c-0.6-0.3-1.1-0.7-1.4-1.2c-0.5-0.8-0.3-1.9,0.6-2.6
		c1-0.9,2.2-1.3,3.4-1.6c2.7-0.7,5.4-1,8.2-1.2c1.3-0.1,2.6-0.1,3.9-0.1C39.9,50.4,40,50.4,40.1,50.4z"/>
	<path class="st0" d="M51.9,53.8c0.5-0.6,1-1.1,1.5-1.6c0.6-0.8,1.1-1.6,1.4-2.5c0.4-1.4,0.3-2.7-0.4-4c-0.6-1.1-1.3-2.1-2-3.1
		c-0.7-1-1.4-2.1-1.8-3.2c-0.7-1.7-0.7-3.4-0.3-5.2c0.6-2.6,2-4.6,4-6.3c2.1-1.7,4.4-2.8,7-3.7c2.6-0.9,5.3-1.4,8-1.7
		c0,0,0.1,0,0.1,0c-0.1,0.1-0.2,0.2-0.3,0.2c-2.9,1.8-5.6,3.7-8.2,5.9c-1.3,1.1-2.5,2.3-3.6,3.6c-1.1,1.4-1.3,2.9-0.6,4.5
		c0.4,1,0.9,1.9,1.3,2.8c0.5,1.1,1.2,2.2,1.6,3.3c1,2.4,0.6,4.6-0.9,6.6c-1.3,1.8-3,2.9-5,3.6C53.1,53.5,52.6,53.6,51.9,53.8z"/>
	<path class="st0" d="M36.3,59.9c-0.2,0.2-0.4,0.4-0.6,0.6c-0.5,0.6-0.4,1.3,0.2,1.8c0.6,0.5,1.4,0.7,2.2,0.9
		c1.9,0.5,3.9,0.6,5.9,0.7c2.9,0.1,5.8-0.1,8.6-0.5c2-0.3,4-0.7,5.9-1.3c0.2-0.1,0.4-0.1,0.6,0.1c1.5,0.9,3,1.9,4.4,2.8
		c0.1,0.1,0.2,0.1,0.3,0.2c-0.5,0.2-0.9,0.4-1.4,0.5c-3.2,1.1-6.4,1.8-9.8,2.3c-3,0.4-6.1,0.5-9.2,0.4c-3.2-0.1-6.3-0.5-9.4-1.4
		c-1.2-0.3-2.3-0.8-3.3-1.5c-0.2-0.1-0.4-0.3-0.5-0.5c-0.6-0.7-0.6-1.4,0-2.3c0.6-0.9,1.5-1.4,2.4-1.9c0.9-0.5,1.9-0.8,3-0.9
		C35.8,60,36,60,36.3,59.9z"/>
	<path class="st0" d="M38.6,68.9c-0.1,0.2-0.3,0.4-0.4,0.6c-0.2,0.4,0,0.8,0.4,1.1c0.6,0.4,1.2,0.6,1.9,0.7c2,0.4,4,0.4,5.9,0.3
		c2.1-0.1,4.3-0.3,6.3-0.8c1.4-0.3,2.7-0.8,4.1-1.1c0.1,0,0.3-0.1,0.4,0c1.7,1.1,3.5,2.2,5.2,3.4c-0.3,0.2-0.6,0.4-1,0.5
		c-2.2,1.1-4.5,1.8-6.9,2.2c-3.8,0.7-7.6,1-11.5,0.8c-2.3-0.1-4.5-0.4-6.7-1c-0.9-0.3-1.8-0.6-2.6-1.2c-1.1-0.9-1.3-2-0.5-3.2
		c0.8-1.1,1.8-1.8,3.1-2.1c0.7-0.2,1.4-0.3,2.2-0.4C38.6,68.8,38.6,68.8,38.6,68.9z"/>
	<path class="st0" d="M28.5,88c0.5,0.1,0.9,0.2,1.4,0.3c2.8,0.5,5.6,1,8.4,1.4c4.7,0.7,9.5,0.9,14.3,0.8c6.1-0.1,12.2-0.9,18.1-2.6
		c3.2-1,6.4-2.2,9.2-4.1c1-0.6,1.9-1.4,2.8-2.2c0.1-0.1,0.2-0.1,0.3-0.3c0,0.9-0.2,1.7-0.6,2.5c-0.6,1.3-1.6,2.2-2.7,3
		c-2.3,1.7-4.8,2.8-7.5,3.6c-2.9,0.9-5.9,1.5-9,1.9c-3.2,0.4-6.5,0.6-9.7,0.5c-2.9,0-5.7-0.3-8.6-0.6c-3.4-0.4-6.7-1-9.9-2
		c-2.1-0.6-4.2-1.4-6.3-2.1C28.6,88.1,28.5,88.1,28.5,88C28.5,88,28.5,88,28.5,88z"/>
	<path class="st0" d="M66.3,68.6c0.3-0.2,0.6-0.5,0.9-0.7c2.1-1.6,4-3.4,5.5-5.5c0.9-1.3,1.6-2.7,2-4.3c0.7-2.9-1-4.7-3.1-5.5
		c-1.2-0.4-2.1-0.5-3.7-0.3c0.3-0.2,0.6-0.4,0.8-0.6c1.5-0.9,3.2-1.4,5-1.4c2.9,0.1,5.3,1.9,5.7,5c0.6,3.8-0.7,6.9-3.6,9.3
		c-2.1,1.7-4.6,2.7-7.2,3.4c-0.7,0.2-1.3,0.3-2,0.4C66.6,68.7,66.5,68.7,66.3,68.6C66.3,68.7,66.3,68.7,66.3,68.6z"/>
</g>
</svg>
