<svg width="16" height="11" viewBox="0 0 16 11" fill="none" xmlns="http://www.w3.org/2000/svg">
<path d="M5.4423 10.1477L6.14258 9.44744C6.31407 9.27595 6.3105 9.00084 6.13543 8.83649L3.25216 6.06398L15.5713 6.06398C15.8071 6.06398 16 5.87104 16 5.63524V4.63485C16 4.39904 15.8071 4.20611 15.5713 4.20611L3.25216 4.20611L6.13543 1.43717C6.30693 1.26925 6.3105 0.994139 6.14258 0.826216L5.4423 0.125942C5.27438 -0.0419807 5.00285 -0.0419807 4.83492 0.125942L0.125942 4.83493C-0.0419807 5.00285 -0.0419807 5.27438 0.125942 5.44231L4.83492 10.1513C5.00285 10.3156 5.27438 10.3156 5.4423 10.1477Z" fill="black"/>
</svg>
