<?xml version="1.0" encoding="utf-8"?>
<!-- Generator: Adobe Illustrator 21.0.2, SVG Export Plug-In . SVG Version: 6.00 Build 0)  -->
<svg version="1.1" id="Layer_1" xmlns="http://www.w3.org/2000/svg" xmlns:xlink="http://www.w3.org/1999/xlink" x="0px" y="0px"
	 viewBox="0 0 100 100" style="enable-background:new 0 0 100 100;" xml:space="preserve">
<style type="text/css">
	.st0{fill:#55499E;}
	.st1{fill-rule:evenodd;clip-rule:evenodd;fill:#55499E;}
	.st2{fill:#55499E;stroke:#55499E;stroke-width:2;stroke-miterlimit:10;}
</style>
<path class="st2" d="M59.3,82.8v-5.2h-3.9v-3c9.5-0.9,27.4-11.4,27.4-32.1c0-16.6-13-32.5-32.6-32.5c-19.5,0-32.5,16.5-32.5,32.5
	c0,21,17.9,31.2,27.4,32.1v3h-3.9v5.2H9.8v2.6h31.2v5.2h18.2v-5.2h31.3v-2.6H59.3z M59.8,70.9c2.4-2.2,4.4-5.2,6.1-8.8h7.1
	C69.4,66,64.9,69.1,59.8,70.9z M74.9,59.4h-8c1.7-4.6,2.7-9.9,2.8-15.6h10.4C79.9,49.6,78,54.9,74.9,59.4z M80.1,41.2H69.7
	c-0.2-5.7-1.2-11-2.8-15.6h8C78,30,79.9,35.4,80.1,41.2z M72.9,22.9h-7.1c-1.6-3.6-3.7-6.6-6.1-8.8C64.9,15.8,69.4,18.9,72.9,22.9z
	 M51.5,12.6c4.6,0.6,8.7,4.5,11.5,10.3H51.5V12.6z M51.5,25.6h12.7c1.7,4.5,2.8,9.8,3,15.6H51.5V25.6z M51.5,43.8h15.6
	c-0.1,5.8-1.2,11.1-3,15.6H51.5V43.8z M51.5,62H63c-2.8,5.8-6.9,9.7-11.5,10.3V62z M52.8,74.9v2.7h-5.2v-2.7
	c0.8,0.1,1.7,0.1,2.6,0.1C51.1,75,52,75,52.8,74.9z M48.9,43.8v15.6H36.3c-1.8-4.5-2.8-9.8-3-15.6H48.9z M33.3,41.2
	c0.2-5.8,1.2-11.1,3-15.6h12.6v15.6H33.3z M48.9,12.6v10.3H37.4C40.2,17.1,44.3,13.2,48.9,12.6z M40.7,14.1
	c-2.4,2.2-4.4,5.2-6.1,8.8h-7C31,18.9,35.5,15.8,40.7,14.1z M25.5,25.6h8c-1.7,4.6-2.7,9.9-2.8,15.6H20.3
	C20.5,35.4,22.4,30,25.5,25.6z M25.5,59.4c-3.1-4.5-5-9.8-5.2-15.6h10.4c0.1,5.7,1.2,11,2.8,15.6H25.5z M27.5,62h7.1
	c1.6,3.6,3.7,6.6,6.1,8.9C35.5,69.1,31,66,27.5,62z M37.4,62h11.5v10.3C44.3,71.7,40.2,67.8,37.4,62z"/>
</svg>
