<svg xmlns="http://www.w3.org/2000/svg" viewBox="0 0 402.464 300.747"><defs><style>.a{fill:#808080;fill-rule:evenodd;}</style></defs><g transform="translate(-32 -66)"><path class="" d="M233.98,103.4a52.039,52.039,0,0,1,52.365,52.365c0,29.923-23.938,53.861-52.365,53.861a53.637,53.637,0,0,1-53.861-53.861C180.119,125.846,204.057,103.4,233.98,103.4ZM118.777,66c28.427,0,52.365,23.938,52.365,53.861,0,26.931-23.938,53.861-52.365,53.861a53.861,53.861,0,0,1,0-107.723ZM109.8,178.211h16.458c23.938,0,46.381,10.473,59.846,28.427-31.419,14.961-53.861,47.877-53.861,85.281v37.4c-32.915,2.992-68.823-1.5-100.242-23.938V254.515C32,212.623,66.411,178.211,109.8,178.211ZM349.184,66c28.427,0,52.365,23.938,52.365,53.861s-23.938,53.861-52.365,53.861c-29.923,0-53.861-26.931-53.861-53.861A53.637,53.637,0,0,1,349.184,66Zm-8.977,112.211h16.458c43.388,0,77.8,34.411,77.8,76.3v50.869c-16.458,13.465-56.854,26.931-98.746,25.435v-38.9c0-37.4-22.442-70.319-55.358-85.281C295.322,188.684,317.764,178.211,340.207,178.211ZM225,214.119h16.458a77.267,77.267,0,0,1,77.8,77.8v49.373c-25.435,20.946-109.219,44.884-172.057,0V291.918C147.2,248.53,183.111,214.119,225,214.119Z"/></g></svg>