<?xml version="1.0" encoding="utf-8"?>
<!-- Generator: Adobe Illustrator 21.0.0, SVG Export Plug-In . SVG Version: 6.00 Build 0)  -->
<svg version="1.1" id="Layer_1" xmlns="http://www.w3.org/2000/svg" xmlns:xlink="http://www.w3.org/1999/xlink" x="0px" y="0px"
	 viewBox="0 0 100 100" style="enable-background:new 0 0 100 100;" xml:space="preserve">
<style type="text/css">
	.st0{fill:#55499E;}
	.st1{fill-rule:evenodd;clip-rule:evenodd;fill:#55499E;}
</style>
<path id="path2987" class="st0" d="M48.7,85.6c-2.2-0.1-3.8-0.2-5.3-0.5c-4.2-0.7-7.2-2-9.2-3.9c-1.2-1.2-1.9-2.6-2.2-4
	C32,76.8,32,76.1,32,67.7c0-9.1,0-9.6,0.1-10.4c0.6-4.3,3.7-7.1,8.6-7.8c0.4-0.1,1.2-0.1,10.5-0.1c10.8,0,10.3,0,11.4-0.2
	c2.7-0.5,4.9-1.8,6.3-4c0.9-1.3,1.4-2.9,1.7-4.8c0.1-0.5,0.1-0.6,0.1-5.6l0-5.1h3.5c3.8,0,3.8,0,4.7,0.2c4.5,1.1,7.5,5.6,8.5,12.5
	l0.1,0.8v4.9c0,4.7,0,4.9-0.1,5.4c-0.7,4.9-2.5,8.5-5.3,10.6c-1.2,0.9-2.6,1.5-4.1,1.8c-0.9,0.2-0.1,0.2-14.5,0.2l-13.4,0v1.3v1.3
	h9.1h9.1l0,4.6c0,3.2,0,4.7,0,4.8c-0.3,2.4-2.3,4.4-5.5,5.6c-2.5,1-5.3,1.5-9.3,1.8C52.8,85.6,49.3,85.7,48.7,85.6L48.7,85.6z
	 M61.1,79.8c1-0.2,1.9-0.9,2.3-1.8c0.2-0.5,0.3-0.8,0.3-1.4c0-0.4,0-0.6-0.1-0.8c-0.3-1.2-1.2-2.1-2.4-2.4c-0.4-0.1-1.2-0.1-1.6,0
	c-1,0.3-1.8,0.9-2.2,1.7c-0.2,0.4-0.3,0.8-0.3,1.3c0,0.4,0,0.6,0.1,0.9c0.3,1.2,1.3,2.2,2.5,2.5C60.1,79.9,60.8,79.9,61.1,79.8
	L61.1,79.8z M22.2,66.7c-0.5-0.1-1.3-0.3-1.8-0.5c-2.3-0.9-4.2-2.8-5.5-5.4c-1.1-2.2-1.9-5.2-2.2-8.6c-0.2-2.3-0.2-5.2,0-7.3
	c0.4-4.7,1.7-8.3,3.7-10.8c1.8-2.1,4-3.4,6.7-3.7c0.2,0,4.1,0,13.7,0l13.4,0l0-1.3l0-1.3h-9.1H32l0-4.3c0-5,0-4.9,0.1-5.3
	c0.3-1.6,1.4-3,3.1-4.2c3-2,8-3.1,14.7-3.1c6.3,0,11,1,14.3,2.9c2.3,1.4,3.8,3.3,4.2,5.6c0.1,0.3,0.1,1.3,0.1,9.5c0,5.7,0,9.3,0,9.6
	c-0.1,0.9-0.3,1.9-0.5,2.6c-0.2,0.5-0.6,1.4-0.9,1.9c-1.4,2.1-3.7,3.5-6.7,4c-1.1,0.2-0.4,0.2-11.3,0.2l-10.1,0l-0.6,0.1
	c-2.5,0.4-4.3,1.2-5.8,2.8c-1.5,1.5-2.3,3.5-2.8,6.1c-0.1,0.5-0.1,0.6-0.1,5.6l0,5.1l-3.5,0C23.2,66.7,22.5,66.7,22.2,66.7
	L22.2,66.7z M40.6,23c1-0.2,1.8-0.9,2.2-1.8c0.3-0.6,0.4-1.5,0.2-2.2c-0.5-1.8-2.2-2.8-4-2.4c-1.1,0.3-2,1.1-2.3,2.3
	c-0.1,0.3-0.1,0.4-0.1,0.9c0,0.5,0,0.6,0.1,0.9c0.4,1.3,1.4,2.1,2.7,2.4C39.6,23.1,40.3,23.1,40.6,23L40.6,23z"/>
</svg>
