<svg id="Layer_1" xmlns="http://www.w3.org/2000/svg" viewBox="0 0 534.6 601.5">
  <style>
    .svg-standard-icon{fill:#808080}
  </style>
  <path class="svg-standard-icon" d="M0 291.7v-152c0-3.3.3-6.5 1.7-9.6 2-4.2 5.1-7.1 9.3-9.1 10.3-4.9 20.5-9.8 30.8-14.8C57.2 98.8 72.6 91.4 88.1 84c11.3-5.4 22.6-10.9 33.9-16.3 14.6-7 29.3-14 43.9-21 11.5-5.5 22.9-11 34.4-16.5C215 23.1 229.8 16 244.5 9c4.6-2.2 9.3-4.5 13.9-6.7 5.8-2.8 11.6-2.9 17.4-.1 23.2 11.2 46.4 22.3 69.5 33.4 12.4 6 24.8 12 37.3 18 14.9 7.2 29.8 14.3 44.7 21.5 11.4 5.5 22.8 11 34.3 16.4l44.4 21.3c5.8 2.8 11.5 5.6 17.3 8.3 6 2.8 9.6 7.5 10.9 14 .3 1.6.2 3.3.2 5v154c0 49.7.1 99.5.2 149.2 0 8.8-3.7 15.1-11.5 19.4-28.1 15.4-56.2 31.1-84.2 46.7-17.1 9.5-34.3 19-51.4 28.5-22.7 12.6-45.3 25.2-68 37.7-13.9 7.7-27.9 15.3-41.7 23.2-7.6 4.3-14.7 3.7-22-.5-8.9-5.1-17.9-10-26.8-15-13.1-7.3-26.1-14.5-39.2-21.8l-33-18.3c-13.2-7.3-26.3-14.6-39.5-21.9-11-6.1-22.1-12.2-33.1-18.3-14.2-8-28.3-15.8-42.4-23.7-10-5.6-20.1-11.2-30.2-16.6-5.8-3.1-10.1-7.4-11.3-14.1-.3-1.7-.3-3.4-.3-5.1V291.7zm37.3-121.9v262.8c0 1 .2 1.6 1.2 2.1 11.3 6.2 22.5 12.5 33.7 18.7 10.8 6 21.7 12 32.5 18l39.9 22.2c9.8 5.4 19.6 10.8 29.4 16.3 13.3 7.4 26.5 14.7 39.8 22.1 11 6.1 22.1 12.2 33.1 18.4.5.2 1 .4 1.6.7v-2.5-259.3-1c.1-.9-.3-1.4-1.1-1.8l-27-15c-10.8-6-21.7-12-32.5-18-13.4-7.4-26.7-14.8-40.1-22.2-10.8-6-21.6-11.9-32.4-17.9-13.3-7.4-26.5-14.7-39.8-22.1-10-5.6-20.1-11.2-30.1-16.7-2.6-1.7-5.2-3.2-8.2-4.8zm459.8.1c-.7.3-1.1.4-1.5.6-9.7 5.4-19.4 10.7-29.1 16.1l-45.3 25.2c-12.1 6.7-24.2 13.3-36.2 20-18.3 10.1-36.5 20.3-54.8 30.5-14.3 7.9-28.5 15.8-42.8 23.7-1.1.6-1.5 1.3-1.5 2.6v260.3c0 .6.1 1.2.1 2.1 3.1-1.7 6-3.3 8.8-4.9 17.5-9.7 35.1-19.4 52.6-29.1 24.3-13.5 48.6-26.9 72.8-40.4 25-13.9 50.1-27.8 75.1-41.6 1.3-.7 1.7-1.5 1.7-2.9 0-45.1.1-90.2.1-135.3V172.3v-2.4zm-22.2-30.6c-.8-.4-1.2-.6-1.6-.9l-21.9-10.5c-17.7-8.5-35.5-17-53.2-25.5-11.3-5.4-22.6-10.9-33.9-16.3-20.7-10-41.5-19.9-62.2-29.9-11-5.3-22-10.5-33-15.9-1.4-.7-2.5-.7-3.8 0-3.3 1.7-6.6 3.2-9.9 4.8-14.5 7-29 13.9-43.4 20.9-14.6 7-29.2 14-43.7 21-11.4 5.5-22.7 10.9-34.1 16.4-14.8 7.1-29.7 14.3-44.5 21.4-8.7 4.2-17.3 8.3-26 12.5-1.3.6-2.5 1.3-4.1 2.1 1.9 1 3.4 1.8 5 2.7 18.4 10.2 36.8 20.5 55.2 30.7 11.1 6.1 22.2 12.2 33.3 18.4 13.1 7.2 26.1 14.6 39.2 21.8 10 5.6 20.1 11.1 30.2 16.6 14.7 8.2 29.5 16.4 44.2 24.5.4.2 1.1.2 1.5 0 10.4-5.7 20.9-11.5 31.3-17.3 16.1-8.9 32.3-17.9 48.4-26.8 13.3-7.4 26.7-14.7 40-22.1 11-6.1 21.9-12.2 32.9-18.3 14.2-7.8 28.3-15.7 42.5-23.5 3.6-2.3 7.4-4.5 11.6-6.8z"/>
</svg>