<?xml version="1.0" encoding="utf-8"?>
<!-- Generator: Adobe Illustrator 21.0.0, SVG Export Plug-In . SVG Version: 6.00 Build 0)  -->
<svg version="1.1" id="Layer_1" xmlns="http://www.w3.org/2000/svg" xmlns:xlink="http://www.w3.org/1999/xlink" x="0px" y="0px"
	 viewBox="0 0 100 100" style="enable-background:new 0 0 100 100;" xml:space="preserve">
<style type="text/css">
	.st0{fill:#55499E;}
	.st1{fill-rule:evenodd;clip-rule:evenodd;fill:#55499E;}
</style>
<g>
	<path class="st0" d="M21.3,53.2h57.3c4.7,0,14.4-3.3,10.5-10.1c-2.5-4.3-5.2-7.9-7.9-11.2c-3.2-3.8-6.2-4.9-17.4-4.8H36
		c-11.2-0.1-14.8,1.4-17.4,4.8c-2.6,3.4-5.3,6.9-7.8,11.2C6.9,49.9,16.6,53.2,21.3,53.2"/>
	<path class="st0" d="M55.9,58h20.7c5,0,13-1.8,13.5-5.2c0,0-1.8,9.9-2.6,13.8c-1.4,6.3-12,6.3-14.7,6.3H27.2
		c-2.7,0-13.2,0-14.7-6.3c-0.9-4-2.7-13.8-2.7-13.8c0.5,3.4,8.5,5.2,13.5,5.2H55.9z"/>
</g>
</svg>
