<svg width="133" height="31" viewBox="0 0 133 31" fill="none" xmlns="http://www.w3.org/2000/svg">
<path d="M19.7281 16.0613C19.6838 14.1911 18.1321 12.695 16.248 12.717C14.3416 12.761 12.8343 14.3011 12.8786 16.1713C12.923 18.0414 14.4746 19.5375 16.3588 19.5155C18.243 19.4935 19.7503 17.9314 19.7281 16.0613Z" fill="#007CC2"/>
<path d="M9.42071 18.8555C10.4847 18.1954 12.1029 18.8775 13.0339 20.3736C13.9649 21.8697 13.854 23.6078 12.79 24.2678C11.726 24.9279 10.1079 24.2458 9.17687 22.7497C8.24587 21.2316 8.37887 19.4935 9.42071 18.8555Z" fill="#007CC2"/>
<path d="M6.14002 22.6614C7.04886 22.2873 8.26802 23.1674 8.86652 24.5975C9.46502 26.0496 9.22119 27.5237 8.31236 27.8977C7.40352 28.2717 6.18436 27.4137 5.58586 25.9616C4.98736 24.5095 5.25336 23.0354 6.14002 22.6614Z" fill="#007CC2"/>
<path d="M3.16973 25.5878C3.79039 25.3458 4.72139 26.2699 5.25339 27.6559C5.76323 29.042 5.67456 30.3401 5.05389 30.5601C4.43323 30.8021 3.48006 29.8781 2.97023 28.492C2.43823 27.1059 2.52689 25.8078 3.16973 25.5878Z" fill="#007CC2"/>
<path d="M12.0143 7.26049C13.2113 7.61251 13.7877 9.26262 13.3 10.9347C12.8123 12.6288 11.4158 13.7069 10.2188 13.3549C9.02183 13.0029 8.44549 11.3528 8.93316 9.65864C9.42083 7.98653 10.8173 6.90846 12.0143 7.26049Z" fill="#007CC2"/>
<path d="M7.64734 3.38808C8.6005 3.6521 9.02167 5.08219 8.6005 6.57829C8.17934 8.09639 7.09317 9.10845 6.14 8.84443C5.18684 8.58042 4.76567 7.17233 5.18684 5.63223C5.608 4.13613 6.71634 3.12406 7.64734 3.38808Z" fill="#007CC2"/>
<path d="M4.34466 0.418086C5.00966 0.550095 5.29782 1.82618 4.98749 3.27827C4.67716 4.70836 3.90132 5.76443 3.23632 5.63242C2.59349 5.50041 2.28316 4.22433 2.59349 2.77224C2.92599 1.32014 3.70182 0.286078 4.34466 0.418086Z" fill="#007CC2"/>
<path d="M7.16531 18.3042C8.2057 18.285 9.0268 17.0778 8.99928 15.6078C8.97177 14.1378 8.10606 12.9617 7.06567 12.9809C6.02529 13.0001 5.20419 14.2073 5.2317 15.6773C5.25922 17.1472 6.12492 18.3234 7.16531 18.3042Z" fill="#959BA1"/>
<path d="M2.7706 20.0434C2.52677 18.7013 2.99227 17.4912 3.81244 17.3372C4.6326 17.2052 5.47494 18.1733 5.71877 19.5374C5.9626 20.8795 5.4971 22.0895 4.67694 22.2435C3.85677 22.3756 2.99227 21.3855 2.7706 20.0434Z" fill="#959BA1"/>
<path d="M2.92594 22.7055C2.57127 21.4955 1.8176 20.6594 1.24127 20.8354C0.664937 21.0114 0.465437 22.1115 0.820104 23.3216C1.17477 24.5316 1.92844 25.3677 2.50477 25.1917C3.10327 25.0377 3.2806 23.9156 2.92594 22.7055Z" fill="#959BA1"/>
<path d="M5.47494 11.2207C5.45278 9.90064 4.78778 8.82257 4.01194 8.84457C3.23611 8.86657 2.63761 9.94464 2.65978 11.2647C2.68194 12.5848 3.32478 13.6409 4.10061 13.6409C4.89861 13.6189 5.51928 12.5408 5.47494 11.2207Z" fill="#959BA1"/>
<path d="M2.68206 7.67843C2.65989 6.49035 2.12789 5.54429 1.50722 5.56629C0.886557 5.5883 0.376723 6.55636 0.39889 7.72243C0.421057 8.91051 0.953057 9.85657 1.57372 9.83457C2.21656 9.83457 2.70422 8.86651 2.68206 7.67843Z" fill="#959BA1"/>
<path d="M38.5698 12.1889H33.0059V21.6935H29.9026V12.1889H24.4053V9.65869H38.5698V12.1889Z" fill="#007CC2"/>
<path d="M53.5322 21.7155H41.5178V9.65869H53.5322V12.1889H44.6212V14.477H52.4903V16.8752H44.6212V19.2513H53.5322V21.7155Z" fill="#007CC2"/>
<path d="M72.0637 21.7154H68.7609L67.5639 19.2733H60.1824L58.9632 21.7154H55.749L61.9557 9.68066H65.7905L72.0637 21.7154ZM66.4555 17.0511L63.9064 12.2108L61.3129 17.0511H66.4555Z" fill="#007CC2"/>
<path d="M84.9647 21.7155H73.9922V9.65869H77.0955V19.0533H84.9647V21.7155Z" fill="#007CC2"/>
<path d="M90.617 21.7155H87.5137V9.65869H90.617V21.7155Z" fill="#007CC2"/>
<path d="M108.506 16.6771C108.506 20.6594 106.621 21.9135 101.058 21.9135C95.4937 21.9135 93.7869 20.8354 93.7869 16.6771V9.65869H96.8237V16.4571C96.8237 19.0093 98.3089 19.2733 101.08 19.2733C103.673 19.2733 105.491 18.8333 105.491 16.4571V9.65869H108.528V16.6771H108.506Z" fill="#007CC2"/>
<path d="M131.027 21.7154H127.724L126.239 12.3648L122.448 21.7154H118.924L115.222 12.3648L113.692 21.7154H110.5L112.628 9.68066H117.217L120.653 18.5032L124.31 9.68066H128.854L131.027 21.7154Z" fill="#007CC2"/>
</svg>
