<svg width="42" height="14" viewBox="0 0 42 14" fill="none" xmlns="http://www.w3.org/2000/svg">
<path d="M5.08 12.7778C9.032 12.7778 11.692 10.1748 11.692 6.43183C11.692 2.72683 9.032 0.104831 5.061 0.104831H0.349V12.7778H5.08ZM5.061 10.8208H2.572V2.06183H5.08C7.892 2.06183 9.412 3.99983 9.412 6.43183C9.412 8.84483 7.816 10.8208 5.061 10.8208ZM17.9423 13.0058C20.8683 13.0058 22.6543 10.8018 22.6543 8.17983C22.6543 5.53883 20.8683 3.37283 17.9423 3.37283C15.0163 3.37283 13.2303 5.53883 13.2303 8.17983C13.2303 10.8018 15.0163 13.0058 17.9423 13.0058ZM17.9423 11.2388C16.2513 11.2388 15.3013 9.81383 15.3013 8.17983C15.3013 6.56483 16.2513 5.13983 17.9423 5.13983C19.6523 5.13983 20.5833 6.56483 20.5833 8.17983C20.5833 9.81383 19.6523 11.2388 17.9423 11.2388ZM28.8714 13.0058C30.6764 13.0058 31.7404 12.2268 32.3864 11.3718L31.0754 10.1368C30.5624 10.8588 29.8594 11.2388 28.9664 11.2388C27.3134 11.2388 26.1924 9.96583 26.1924 8.17983C26.1924 6.39383 27.3134 5.13983 28.9664 5.13983C29.8594 5.13983 30.5624 5.48183 31.0754 6.20383L32.3864 5.00683C31.7404 4.13283 30.6764 3.37283 28.8714 3.37283C26.0974 3.37283 24.1404 5.40583 24.1404 8.17983C24.1404 10.9538 26.0974 13.0058 28.8714 13.0058ZM37.3083 13.0058C39.7783 13.0058 41.1273 11.7708 41.1273 10.1368C41.1273 6.48883 35.5793 7.70483 35.5793 6.08983C35.5793 5.44383 36.2253 4.94983 37.2703 4.94983C38.4293 4.94983 39.4363 5.44383 39.9873 6.05183L40.8233 4.64583C40.0063 3.92383 38.8283 3.37283 37.2703 3.37283C34.9523 3.37283 33.6603 4.64583 33.6603 6.14683C33.6603 9.68083 39.2083 8.38883 39.2083 10.1938C39.2083 10.9158 38.5813 11.4098 37.3843 11.4098C36.2063 11.4098 34.9333 10.8018 34.2873 10.1368L33.3753 11.5618C34.3253 12.4928 35.7313 13.0058 37.3083 13.0058Z" fill="#737D8A"/>
</svg>
