<svg width="20" height="20" viewBox="0 0 20 20" fill="none" xmlns="http://www.w3.org/2000/svg">
<path d="M9.35417 18C9.15972 18 8.97222 17.9653 8.79167 17.8958C8.61111 17.8264 8.44444 17.7153 8.29167 17.5625L2.4375 11.6875C2.28528 11.5357 2.17431 11.3681 2.10458 11.1848C2.03486 11.0013 2 10.8147 2 10.625C2 10.4306 2.03472 10.2465 2.10417 10.0729C2.17361 9.89931 2.28472 9.73611 2.4375 9.58333L9.58896 2.43125C9.73799 2.28264 9.90306 2.17361 10.0842 2.10417C10.2654 2.03472 10.4526 2 10.6458 2H16.5C16.9125 2 17.2656 2.14688 17.5594 2.44063C17.8531 2.73438 18 3.0875 18 3.5V9.35417C18 9.55167 17.9653 9.73993 17.8958 9.91896C17.8264 10.098 17.7174 10.2618 17.5688 10.4104L10.4167 17.5625C10.2639 17.7153 10.0972 17.8264 9.91667 17.8958C9.73611 17.9653 9.54861 18 9.35417 18ZM9.35417 16.5L16.5 9.35417V3.5H10.6458L3.5 10.6458L9.35417 16.5ZM14.5 6.75C14.8472 6.75 15.1424 6.62847 15.3854 6.38542C15.6285 6.14236 15.75 5.84722 15.75 5.5C15.75 5.15278 15.6285 4.85764 15.3854 4.61458C15.1424 4.37153 14.8472 4.25 14.5 4.25C14.1528 4.25 13.8576 4.37153 13.6146 4.61458C13.3715 4.85764 13.25 5.15278 13.25 5.5C13.25 5.84722 13.3715 6.14236 13.6146 6.38542C13.8576 6.62847 14.1528 6.75 14.5 6.75Z" fill="white"/>
</svg>
