<svg width="20" height="20" viewBox="0 0 20 20" fill="none" xmlns="http://www.w3.org/2000/svg">
<path d="M10.0417 18.6667C9.68055 18.6667 9.35417 18.5799 9.0625 18.4062C8.77083 18.2326 8.54167 18 8.375 17.7083C7.91667 17.7083 7.52431 17.5451 7.19792 17.2187C6.87153 16.8924 6.70833 16.5 6.70833 16.0417V13.0833C5.88889 12.5417 5.23264 11.8264 4.73958 10.9375C4.24653 10.0486 4 9.08333 4 8.04167C4 6.36111 4.58681 4.93403 5.76042 3.76042C6.93403 2.58681 8.36111 2 10.0417 2C11.7222 2 13.1493 2.58681 14.3229 3.76042C15.4965 4.93403 16.0833 6.36111 16.0833 8.04167C16.0833 9.11111 15.8368 10.0833 15.3437 10.9583C14.8507 11.8333 14.1944 12.5417 13.375 13.0833V16.0417C13.375 16.5 13.2118 16.8924 12.8854 17.2187C12.559 17.5451 12.1667 17.7083 11.7083 17.7083C11.5417 18 11.3125 18.2326 11.0208 18.4062C10.7292 18.5799 10.4028 18.6667 10.0417 18.6667ZM8.375 16.0417H11.7083V15.2917H8.375V16.0417ZM8.375 14.4583H11.7083V13.6667H8.375V14.4583ZM8.20833 12H9.41667V9.75L8.02083 8.35417C7.89583 8.22917 7.83333 8.08333 7.83333 7.91667C7.83333 7.75 7.89583 7.60417 8.02083 7.47917C8.14583 7.35417 8.29167 7.29167 8.45833 7.29167C8.625 7.29167 8.77083 7.35417 8.89583 7.47917L10.0417 8.625L11.1875 7.47917C11.3125 7.35417 11.4583 7.29167 11.625 7.29167C11.7917 7.29167 11.9375 7.35417 12.0625 7.47917C12.1875 7.60417 12.25 7.75 12.25 7.91667C12.25 8.08333 12.1875 8.22917 12.0625 8.35417L10.6667 9.75V12H11.875C12.625 11.6389 13.2361 11.1076 13.7083 10.4062C14.1806 9.70486 14.4167 8.91667 14.4167 8.04167C14.4167 6.81944 13.9931 5.78472 13.1458 4.9375C12.2986 4.09028 11.2639 3.66667 10.0417 3.66667C8.81944 3.66667 7.78472 4.09028 6.9375 4.9375C6.09028 5.78472 5.66667 6.81944 5.66667 8.04167C5.66667 8.91667 5.90278 9.70486 6.375 10.4062C6.84722 11.1076 7.45833 11.6389 8.20833 12Z" fill="white"/>
</svg>
