<svg width="20" height="20" viewBox="0 0 20 20" fill="none" xmlns="http://www.w3.org/2000/svg">
<path d="M9.98958 17C8.03819 17 6.38542 16.7094 5.03125 16.1281C3.67708 15.5469 3 14.8375 3 14V6C3 5.16667 3.68056 4.45833 5.04167 3.875C6.40278 3.29167 8.05208 3 9.98958 3C11.9271 3 13.5799 3.29167 14.9479 3.875C16.316 4.45833 17 5.16667 17 6V14C17 14.8375 16.3194 15.5469 14.9583 16.1281C13.5972 16.7094 11.941 17 9.98958 17ZM9.99938 7.5C11.1942 7.5 12.3472 7.35069 13.4583 7.05208C14.5694 6.75347 15.25 6.40278 15.5 6C15.25 5.61111 14.566 5.26389 13.4479 4.95833C12.3299 4.65278 11.1803 4.5 9.99938 4.5C8.80535 4.5 7.64931 4.65278 6.53125 4.95833C5.41319 5.26389 4.73611 5.61111 4.5 6C4.73611 6.40278 5.40625 6.75347 6.51042 7.05208C7.61458 7.35069 8.77757 7.5 9.99938 7.5ZM10 11.5C10.5833 11.5 11.1389 11.4688 11.6667 11.4062C12.1944 11.3438 12.691 11.2569 13.1562 11.1458C13.6215 11.0347 14.0521 10.8924 14.4479 10.7188C14.8438 10.5451 15.1944 10.3472 15.5 10.125V7.85417C15.1632 8.03778 14.7908 8.20174 14.3829 8.34604C13.9749 8.49035 13.5359 8.61007 13.066 8.70521C12.5962 8.80035 12.1031 8.87326 11.5869 8.92396C11.0706 8.97465 10.5382 9 9.98958 9C9.44097 9 8.90549 8.97465 8.38313 8.92396C7.86063 8.87326 7.36757 8.80035 6.90396 8.70521C6.44021 8.61007 6.00347 8.48958 5.59375 8.34375C5.18403 8.19792 4.81944 8.03472 4.5 7.85417V10.125C4.81125 10.3464 5.15993 10.5441 5.54604 10.7181C5.93201 10.8922 6.35764 11.0347 6.82292 11.1458C7.28819 11.2569 7.78819 11.3438 8.32292 11.4062C8.85764 11.4688 9.41667 11.5 10 11.5ZM10.0067 15.5C10.6083 15.5 11.2198 15.4556 11.841 15.3667C12.4623 15.2779 13.0345 15.1606 13.5577 15.0146C14.0809 14.8688 14.519 14.7038 14.8721 14.5198C15.2253 14.3358 15.4346 14.1486 15.5 13.9583V11.8542C15.1632 12.0378 14.7908 12.2017 14.3829 12.346C13.9749 12.4903 13.5359 12.6101 13.066 12.7052C12.5962 12.8003 12.1031 12.8733 11.5869 12.924C11.0706 12.9747 10.5382 13 9.98958 13C9.44097 13 8.90549 12.9747 8.38313 12.924C7.86063 12.8733 7.36757 12.8003 6.90396 12.7052C6.44021 12.6101 6.00347 12.4896 5.59375 12.3438C5.18403 12.1979 4.81944 12.0347 4.5 11.8542V14C4.56944 14.1806 4.78125 14.3611 5.13542 14.5417C5.48958 14.7222 5.92708 14.8819 6.44792 15.0208C6.96875 15.1597 7.54167 15.2743 8.16667 15.3646C8.79167 15.4549 9.405 15.5 10.0067 15.5Z" fill="white"/>
</svg>
