<svg xmlns="http://www.w3.org/2000/svg" viewBox="0 0 348.11 96.4"><defs><style>.cls-1{fill:#ffffff;}</style></defs><title>Asset 8</title><g id="Layer_2" data-name="Layer 2"><g id="Layer_1-2" data-name="Layer 1"><rect class="cls-1" y="70.3" width="88" height="26.1"/><rect class="cls-1" x="0.05" y="0.79" width="60.1" height="26.1"/><rect class="cls-1" y="35.55" width="88" height="26.1"/><path class="cls-1" d="M144.08,5.15h-9.6V1.69h23.37V5.15H148.2V33.26h-4.12Z"/><path class="cls-1" d="M160.2,22.67c.09,5.58,3.65,7.87,7.77,7.87a14.84,14.84,0,0,0,6.28-1.17l.7,2.95a18.25,18.25,0,0,1-7.54,1.41c-7,0-11.15-4.59-11.15-11.43s4-12.23,10.64-12.23c7.4,0,9.36,6.51,9.36,10.68a14.82,14.82,0,0,1-.14,1.92Zm12.08-3c.05-2.62-1.07-6.7-5.71-6.7-4.17,0-6,3.85-6.33,6.7Z"/><path class="cls-1" d="M193.93,33.26l-.33-2.86h-.14a8.45,8.45,0,0,1-6.93,3.38c-4.59,0-6.94-3.24-6.94-6.52,0-5.48,4.88-8.47,13.64-8.43v-.47c0-1.87-.52-5.24-5.16-5.24a11.28,11.28,0,0,0-5.9,1.68l-.94-2.71a14.07,14.07,0,0,1,7.45-2c6.93,0,8.62,4.73,8.62,9.28v8.48a31,31,0,0,0,.38,5.43Zm-.61-11.57c-4.5-.09-9.6.7-9.6,5.11a3.64,3.64,0,0,0,3.88,3.93,5.62,5.62,0,0,0,5.48-3.79,4.09,4.09,0,0,0,.24-1.32Z"/><path class="cls-1" d="M204,0h4.12V33.26H204Z"/><path class="cls-1" d="M219.6,4.22a2.55,2.55,0,0,1-5.1,0,2.5,2.5,0,0,1,2.57-2.58A2.44,2.44,0,0,1,219.6,4.22Zm-4.59,29V10.59h4.12V33.26Z"/><path class="cls-1" d="M245,27.08c0,2.34,0,4.4.18,6.18h-3.65l-.23-3.7h-.1a8.53,8.53,0,0,1-7.49,4.22c-3.56,0-7.83-2-7.83-9.94V10.59H230V23.14c0,4.31,1.31,7.22,5,7.22a6,6,0,0,0,5.44-3.75,6.14,6.14,0,0,0,.37-2.11V10.59H245Z"/><path class="cls-1" d="M251.79,16.72c0-2.34,0-4.26-.19-6.13h3.61l.18,3.65h.15a7.81,7.81,0,0,1,7.12-4.17,6.7,6.7,0,0,1,6.41,4.55h.1a9.18,9.18,0,0,1,2.53-2.95,7.67,7.67,0,0,1,5-1.6c3,0,7.45,2,7.45,9.84V33.26h-4V20.42c0-4.35-1.59-7-4.92-7a5.33,5.33,0,0,0-4.87,3.74,6.69,6.69,0,0,0-.33,2.06v14h-4V19.68c0-3.61-1.59-6.23-4.73-6.23a5.64,5.64,0,0,0-5.11,4.12,5.77,5.77,0,0,0-.32,2V33.26h-4Z"/><path class="cls-1" d="M157.24,76.74H145.91v5.81H158.6v6.93H137.43V57.91H158v6.88h-12V69.9h11.33Z"/><path class="cls-1" d="M186.15,56.22v26c0,2.86.09,5.76.19,7.31h-7.5l-.33-3.14h-.09a7.82,7.82,0,0,1-7,3.66c-5.34,0-9.79-4.64-9.79-11.9-.05-7.73,4.87-12.18,10.31-12.18,2.52,0,4.63.75,5.66,2.2h.1V56.22Zm-8.43,20.14a8,8,0,0,0-.05-1.07,3.5,3.5,0,0,0-3.37-3c-2.81,0-4.08,2.53-4.08,5.57,0,3.51,1.74,5.39,4.08,5.39a3.33,3.33,0,0,0,3.28-2.77,8.56,8.56,0,0,0,.14-1.54Z"/><path class="cls-1" d="M214.12,81.61c0,3.28.09,5.9.19,7.87H207l-.37-3h-.19a8,8,0,0,1-7,3.56c-5.15,0-8.15-3.33-8.15-10V66.43h8.43V78.66c0,3,1,4.54,3,4.54a2.8,2.8,0,0,0,2.71-2,2.45,2.45,0,0,0,.24-1.22V66.43h8.43Z"/><path class="cls-1" d="M237.07,89a17.68,17.68,0,0,1-6.37.94c-7.63,0-12.46-4.45-12.46-11.81,0-6.55,4.5-12.22,13.49-12.22a17.37,17.37,0,0,1,5.34.79l-1.21,6.23a9.49,9.49,0,0,0-3.61-.6,5.15,5.15,0,0,0-5.39,5.52c0,3.75,2.63,5.53,5.58,5.53a9.8,9.8,0,0,0,3.7-.56Z"/><path class="cls-1" d="M254.08,89.48l-.47-2h-.14A8.29,8.29,0,0,1,247.05,90a7.23,7.23,0,0,1-7.58-7.27c0-6.18,5.52-8.9,13.35-8.94V73.6c0-.94-.71-2-3.75-2a13.86,13.86,0,0,0-6.51,1.74L241.06,68a21.46,21.46,0,0,1,9.56-2.06c7.91,0,10.68,4.4,10.68,10.16v7.78a29.38,29.38,0,0,0,.37,5.62Zm-1-10.54c-3.42,0-5.39,1-5.39,3a2.12,2.12,0,0,0,2.39,2.2A3.09,3.09,0,0,0,253,82a4.79,4.79,0,0,0,.1-1.22Z"/><path class="cls-1" d="M275.3,59.88v6.55h4.78v6.19H275.3v6.6c0,2.77.66,3.89,2.67,3.89a9.61,9.61,0,0,0,2-.19v6.42a17.69,17.69,0,0,1-5,.61,8.17,8.17,0,0,1-5.77-2.06c-1.4-1.41-2.15-3.7-2.15-7.22v-8H264.2V66.43h2.86V61.75Z"/><path class="cls-1" d="M292.55,60.06a4,4,0,0,1-4.36,4,4,4,0,0,1-4.26-4c0-2.29,1.68-4,4.31-4A4,4,0,0,1,292.55,60.06ZM284,89.48v-23h8.43v23Z"/><path class="cls-1" d="M321.22,77.72c0,8.39-6,12.28-12.47,12.28-6.88,0-12.22-4.41-12.22-11.9,0-7.31,4.82-12.18,12.69-12.18C316.44,65.92,321.22,70.79,321.22,77.72Zm-16,.24c0,3.42,1.13,6.09,3.75,6.09,2.25,0,3.51-2.39,3.51-6.09,0-3.19-1-6.09-3.56-6.09C306.18,71.87,305.24,74.91,305.24,78Z"/><path class="cls-1" d="M325.29,74.26c0-3.05-.09-5.72-.18-7.83h7.26l.37,2.95h.19a8.29,8.29,0,0,1,6.89-3.46c5.38,0,8.29,3.65,8.29,10V89.48h-8.43V76.93c0-2.67-.94-4.22-3-4.22a2.9,2.9,0,0,0-2.76,2,4.58,4.58,0,0,0-.23,1.69V89.48h-8.44Z"/></g></g></svg>
