<svg width="20" height="20" viewBox="0 0 20 20" fill="none" xmlns="http://www.w3.org/2000/svg">
<path d="M8.66667 13.6667C10.0556 13.6667 11.2361 13.1806 12.2083 12.2083C13.1806 11.2361 13.6667 10.0556 13.6667 8.66667C13.6667 7.27778 13.1806 6.09722 12.2083 5.125C11.2361 4.15278 10.0556 3.66667 8.66667 3.66667C7.27778 3.66667 6.09722 4.15278 5.125 5.125C4.15278 6.09722 3.66667 7.27778 3.66667 8.66667C3.66667 10.0556 4.15278 11.2361 5.125 12.2083C6.09722 13.1806 7.27778 13.6667 8.66667 13.6667ZM8.66667 11.1667C8.43056 11.1667 8.23264 11.0868 8.07292 10.9271C7.9132 10.7674 7.83333 10.5694 7.83333 10.3333V6.16667C7.83333 5.93056 7.9132 5.73264 8.07292 5.57292C8.23264 5.4132 8.43056 5.33333 8.66667 5.33333C8.90278 5.33333 9.1007 5.4132 9.26042 5.57292C9.42014 5.73264 9.5 5.93056 9.5 6.16667V10.3333C9.5 10.5694 9.42014 10.7674 9.26042 10.9271C9.1007 11.0868 8.90278 11.1667 8.66667 11.1667ZM5.75 11.1667C5.51389 11.1667 5.31597 11.0868 5.15625 10.9271C4.99653 10.7674 4.91667 10.5694 4.91667 10.3333V7.83333C4.91667 7.59722 4.99653 7.39931 5.15625 7.23958C5.31597 7.07986 5.51389 7 5.75 7C5.98611 7 6.18403 7.07986 6.34375 7.23958C6.50347 7.39931 6.58333 7.59722 6.58333 7.83333V10.3333C6.58333 10.5694 6.50347 10.7674 6.34375 10.9271C6.18403 11.0868 5.98611 11.1667 5.75 11.1667ZM11.5833 11.1667C11.3472 11.1667 11.1493 11.0868 10.9896 10.9271C10.8299 10.7674 10.75 10.5694 10.75 10.3333V8.66667C10.75 8.43056 10.8299 8.23264 10.9896 8.07292C11.1493 7.9132 11.3472 7.83333 11.5833 7.83333C11.8194 7.83333 12.0174 7.9132 12.1771 8.07292C12.3368 8.23264 12.4167 8.43056 12.4167 8.66667V10.3333C12.4167 10.5694 12.3368 10.7674 12.1771 10.9271C12.0174 11.0868 11.8194 11.1667 11.5833 11.1667ZM8.66667 15.3333C6.80556 15.3333 5.22917 14.6875 3.9375 13.3958C2.64583 12.1042 2 10.5278 2 8.66667C2 6.80556 2.64583 5.22917 3.9375 3.9375C5.22917 2.64583 6.80556 2 8.66667 2C10.5278 2 12.1042 2.64583 13.3958 3.9375C14.6875 5.22917 15.3333 6.80556 15.3333 8.66667C15.3333 9.44445 15.2118 10.1806 14.9688 10.875C14.7257 11.5694 14.3819 12.2014 13.9375 12.7708L18.0833 16.9167C18.2361 17.0694 18.3125 17.2639 18.3125 17.5C18.3125 17.7361 18.2361 17.9306 18.0833 18.0833C17.9306 18.2361 17.7361 18.3125 17.5 18.3125C17.2639 18.3125 17.0694 18.2361 16.9167 18.0833L12.7708 13.9375C12.2014 14.3819 11.5694 14.7257 10.875 14.9688C10.1806 15.2118 9.44445 15.3333 8.66667 15.3333Z" fill="white"/>
</svg>
