<svg width="20" height="20" viewBox="0 0 20 20" fill="none" xmlns="http://www.w3.org/2000/svg">
<path d="M13.8452 16.8233L9.78129 12.7645C9.51351 12.8656 9.22219 12.9458 8.90733 13.0049C8.59261 13.0641 8.26525 13.0937 7.92525 13.0937C6.51039 13.0937 5.29761 12.5918 4.28692 11.588C3.27622 10.5843 2.77087 9.37499 2.77087 7.96013C2.77087 7.42874 2.84268 6.91041 2.98629 6.40513C3.12976 5.89985 3.33678 5.44583 3.60733 5.04305L6.63733 8.07284L8.09567 6.61451L5.06567 3.58471C5.45844 3.3486 5.90657 3.16055 6.41004 3.02055C6.91351 2.88055 7.41858 2.81055 7.92525 2.81055C9.35567 2.81055 10.5715 3.31819 11.5727 4.33346C12.5741 5.3486 13.0748 6.56569 13.0748 7.98471C13.0748 8.29333 13.0461 8.5793 12.9886 8.84263C12.9309 9.10596 12.8499 9.37652 12.7455 9.6543L16.8927 13.7808C17.1171 14.0085 17.2292 14.2839 17.2292 14.6068C17.2292 14.9296 17.1171 15.2031 16.8927 15.4274L15.4761 16.8233C15.2509 17.0476 14.9789 17.1597 14.66 17.1597C14.3412 17.1597 14.0696 17.0476 13.8452 16.8233ZM14.6632 15.302L15.3923 14.5937L10.7586 10.0018C11.0364 9.66846 11.2169 9.30388 11.3002 8.90805C11.3836 8.51221 11.4252 8.20319 11.4252 7.98096C11.4252 7.05249 11.0954 6.24395 10.4357 5.55534C9.77594 4.86687 8.9808 4.5018 8.05025 4.46013L9.674 6.06284C9.84997 6.24256 9.93796 6.45228 9.93796 6.69201C9.93796 6.93173 9.84796 7.14103 9.66796 7.31992L7.32858 9.6418C7.14733 9.82083 6.94192 9.91034 6.71233 9.91034C6.48275 9.91034 6.28247 9.82228 6.1115 9.64617L4.42525 7.96013C4.42525 8.91846 4.769 9.73791 5.4565 10.4185C6.144 11.099 6.96692 11.4393 7.92525 11.4393C8.16136 11.4393 8.48775 11.3907 8.90442 11.2935C9.32108 11.1962 9.70997 11.0018 10.0711 10.7101L14.6632 15.302Z" fill="white"/>
</svg>
