<svg width="20" height="20" viewBox="0 0 20 20" fill="none" xmlns="http://www.w3.org/2000/svg">
<path d="M9.12516 10.5827L7.9585 9.41602C7.79183 9.24935 7.59738 9.16602 7.37516 9.16602C7.15294 9.16602 6.9585 9.24935 6.79183 9.41602C6.62516 9.58268 6.54183 9.7806 6.54183 10.0098C6.54183 10.2389 6.62516 10.4368 6.79183 10.6035L8.54183 12.3744C8.7085 12.541 8.90294 12.6244 9.12516 12.6244C9.34738 12.6244 9.54183 12.541 9.7085 12.3744L13.2502 8.83268C13.4168 8.66602 13.5002 8.4681 13.5002 8.23893C13.5002 8.00977 13.4168 7.81185 13.2502 7.64518C13.0835 7.47852 12.8856 7.39518 12.6564 7.39518C12.4272 7.39518 12.2293 7.47852 12.0627 7.64518L9.12516 10.5827ZM10.0002 18.2494C9.90294 18.2494 9.81266 18.2424 9.72933 18.2285C9.646 18.2146 9.56266 18.1938 9.47933 18.166C7.60433 17.541 6.11127 16.3848 5.00016 14.6973C3.88905 13.0098 3.3335 11.1938 3.3335 9.24935V5.31185C3.3335 4.96463 3.43419 4.65213 3.63558 4.37435C3.83697 4.09657 4.09738 3.89518 4.41683 3.77018L9.41683 1.89518C9.61127 1.82574 9.80572 1.79102 10.0002 1.79102C10.1946 1.79102 10.3891 1.82574 10.5835 1.89518L15.5835 3.77018C15.9029 3.89518 16.1634 4.09657 16.3647 4.37435C16.5661 4.65213 16.6668 4.96463 16.6668 5.31185V9.24935C16.6668 11.1938 16.1113 13.0098 15.0002 14.6973C13.8891 16.3848 12.396 17.541 10.521 18.166C10.4377 18.1938 10.3543 18.2146 10.271 18.2285C10.1877 18.2424 10.0974 18.2494 10.0002 18.2494ZM10.0002 16.5827C11.4446 16.1244 12.6391 15.2077 13.5835 13.8327C14.5279 12.4577 15.0002 10.9299 15.0002 9.24935V5.31185L10.0002 3.43685L5.00016 5.31185V9.24935C5.00016 10.9299 5.47238 12.4577 6.41683 13.8327C7.36127 15.2077 8.55572 16.1244 10.0002 16.5827Z" fill="white"/>
</svg>
