<svg width="20" height="20" viewBox="0 0 20 20" fill="none" xmlns="http://www.w3.org/2000/svg">
<path d="M9.58333 16.3333H10.4167V14.7917L13.3333 11.875V8H6.66667V11.875L9.58333 14.7917V16.3333ZM7.91667 17.1667V15.5L5.47917 13.0625C5.32639 12.9097 5.20833 12.7326 5.125 12.5312C5.04167 12.3299 5 12.1181 5 11.8958V8C5 7.54167 5.16319 7.14931 5.48958 6.82292C5.81597 6.49653 6.20833 6.33333 6.66667 6.33333H7.5L6.66667 7.16667V3.83333C6.66667 3.59722 6.74653 3.39931 6.90625 3.23958C7.06597 3.07986 7.26389 3 7.5 3C7.73611 3 7.93403 3.07986 8.09375 3.23958C8.25347 3.39931 8.33333 3.59722 8.33333 3.83333V6.33333H11.6667V3.83333C11.6667 3.59722 11.7465 3.39931 11.9062 3.23958C12.066 3.07986 12.2639 3 12.5 3C12.7361 3 12.934 3.07986 13.0938 3.23958C13.2535 3.39931 13.3333 3.59722 13.3333 3.83333V7.16667L12.5 6.33333H13.3333C13.7917 6.33333 14.184 6.49653 14.5104 6.82292C14.8368 7.14931 15 7.54167 15 8V11.8958C15 12.1181 14.9583 12.3299 14.875 12.5312C14.7917 12.7326 14.6736 12.9097 14.5208 13.0625L12.0833 15.5V17.1667C12.0833 17.4028 12.0035 17.6007 11.8438 17.7604C11.684 17.9201 11.4861 18 11.25 18H8.75C8.51389 18 8.31597 17.9201 8.15625 17.7604C7.99653 17.6007 7.91667 17.4028 7.91667 17.1667Z" fill="white"/>
</svg>
