<svg width="20" height="20" viewBox="0 0 20 20" fill="none" xmlns="http://www.w3.org/2000/svg">
<path d="M1.84558 16.2544V14.1584C1.84558 13.7694 1.941 13.4119 2.13183 13.0859C2.32266 12.7598 2.58516 12.4996 2.91933 12.3055C3.67933 11.8577 4.486 11.5141 5.33933 11.2746C6.1928 11.0352 7.08468 10.9155 8.01496 10.9155C8.95148 10.9155 9.84655 11.0344 10.7002 11.2721C11.5538 11.5099 12.3572 11.8527 13.1104 12.3005C13.4445 12.4942 13.7071 12.7537 13.8981 13.0788C14.0889 13.4039 14.1843 13.7637 14.1843 14.158V16.2544H1.84558ZM15.7591 16.2544V14.1732C15.7591 13.5766 15.6253 13.0201 15.3577 12.5034C15.0902 11.9869 14.7223 11.5439 14.2541 11.1746C14.7593 11.2924 15.252 11.4426 15.7323 11.6251C16.2127 11.8076 16.6754 12.0327 17.1204 12.3005C17.4393 12.481 17.6913 12.7406 17.8766 13.0792C18.0618 13.4178 18.1543 13.7875 18.1543 14.1882V16.2544H15.7591ZM8.01496 9.91547C7.15496 9.91547 6.42586 9.61637 5.82767 9.01818C5.22933 8.41984 4.93016 7.69075 4.93016 6.83089C4.93016 5.97102 5.22933 5.24193 5.82767 4.64359C6.42586 4.04526 7.15496 3.74609 8.01496 3.74609C8.87482 3.74609 9.60392 4.04526 10.2022 4.64359C10.8004 5.24193 11.0995 5.97102 11.0995 6.83089C11.0995 7.69075 10.8004 8.41984 10.2022 9.01818C9.60392 9.61637 8.87482 9.91547 8.01496 9.91547ZM15.2591 6.83089C15.2591 7.68741 14.9592 8.41568 14.3593 9.01568C13.7596 9.61554 13.0316 9.91547 12.1752 9.91547C12.0602 9.91547 11.9557 9.91123 11.8618 9.90276C11.7679 9.89415 11.6588 9.87262 11.5343 9.83818C11.8882 9.42873 12.1667 8.97109 12.3697 8.46526C12.5728 7.95943 12.6743 7.41484 12.6743 6.83151C12.6743 6.24832 12.5728 5.70359 12.3697 5.19734C12.1667 4.69096 11.8882 4.23304 11.5343 3.82359C11.6488 3.79248 11.7546 3.77179 11.8518 3.76151C11.9491 3.75123 12.0558 3.74609 12.172 3.74609C13.0293 3.74609 13.7581 4.04609 14.3585 4.64609C14.9589 5.24596 15.2591 5.97422 15.2591 6.83089ZM3.57475 14.5253H12.4552V14.1832C12.4552 14.0965 12.4341 14.0178 12.392 13.9469C12.3501 13.8761 12.2947 13.821 12.226 13.7815C11.5931 13.4198 10.9205 13.14 10.2083 12.9419C9.49607 12.7437 8.76496 12.6446 8.01496 12.6446C7.27162 12.6446 6.54044 12.7403 5.82141 12.9315C5.10253 13.1226 4.43003 13.406 3.80391 13.7815C3.73516 13.8193 3.67975 13.8722 3.63766 13.9403C3.59572 14.0082 3.57475 14.0885 3.57475 14.1813V14.5253ZM8.0185 8.26109C8.4128 8.26109 8.74919 8.12068 9.02767 7.83984C9.306 7.55915 9.44517 7.22165 9.44517 6.82734C9.44517 6.4329 9.30475 6.09651 9.02392 5.81818C8.74308 5.53984 8.40551 5.40068 8.01121 5.40068C7.6169 5.40068 7.28058 5.54109 7.00225 5.82193C6.72391 6.10262 6.58475 6.44012 6.58475 6.83443C6.58475 7.22873 6.7251 7.56512 7.00579 7.84359C7.28662 8.12193 7.62419 8.26109 8.0185 8.26109Z" fill="white"/>
</svg>
