<svg xmlns="http://www.w3.org/2000/svg" viewBox="0 0 427.99 98.76"><defs><style>.cls-1{fill:#007dc2;}</style></defs><title>Asset 9</title><g id="Layer_2" data-name="Layer 2"><g id="Layer_1-2" data-name="Layer 1"><rect class="cls-1" y="70.3" width="88" height="26.1"/><rect class="cls-1" x="0.05" y="0.79" width="60.1" height="26.1"/><rect class="cls-1" y="35.55" width="88" height="26.1"/><path class="cls-1" d="M144.08,5.15h-9.6V1.69h23.37V5.15H148.2V33.26h-4.12Z"/><path class="cls-1" d="M160.2,22.67c.09,5.58,3.65,7.87,7.77,7.87a14.84,14.84,0,0,0,6.28-1.17l.7,2.95a18.25,18.25,0,0,1-7.54,1.41c-7,0-11.15-4.59-11.15-11.43s4-12.23,10.64-12.23c7.4,0,9.36,6.51,9.36,10.68a14.82,14.82,0,0,1-.14,1.92Zm12.08-3c.05-2.62-1.07-6.7-5.71-6.7-4.17,0-6,3.85-6.33,6.7Z"/><path class="cls-1" d="M193.93,33.26l-.33-2.86h-.14a8.45,8.45,0,0,1-6.93,3.38c-4.59,0-6.94-3.24-6.94-6.52,0-5.48,4.88-8.47,13.64-8.43v-.47c0-1.87-.52-5.24-5.16-5.24a11.28,11.28,0,0,0-5.9,1.68l-.94-2.71a14.07,14.07,0,0,1,7.45-2c6.93,0,8.62,4.73,8.62,9.28v8.48a31,31,0,0,0,.38,5.43Zm-.61-11.57c-4.5-.09-9.6.7-9.6,5.11a3.64,3.64,0,0,0,3.88,3.93,5.62,5.62,0,0,0,5.48-3.79,4.09,4.09,0,0,0,.24-1.32Z"/><path class="cls-1" d="M204,0h4.12V33.26H204Z"/><path class="cls-1" d="M219.6,4.22a2.55,2.55,0,0,1-5.1,0,2.5,2.5,0,0,1,2.57-2.58A2.44,2.44,0,0,1,219.6,4.22Zm-4.59,29V10.59h4.12V33.26Z"/><path class="cls-1" d="M245,27.08c0,2.34,0,4.4.18,6.18h-3.65l-.23-3.7h-.1a8.53,8.53,0,0,1-7.49,4.22c-3.56,0-7.83-2-7.83-9.94V10.59H230V23.14c0,4.31,1.31,7.22,5,7.22a6,6,0,0,0,5.44-3.75,6.14,6.14,0,0,0,.37-2.11V10.59H245Z"/><path class="cls-1" d="M251.79,16.72c0-2.34,0-4.26-.19-6.13h3.61l.18,3.65h.15a7.81,7.81,0,0,1,7.12-4.17,6.7,6.7,0,0,1,6.41,4.55h.1a9.18,9.18,0,0,1,2.53-2.95,7.67,7.67,0,0,1,5-1.6c3,0,7.45,2,7.45,9.84V33.26h-4V20.42c0-4.35-1.59-7-4.92-7a5.33,5.33,0,0,0-4.87,3.74,6.69,6.69,0,0,0-.33,2.06v14h-4V19.68c0-3.61-1.59-6.23-4.73-6.23a5.64,5.64,0,0,0-5.11,4.12,5.77,5.77,0,0,0-.32,2V33.26h-4Z"/><path class="cls-1" d="M138,81.05a19.25,19.25,0,0,0,8.2,2c2.9,0,4.31-1,4.31-2.58s-1.41-2.44-5-3.65c-5.34-1.88-8.85-4.83-8.85-9.51,0-5.58,4.68-9.89,12.65-9.89A20.39,20.39,0,0,1,157.9,59l-1.78,6.75a16.49,16.49,0,0,0-6.89-1.5c-2.57,0-4,.93-4,2.34,0,1.59,1.69,2.25,5.67,3.75,5.67,2.06,8.25,5.1,8.25,9.51,0,5.43-4.27,10.07-13.5,10.07A22.47,22.47,0,0,1,136.4,88Z"/><path class="cls-1" d="M186.15,81.61c0,3.28.09,5.9.19,7.87h-7.26l-.38-3h-.19a8,8,0,0,1-7,3.56c-5.15,0-8.15-3.33-8.15-10V66.43h8.44V78.66c0,3,1,4.54,3,4.54a2.79,2.79,0,0,0,2.71-2,2.45,2.45,0,0,0,.24-1.22V66.43h8.43Z"/><path class="cls-1" d="M191.45,74.26c0-3.05-.1-5.67-.19-7.83h7.26l.37,2.91h.1a9,9,0,0,1,7.45-3.42c4.82,0,9.51,4.26,9.51,11.76,0,8.43-5.49,12.32-10.5,12.32A6.83,6.83,0,0,1,200,87.79h-.09v11h-8.43Zm8.43,5.15a6.09,6.09,0,0,0,.14,1.4,3.42,3.42,0,0,0,3.28,2.77c2.53,0,4.07-2.2,4.07-5.53s-1.31-5.57-4-5.57a3.59,3.59,0,0,0-3.42,3,4.22,4.22,0,0,0-.09,1.08Z"/><path class="cls-1" d="M220,74.26c0-3.05-.09-5.67-.18-7.83h7.26l.37,2.91h.1A9,9,0,0,1,235,65.92c4.83,0,9.51,4.26,9.51,11.76C244.52,86.11,239,90,234,90a6.83,6.83,0,0,1-5.48-2.21h-.09v11H220Zm8.44,5.15a6.09,6.09,0,0,0,.14,1.4,3.41,3.41,0,0,0,3.28,2.77c2.53,0,4.07-2.2,4.07-5.53s-1.31-5.57-4-5.57a3.59,3.59,0,0,0-3.42,3,4.22,4.22,0,0,0-.09,1.08Z"/><path class="cls-1" d="M272.31,77.72c0,8.39-6,12.28-12.47,12.28-6.88,0-12.22-4.41-12.22-11.9,0-7.31,4.82-12.18,12.69-12.18C267.53,65.92,272.31,70.79,272.31,77.72Zm-16,.24c0,3.42,1.13,6.09,3.75,6.09,2.25,0,3.51-2.39,3.51-6.09,0-3.19-1-6.09-3.56-6.09C257.27,71.87,256.33,74.91,256.33,78Z"/><path class="cls-1" d="M276.38,74.21c0-3.66-.09-5.86-.18-7.78h7.21l.28,4.17h.19A6.62,6.62,0,0,1,290,65.92a6.35,6.35,0,0,1,1.69.14V74a9.18,9.18,0,0,0-2.15-.23c-2.49,0-4.17,1-4.59,2.9a6.4,6.4,0,0,0-.14,1.46V89.48h-8.44Z"/><path class="cls-1" d="M305.43,59.88v6.55h4.78v6.19h-4.78v6.6c0,2.77.65,3.89,2.67,3.89a9.57,9.57,0,0,0,2-.19v6.42a17.64,17.64,0,0,1-5,.61,8.16,8.16,0,0,1-5.76-2.06c-1.41-1.41-2.16-3.7-2.16-7.22v-8h-2.85V66.43h2.85V61.75Z"/><path class="cls-1" d="M323.7,58.33a69.49,69.49,0,0,1,10.07-.66c6,0,9.84,1,13,3.14,3.46,2.39,5.71,6.33,5.71,12.13,0,6.42-2.43,10.59-5.52,13-3.47,2.72-8.62,3.89-14.81,3.89a53,53,0,0,1-8.43-.52Zm8.48,24.83a10.9,10.9,0,0,0,1.78.09c5.48.09,9.51-3,9.51-10.07,0-6.14-3.66-9-8.71-9a12.29,12.29,0,0,0-2.58.19Z"/><path class="cls-1" d="M363.38,80.91c.28,1.82,2.95,2.86,5.9,2.86a20.62,20.62,0,0,0,6.33-.89l1.08,5.62A23,23,0,0,1,368.07,90c-8.11,0-12.7-4.45-12.7-11.76,0-5.39,3.47-12.27,11.95-12.27,7.44,0,10.63,5.48,10.63,11.8a14.6,14.6,0,0,1-.33,3.19Zm6.79-5.72c0-1.31-.6-3.74-3.28-3.74-2.48,0-3.46,2.29-3.6,3.74Z"/><path class="cls-1" d="M382,82.41a15.3,15.3,0,0,0,6.42,1.73c1.78,0,2.48-.42,2.48-1.26s-.51-1.22-3-2c-5.05-1.59-6.79-4.36-6.74-7,0-4.59,3.89-7.91,9.93-7.91A17.3,17.3,0,0,1,398,67.23l-1.36,5.71a13.46,13.46,0,0,0-5.11-1.26c-1.45,0-2.29.37-2.29,1.31,0,.75.75,1.22,3.46,2.11,4.55,1.5,6.28,3.84,6.33,7.17,0,4.4-3.42,7.68-10.54,7.68a18.18,18.18,0,0,1-7.87-1.59Z"/><path class="cls-1" d="M411.36,75.8h.09c.51-1,1-2,1.5-2.81l3.79-6.56h10.07l-8,9.28L428,89.48H417.58L413,80.67l-1.68,2.25v6.56h-8.44V56.22h8.44Z"/></g></g></svg>