<svg xmlns="http://www.w3.org/2000/svg" viewBox="0 0 171.4 39.1"><g fill="#FFF"><path d="M24.8 20.3c0-2.4-2.1-4.4-4.5-4.3-2.4 0-4.3 2-4.3 4.4 0 2.4 2.1 4.4 4.5 4.3 2.5 0 4.4-2 4.3-4.4M11.6 23.9c1.4-.8 3.4 0 4.6 2 1.2 1.9 1.1 4.2-.3 5-1.4.8-3.4 0-4.7-2-1.1-1.9-1-4.2.4-5M7.4 28.8c1.2-.5 2.7.6 3.5 2.5.8 1.9.5 3.8-.7 4.3s-2.7-.6-3.5-2.5c-.8-1.9-.5-3.8.7-4.3M3.5 32.6c.8-.3 2 .9 2.7 2.7.7 1.8.5 3.5-.3 3.8-.8.3-2-.9-2.7-2.7-.6-1.8-.5-3.5.3-3.8M14.9 8.9c1.5.5 2.3 2.6 1.6 4.8-.6 2.2-2.4 3.6-4 3.1s-2.3-2.6-1.7-4.8c.8-2.2 2.6-3.6 4.1-3.1M9.3 3.9c1.2.3 1.8 2.1 1.3 4.1-.5 2-1.9 3.3-3.2 2.9-1.2-.3-1.8-2.2-1.2-4.1.5-2 1.9-3.3 3.1-2.9M5.1 0c.9.2 1.2 1.8.8 3.7-.4 1.9-1.4 3.2-2.3 3-.8-.1-1.2-1.8-.8-3.6C3.2 1.2 4.2-.2 5.1 0M11 19.7c0-1.9-1.1-3.4-2.5-3.4-1.3 0-2.4 1.6-2.4 3.5s1.1 3.4 2.5 3.4 2.5-1.6 2.4-3.5M3 25.4c-.3-1.7.3-3.3 1.3-3.5 1.1-.2 2.1 1.1 2.5 2.8.3 1.8-.3 3.3-1.3 3.5-1.1.3-2.2-1-2.5-2.8M3.3 28.9c-.5-1.6-1.4-2.6-2.2-2.4-.7.2-1 1.7-.5 3.2.4 1.5 1.4 2.6 2.1 2.4.8-.2 1-1.6.6-3.2M6.5 14c0-1.7-.9-3.1-1.9-3.1-1 0-1.8 1.4-1.7 3.1 0 1.7.9 3.1 1.9 3.1 1 0 1.8-1.4 1.7-3.1M2.9 9.4c0-1.5-.7-2.8-1.5-2.7C.6 6.7 0 8 0 9.5c0 1.5.7 2.8 1.5 2.7.8 0 1.5-1.2 1.4-2.8M49.1 15.3h-7.2v12.3h-4V15.3h-7V12h18.2M68.3 27.6H52.9V12h15.4v3.3H56.9v2.9H67v3.2H56.9v3h11.4M92.1 27.6h-4.2l-1.5-3.2h-9.5l-1.6 3.2h-4.1l8-15.6h4.9l8 15.6zm-7.2-6l-3.3-6.3-3.3 6.3h6.6zM108.7 27.6H94.6V12h4v12.2h10.1M112 12h4v15.6h-4zM139 21.1c0 5.2-2.4 6.8-9.6 6.8-7.1 0-9.4-1.4-9.4-6.8V12h3.9v8.8c0 3.3 1.9 3.7 5.5 3.7 3.3 0 5.7-.6 5.7-3.7V12h3.9v9.1zM168 27.6h-4.3l-1.9-12.1-4.9 12.1h-4.5l-4.8-12.1-1.9 12.1h-4.1l2.7-15.6h5.9l4.4 11.4 4.7-11.4h5.9M171.4 11.5c0 .9-.7 1.6-1.6 1.6-.9 0-1.6-.7-1.6-1.6 0-.9.7-1.5 1.6-1.5.9 0 1.6.7 1.6 1.5m-2.8 0c0 .7.5 1.2 1.2 1.2s1.2-.5 1.2-1.2-.5-1.2-1.2-1.2-1.2.5-1.2 1.2m1 .8h-.4v-1.5h.6c.3 0 .4 0 .5.1.1.1.2.2.2.3 0 .2-.1.3-.3.4.2.1.2.2.3.4 0 .2.1.3.1.4h-.4c0-.1-.1-.2-.1-.4s-.1-.2-.3-.2h-.2v.5zm0-.8h.2c.2 0 .4-.1.4-.2s-.1-.2-.3-.2h-.2v.4z"/></g></svg>