<?xml version="1.0" encoding="utf-8"?>
<!-- Generator: Adobe Illustrator 22.1.0, SVG Export Plug-In . SVG Version: 6.00 Build 0)  -->
<svg version="1.1" id="Layer_1" xmlns="http://www.w3.org/2000/svg" xmlns:xlink="http://www.w3.org/1999/xlink" x="0px" y="0px"
	 viewBox="0 0 469.5 107.2" style="enable-background:new 0 0 469.5 107.2;" xml:space="preserve">
<style type="text/css">
	.st0{fill:#FFFFFF;}
	.xxx{fill:#007DC2;}
</style>
<g>
	<rect y="76.3" class="st0" width="88" height="26.1"/>
	<rect x="0" y="6.7" class="st0" width="60.1" height="26.1"/>
	<rect y="41.5" class="st0" width="88" height="26.1"/>
	<g>
		<g>
			<path class="st0" d="M144.1,11.1h-9.6V7.6h23.4v3.5h-9.6v28.1h-4.1V11.1z"/>
			<path class="st0" d="M160.2,28.6c0.1,5.6,3.7,7.9,7.8,7.9c3,0,4.7-0.5,6.3-1.2l0.7,3c-1.5,0.7-3.9,1.4-7.5,1.4
				c-7,0-11.1-4.6-11.1-11.4c0-6.8,4-12.2,10.6-12.2c7.4,0,9.4,6.5,9.4,10.7c0,0.8-0.1,1.5-0.1,1.9H160.2z M172.3,25.7
				c0-2.6-1.1-6.7-5.7-6.7c-4.2,0-6,3.8-6.3,6.7H172.3z"/>
			<path class="st0" d="M193.9,39.2l-0.3-2.9h-0.1c-1.3,1.8-3.7,3.4-6.9,3.4c-4.6,0-6.9-3.2-6.9-6.5c0-5.5,4.9-8.5,13.6-8.4v-0.5
				c0-1.9-0.5-5.2-5.2-5.2c-2.1,0-4.3,0.7-5.9,1.7l-0.9-2.7c1.9-1.2,4.6-2,7.4-2c6.9,0,8.6,4.7,8.6,9.3v8.5c0,2,0.1,3.9,0.4,5.4
				H193.9z M193.3,27.6c-4.5-0.1-9.6,0.7-9.6,5.1c0,2.7,1.8,3.9,3.9,3.9c3,0,4.8-1.9,5.5-3.8c0.1-0.4,0.2-0.9,0.2-1.3V27.6z"/>
			<path class="st0" d="M204,6h4.1v33.3H204V6z"/>
			<path class="st0" d="M219.6,10.2c0,1.4-1,2.5-2.6,2.5c-1.5,0-2.5-1.1-2.5-2.5c0-1.5,1.1-2.6,2.6-2.6
				C218.6,7.6,219.6,8.7,219.6,10.2z M215,39.2V16.5h4.1v22.7H215z"/>
			<path class="st0" d="M244.9,33c0,2.3,0,4.4,0.2,6.2h-3.7l-0.2-3.7h-0.1c-1.1,1.8-3.5,4.2-7.5,4.2c-3.6,0-7.8-2-7.8-9.9V16.5h4.1
				v12.6c0,4.3,1.3,7.2,5.1,7.2c2.8,0,4.7-1.9,5.4-3.7c0.2-0.6,0.4-1.4,0.4-2.1V16.5h4.1V33z"/>
			<path class="st0" d="M251.8,22.7c0-2.3,0-4.3-0.2-6.1h3.6l0.2,3.7h0.1c1.3-2.2,3.4-4.2,7.1-4.2c3.1,0,5.4,1.9,6.4,4.5h0.1
				c0.7-1.3,1.6-2.2,2.5-3c1.4-1,2.9-1.6,5-1.6c3,0,7.4,2,7.4,9.8v13.4h-4V26.4c0-4.4-1.6-7-4.9-7c-2.3,0-4.2,1.7-4.9,3.7
				c-0.2,0.6-0.3,1.3-0.3,2.1v14h-4V25.6c0-3.6-1.6-6.2-4.7-6.2c-2.6,0-4.5,2.1-5.1,4.1c-0.2,0.6-0.3,1.3-0.3,2v13.7h-4V22.7z"/>
			<path class="st0" d="M137.4,64.3c2.7-0.4,6.3-0.7,10.1-0.7c6,0,9.8,1,13,3.1c3.5,2.4,5.7,6.3,5.7,12.1c0,6.4-2.4,10.6-5.5,13
				c-3.5,2.7-8.6,3.9-14.8,3.9c-4.1,0-6.8-0.3-8.4-0.6V64.3z M145.9,89.1c0.4,0.1,1.2,0.1,1.8,0.1c5.5,0.1,9.5-3,9.5-10.1
				c0-6.1-3.7-9-8.7-9c-1.4,0-2.2,0.1-2.6,0.2V89.1z"/>
			<path class="st0" d="M177.1,86.9c0.3,1.8,3,2.9,5.9,2.9c2.2,0,4.3-0.2,6.3-0.9l1.1,5.6c-2.8,1.1-5.8,1.5-8.6,1.5
				c-8.1,0-12.7-4.5-12.7-11.8c0-5.4,3.5-12.3,11.9-12.3c7.4,0,10.6,5.5,10.6,11.8c0,1.4-0.2,2.6-0.3,3.2H177.1z M183.9,81.1
				c0-1.3-0.6-3.7-3.3-3.7c-2.5,0-3.5,2.3-3.6,3.7H183.9z"/>
			<path class="st0" d="M202.1,72.4l2.5,9.8c0.5,1.8,0.8,3.6,1.1,5.4h0.1c0.3-1.9,0.6-3.5,1-5.4l2.3-9.8h8.9l-8.4,23h-8.5l-8.2-23
				H202.1z"/>
			<path class="st0" d="M227,86.9c0.3,1.8,3,2.9,5.9,2.9c2.2,0,4.3-0.2,6.3-0.9l1.1,5.6c-2.8,1.1-5.8,1.5-8.6,1.5
				c-8.1,0-12.7-4.5-12.7-11.8c0-5.4,3.5-12.3,11.9-12.3c7.4,0,10.6,5.5,10.6,11.8c0,1.4-0.2,2.6-0.3,3.2H227z M233.8,81.1
				c0-1.3-0.6-3.7-3.3-3.7c-2.5,0-3.5,2.3-3.6,3.7H233.8z"/>
			<path class="st0" d="M245.4,62.2h8.4v33.3h-8.4V62.2z"/>
			<path class="st0" d="M282.6,83.7c0,8.4-6,12.3-12.5,12.3c-6.9,0-12.2-4.4-12.2-11.9c0-7.3,4.8-12.2,12.7-12.2
				C277.8,71.9,282.6,76.7,282.6,83.7z M266.6,83.9c0,3.4,1.1,6.1,3.7,6.1c2.2,0,3.5-2.4,3.5-6.1c0-3.2-1-6.1-3.6-6.1
				C267.6,77.8,266.6,80.9,266.6,83.9z"/>
			<path class="st0" d="M286.7,80.2c0-3-0.1-5.7-0.2-7.8h7.3l0.4,2.9h0.1c1.7-2.2,4.3-3.4,7.4-3.4c4.8,0,9.5,4.3,9.5,11.8
				c0,8.4-5.5,12.3-10.5,12.3c-2.6,0-4.6-1-5.5-2.2h-0.1v11h-8.4V80.2z M295.1,85.4c0,0.5,0,1,0.1,1.4c0.3,1.5,1.6,2.8,3.3,2.8
				c2.5,0,4.1-2.2,4.1-5.5c0-3.2-1.3-5.6-4-5.6c-1.7,0-3.1,1.4-3.4,3c-0.1,0.3-0.1,0.7-0.1,1.1V85.4z"/>
			<path class="st0" d="M322.3,86.9c0.3,1.8,3,2.9,5.9,2.9c2.2,0,4.3-0.2,6.3-0.9l1.1,5.6c-2.8,1.1-5.8,1.5-8.6,1.5
				c-8.1,0-12.7-4.5-12.7-11.8c0-5.4,3.5-12.3,11.9-12.3c7.4,0,10.6,5.5,10.6,11.8c0,1.4-0.2,2.6-0.3,3.2H322.3z M329.1,81.1
				c0-1.3-0.6-3.7-3.3-3.7c-2.5,0-3.5,2.3-3.6,3.7H329.1z"/>
			<path class="st0" d="M340.7,80.2c0-3.7-0.1-5.9-0.2-7.8h7.2l0.3,4.2h0.2c1.2-3.5,4.2-4.7,6.1-4.7c0.8,0,1.1,0,1.7,0.1v7.9
				c-0.6-0.1-1.3-0.2-2.2-0.2c-2.5,0-4.2,1-4.6,2.9c-0.1,0.4-0.1,0.9-0.1,1.5v11.4h-8.4V80.2z"/>
			<path class="st0" d="M369.1,64.3c2.7-0.4,6.3-0.7,10.1-0.7c6,0,9.8,1,13,3.1c3.5,2.4,5.7,6.3,5.7,12.1c0,6.4-2.4,10.6-5.5,13
				c-3.5,2.7-8.6,3.9-14.8,3.9c-4.1,0-6.8-0.3-8.4-0.6V64.3z M377.6,89.1c0.4,0.1,1.2,0.1,1.8,0.1c5.5,0.1,9.5-3,9.5-10.1
				c0-6.1-3.7-9-8.7-9c-1.4,0-2.2,0.1-2.6,0.2V89.1z"/>
			<path class="st0" d="M425.5,83.7c0,8.4-6,12.3-12.5,12.3c-6.9,0-12.2-4.4-12.2-11.9c0-7.3,4.8-12.2,12.7-12.2
				C420.7,71.9,425.5,76.7,425.5,83.7z M409.5,83.9c0,3.4,1.1,6.1,3.7,6.1c2.2,0,3.5-2.4,3.5-6.1c0-3.2-1-6.1-3.6-6.1
				C410.5,77.8,409.5,80.9,409.5,83.9z"/>
			<path class="st0" d="M447.4,95c-1.4,0.6-3.8,1-6.4,1c-7.6,0-12.5-4.5-12.5-11.9c0-6.6,4.5-12.2,13.5-12.2c1.7,0,3.7,0.2,5.3,0.8
				l-1.2,6.2c-0.8-0.3-1.9-0.6-3.6-0.6c-3.2,0-5.4,2.2-5.4,5.5c0,3.7,2.6,5.5,5.6,5.5c1.5,0,2.7-0.1,3.7-0.6L447.4,95z"/>
			<path class="st0" d="M451.1,88.4c1.3,0.8,4.3,1.7,6.4,1.7c1.8,0,2.5-0.4,2.5-1.3s-0.5-1.2-3-2c-5.1-1.6-6.8-4.4-6.7-7
				c0-4.6,3.9-7.9,9.9-7.9c2.9,0,5.4,0.6,6.9,1.3l-1.4,5.7c-1.1-0.5-3.2-1.3-5.1-1.3c-1.5,0-2.3,0.4-2.3,1.3c0,0.8,0.8,1.2,3.5,2.1
				c4.5,1.5,6.3,3.8,6.3,7.2c0,4.4-3.4,7.7-10.5,7.7c-3.2,0-6-0.7-7.9-1.6L451.1,88.4z"/>
		</g>
	</g>
</g>
</svg>
