<svg width="235" height="42" viewBox="0 0 235 42" fill="none" xmlns="http://www.w3.org/2000/svg">
<path d="M26.435 21.3888C26.3744 18.8337 24.2524 16.7896 21.6756 16.8197C19.0685 16.8798 17.0071 18.984 17.0677 21.5391C17.1283 24.0942 19.2504 26.1383 21.8272 26.1082C24.4039 26.0781 26.4654 23.9439 26.435 21.3888Z" fill="#0AB7C9"/>
<path d="M12.341 25.2055C13.7961 24.3037 16.0091 25.2356 17.2824 27.2797C18.5556 29.3238 18.404 31.6985 16.9489 32.6003C15.4938 33.5021 13.2808 32.5702 12.0076 30.5262C10.7343 28.452 10.9162 26.0773 12.341 25.2055Z" fill="#0AB7C9"/>
<path d="M7.8531 30.4068C9.09601 29.8958 10.7633 31.0982 11.5818 33.0521C12.4003 35.036 12.0669 37.05 10.824 37.5611C9.58105 38.0721 7.91373 36.8997 7.09522 34.9158C6.27672 32.9318 6.6405 30.9178 7.8531 30.4068Z" fill="#0AB7C9"/>
<path d="M3.79094 34.4042C4.63976 34.0735 5.91299 35.336 6.64055 37.2298C7.33779 39.1236 7.21653 40.8971 6.36771 41.1977C5.51889 41.5284 4.21535 40.2659 3.5181 38.3721C2.79054 36.4783 2.9118 34.7048 3.79094 34.4042Z" fill="#0AB7C9"/>
<path d="M15.8865 9.36448C17.5235 9.84544 18.3117 12.0999 17.6447 14.3845C16.9778 16.6991 15.068 18.1721 13.4309 17.6911C11.7939 17.2101 11.0058 14.9556 11.6727 12.641C12.3396 10.3565 14.2495 8.88352 15.8865 9.36448Z" fill="#0AB7C9"/>
<path d="M9.91231 4.07384C11.2159 4.43455 11.7918 6.38845 11.2159 8.43253C10.6399 10.5067 9.15444 11.8894 7.85089 11.5287C6.54735 11.168 5.97137 9.24415 6.54735 7.13995C7.12333 5.09587 8.63908 3.71312 9.91231 4.07384Z" fill="#0AB7C9"/>
<path d="M5.39674 0.0155042C6.30619 0.195864 6.70029 1.93934 6.27588 3.9233C5.85147 5.8772 4.79044 7.32008 3.88099 7.13972C3.00186 6.95936 2.57745 5.21588 3.00186 3.23192C3.45658 1.24796 4.51761 -0.164856 5.39674 0.0155042Z" fill="#0AB7C9"/>
<path d="M9.25451 24.4531C10.6773 24.4269 11.8003 22.7776 11.7626 20.7692C11.725 18.7608 10.5411 17.1539 9.11825 17.1801C7.69542 17.2063 6.5725 18.8557 6.61012 20.8641C6.64775 22.8725 7.83168 24.4794 9.25451 24.4531Z" fill="#24D6E0"/>
<path d="M3.24388 26.8291C2.91042 24.9954 3.54703 23.3421 4.66869 23.1317C5.79034 22.9513 6.94231 24.274 7.27577 26.1377C7.60924 27.9713 6.97262 29.6246 5.85097 29.8351C4.72932 30.0154 3.54703 28.6627 3.24388 26.8291Z" fill="#24D6E0"/>
<path d="M3.45731 30.4669C2.97227 28.8136 1.94156 27.6714 1.15337 27.9118C0.36518 28.1523 0.0923451 29.6553 0.577385 31.3086C1.06242 32.9619 2.09313 34.1042 2.88132 33.8637C3.69983 33.6533 3.94235 32.1202 3.45731 30.4669Z" fill="#24D6E0"/>
<path d="M6.94457 14.7753C6.91425 12.9717 6.0048 11.4987 4.94378 11.5288C3.88276 11.5588 3.06425 13.0318 3.09457 14.8354C3.12488 16.639 4.00401 18.0818 5.06504 18.0818C6.15638 18.0518 7.0052 16.5789 6.94457 14.7753Z" fill="#24D6E0"/>
<path d="M3.1234 9.9351C3.09308 8.31186 2.36552 7.01928 1.5167 7.04934C0.667882 7.0794 -0.0293624 8.40204 0.000952617 9.99522C0.0312676 11.6185 0.758827 12.911 1.60765 12.881C2.48678 12.881 3.15371 11.5583 3.1234 9.9351Z" fill="#24D6E0"/>
<path d="M67.7478 41.7032C72.9206 41.7032 76.6579 38.5599 76.6579 33.4366C76.6579 28.3133 72.9206 25.1947 67.723 25.1947H60.793V41.7032H67.7478ZM67.723 37.9906H65.05V28.9073H67.7478C70.7673 28.9073 72.3019 30.8873 72.3019 33.4366C72.3019 35.8868 70.6188 37.9906 67.723 37.9906Z" fill="#0AB7C9"/>
<path d="M84.3939 42.0002C88.5025 42.0002 90.928 39.0796 90.928 35.7136C90.928 32.3476 88.5025 29.4518 84.3939 29.4518C80.3349 29.4518 77.9093 32.3476 77.9093 35.7136C77.9093 39.0796 80.3349 42.0002 84.3939 42.0002ZM84.3939 38.6341C82.7604 38.6341 81.8199 37.3224 81.8199 35.7136C81.8199 34.1296 82.7604 32.8178 84.3939 32.8178C86.0769 32.8178 87.0174 34.1296 87.0174 35.7136C87.0174 37.3224 86.0769 38.6341 84.3939 38.6341Z" fill="#0AB7C9"/>
<path d="M98.6791 42.0002C101.278 42.0002 102.862 40.8369 103.58 39.7974L101.105 37.4709C100.634 38.1391 99.8671 38.6341 98.8523 38.6341C97.2683 38.6341 96.0556 37.5204 96.0556 35.7136C96.0556 33.9068 97.2683 32.8178 98.8523 32.8178C99.8671 32.8178 100.634 33.2633 101.105 33.9563L103.58 31.6545C102.862 30.5903 101.278 29.4518 98.6791 29.4518C94.9418 29.4518 92.1698 31.9763 92.1698 35.7136C92.1698 39.4509 94.9418 42.0002 98.6791 42.0002Z" fill="#0AB7C9"/>
<path d="M117.192 41.7032V29.7488H113.381V37.4709C112.935 38.0401 112.193 38.6341 111.104 38.6341C109.866 38.6341 109.124 38.1391 109.124 36.6789V29.7488H105.312V38.2629C105.312 40.4409 106.55 42.0002 109.247 42.0002C111.277 42.0002 112.638 41.1092 113.381 40.2676V41.7032H117.192Z" fill="#0AB7C9"/>
<path d="M138.819 41.7032V33.0406C138.819 30.5903 137.433 29.4518 135.23 29.4518C133.349 29.4518 131.79 30.5408 131.097 31.5803C130.602 30.1695 129.439 29.4518 127.706 29.4518C125.825 29.4518 124.291 30.516 123.771 31.209V29.7488H119.959V41.7032H123.771V33.9811C124.167 33.4861 124.885 32.8178 125.924 32.8178C127.063 32.8178 127.483 33.5108 127.483 34.4266V41.7032H131.295V33.9811C131.666 33.4861 132.409 32.8178 133.448 32.8178C134.587 32.8178 135.032 33.5108 135.032 34.4266V41.7032H138.819Z" fill="#0AB7C9"/>
<path d="M147.358 42.0002C149.189 42.0002 151.169 41.4804 152.357 40.4161L150.699 37.9164C150.006 38.5599 148.62 38.9311 147.779 38.9311C146.046 38.9311 145.056 38.0401 144.784 36.9759H153.298V36.1096C153.298 32.0506 150.724 29.4518 147.185 29.4518C143.447 29.4518 140.849 32.2486 140.849 35.7136C140.849 39.5994 143.67 42.0002 147.358 42.0002ZM149.66 34.3771H144.734C144.883 33.5108 145.526 32.5208 147.185 32.5208C148.942 32.5208 149.561 33.5356 149.66 34.3771Z" fill="#0AB7C9"/>
<path d="M167.08 41.7032V33.2386C167.08 31.0358 165.843 29.4518 163.145 29.4518C161.115 29.4518 159.705 30.3675 158.987 31.209V29.7488H155.175V41.7032H158.987V33.9811C159.432 33.4366 160.175 32.8178 161.313 32.8178C162.501 32.8178 163.269 33.3376 163.269 34.7978V41.7032H167.08Z" fill="#0AB7C9"/>
<path d="M174.376 42.0002C175.787 42.0002 176.727 41.6537 177.197 41.2082L176.455 38.3371C176.331 38.4856 175.91 38.6341 175.49 38.6341C174.846 38.6341 174.45 38.1144 174.45 37.4214V33.0406H176.876V29.7488H174.45V26.4817H170.639V29.7488H168.659V33.0406H170.639V38.4856C170.639 40.7874 171.95 42.0002 174.376 42.0002Z" fill="#0AB7C9"/>
<path d="M189.631 41.7032V34.2286C189.631 30.516 186.933 29.4518 184.062 29.4518C182.23 29.4518 180.176 29.9963 178.642 31.308L180.052 33.9563C181.018 33.1396 182.206 32.6693 183.394 32.6693C184.928 32.6693 185.819 33.3871 185.819 34.4266V35.6146C185.101 34.7236 183.691 34.2038 182.107 34.2038C180.275 34.2038 177.998 35.1691 177.998 38.0649C177.998 40.7379 180.275 42.0002 182.107 42.0002C183.641 42.0002 185.077 41.4062 185.819 40.5152V41.7032H189.631ZM183.691 39.5004C182.701 39.5004 181.785 39.0549 181.785 38.1144C181.785 37.1739 182.701 36.7284 183.691 36.7284C184.532 36.7284 185.423 37.0006 185.819 37.5699V38.6341C185.423 39.2034 184.532 39.5004 183.691 39.5004Z" fill="#0AB7C9"/>
<path d="M196.927 42.0002C198.337 42.0002 199.278 41.6537 199.748 41.2082L199.006 38.3371C198.882 38.4856 198.461 38.6341 198.04 38.6341C197.397 38.6341 197.001 38.1144 197.001 37.4214V33.0406H199.426V29.7488H197.001V26.4817H193.189V29.7488H191.209V33.0406H193.189V38.4856C193.189 40.7874 194.501 42.0002 196.927 42.0002Z" fill="#0AB7C9"/>
<path d="M203.222 28.6845C204.435 28.6845 205.425 27.6945 205.425 26.4817C205.425 25.269 204.435 24.3037 203.222 24.3037C202.009 24.3037 201.044 25.269 201.044 26.4817C201.044 27.6945 202.009 28.6845 203.222 28.6845ZM205.128 41.7032V29.7488H201.316V41.7032H205.128Z" fill="#0AB7C9"/>
<path d="M213.608 42.0002C217.716 42.0002 220.142 39.0796 220.142 35.7136C220.142 32.3476 217.716 29.4518 213.608 29.4518C209.549 29.4518 207.123 32.3476 207.123 35.7136C207.123 39.0796 209.549 42.0002 213.608 42.0002ZM213.608 38.6341C211.974 38.6341 211.034 37.3224 211.034 35.7136C211.034 34.1296 211.974 32.8178 213.608 32.8178C215.291 32.8178 216.231 34.1296 216.231 35.7136C216.231 37.3224 215.291 38.6341 213.608 38.6341Z" fill="#0AB7C9"/>
<path d="M234.056 41.7032V33.2386C234.056 31.0358 232.818 29.4518 230.121 29.4518C228.091 29.4518 226.68 30.3675 225.962 31.209V29.7488H222.151V41.7032H225.962V33.9811C226.408 33.4366 227.15 32.8178 228.289 32.8178C229.477 32.8178 230.244 33.3376 230.244 34.7978V41.7032H234.056Z" fill="#0AB7C9"/>
<path d="M67.3762 16.8258V2.1489H72.6233V0.317383H60.0996V2.1489H65.3219V16.8258H67.3762Z" fill="#24D6E0"/>
<path d="M77.8475 17.1228C79.778 17.1228 81.3868 16.4546 82.5996 15.2666L81.7085 14.0538C80.7433 15.0438 79.382 15.5883 77.996 15.5883C75.422 15.5883 73.8627 13.7073 73.7142 11.455H83.3668V10.9848C83.3668 7.39597 81.2383 4.57443 77.6247 4.57443C74.2092 4.57443 71.7342 7.37122 71.7342 10.8363C71.7342 14.5735 74.2835 17.1228 77.8475 17.1228ZM81.5353 10.069H73.6894C73.7885 8.26223 75.0507 6.10895 77.6 6.10895C80.3225 6.10895 81.5105 8.31173 81.5353 10.069Z" fill="#24D6E0"/>
<path d="M95.7042 16.8258V8.60873C95.7042 5.71295 93.6252 4.57443 91.0759 4.57443C89.1207 4.57443 87.5862 5.21794 86.2991 6.55446L87.1654 7.84147C88.2297 6.67821 89.3929 6.1832 90.8284 6.1832C92.561 6.1832 93.848 7.09896 93.848 8.68298V10.8363C92.8827 9.74724 91.5215 9.22749 89.8879 9.22749C87.8584 9.22749 85.7299 10.465 85.7299 13.1628C85.7299 15.7616 87.8832 17.1228 89.8879 17.1228C91.4967 17.1228 92.8827 16.5536 93.848 15.4646V16.8258H95.7042ZM90.5809 15.7863C88.8237 15.7863 87.6109 14.6973 87.6109 13.1628C87.6109 11.653 88.8237 10.564 90.5809 10.564C91.868 10.564 93.1302 11.059 93.848 12.0243V14.3013C93.1302 15.2913 91.868 15.7863 90.5809 15.7863Z" fill="#24D6E0"/>
<path d="M101.306 16.8258V0.317383H99.4495V16.8258H101.306Z" fill="#24D6E0"/>
<path d="M105.949 3.16367C106.642 3.16367 107.187 2.61916 107.187 1.92615C107.187 1.23314 106.642 0.663887 105.949 0.663887C105.256 0.663887 104.687 1.23314 104.687 1.92615C104.687 2.61916 105.256 3.16367 105.949 3.16367ZM106.865 16.8258V4.87144H105.009V16.8258H106.865Z" fill="#24D6E0"/>
<path d="M120.493 16.8258V4.87144H118.636V13.6578C117.943 14.6231 116.557 15.4646 115.122 15.4646C113.488 15.4646 112.424 14.8458 112.424 12.742V4.87144H110.568V13.3113C110.568 15.8853 111.88 17.1228 114.379 17.1228C116.161 17.1228 117.721 16.1823 118.636 15.1428V16.8258H120.493Z" fill="#24D6E0"/>
<path d="M140.485 16.8258V8.18798C140.485 5.7872 139.322 4.57443 137.144 4.57443C135.412 4.57443 133.803 5.71295 133.135 6.80196C132.788 5.56445 131.749 4.57443 129.942 4.57443C128.16 4.57443 126.576 5.8367 126.056 6.60396V4.87144H124.2V16.8258H126.056V8.08897C126.7 7.12371 127.987 6.2327 129.199 6.2327C130.783 6.2327 131.402 7.19796 131.402 8.70773V16.8258H133.258V8.06422C133.877 7.09896 135.189 6.2327 136.426 6.2327C137.986 6.2327 138.629 7.19796 138.629 8.70773V16.8258H140.485Z" fill="#24D6E0"/>
<path d="M41.7764 0H42.4639V42H41.7764V0Z" fill="#0AB7C9"/>
</svg>
