<svg width="186" height="31" viewBox="0 0 186 31" fill="none" xmlns="http://www.w3.org/2000/svg">
<path d="M19.2256 16.1277C19.1815 14.2308 17.6382 12.7133 15.7642 12.7356C13.8682 12.7802 12.369 14.3424 12.4131 16.2393C12.4572 18.1362 14.0004 19.6537 15.8744 19.6314C17.7484 19.6091 19.2476 18.0246 19.2256 16.1277Z" fill="#0AB7C9"/>
<path d="M8.9751 18.9616C10.0334 18.2921 11.6428 18.9839 12.5688 20.5015C13.4947 22.019 13.3845 23.782 12.3262 24.4515C11.268 25.121 9.65856 24.4292 8.73258 22.9116C7.80661 21.3718 7.93889 19.6088 8.9751 18.9616Z" fill="#0AB7C9"/>
<path d="M5.71098 22.8227C6.6149 22.4434 7.82749 23.336 8.42276 24.7866C9.01803 26.2595 8.77551 27.7547 7.87158 28.1341C6.96766 28.5135 5.75507 27.6431 5.1598 26.1702C4.56453 24.6973 4.8291 23.2021 5.71098 22.8227Z" fill="#0AB7C9"/>
<path d="M2.75686 25.791C3.37418 25.5455 4.30015 26.4828 4.82928 27.8888C5.33636 29.2947 5.24817 30.6114 4.63086 30.8346C4.01354 31.08 3.06552 30.1427 2.55844 28.7368C2.02931 27.3308 2.1175 26.0142 2.75686 25.791Z" fill="#0AB7C9"/>
<path d="M11.5534 7.20089C12.7439 7.55796 13.3172 9.2317 12.8321 10.9278C12.3471 12.6461 10.9581 13.7397 9.76759 13.3826C8.57705 13.0255 8.00383 11.3518 8.48886 9.6334C8.9739 7.93734 10.3629 6.84383 11.5534 7.20089Z" fill="#0AB7C9"/>
<path d="M7.2091 3.27345C8.15712 3.54125 8.57602 4.99183 8.15712 6.50935C7.73823 8.0492 6.65793 9.07576 5.70991 8.80796C4.76188 8.54017 4.34299 7.1119 4.76188 5.54974C5.18078 4.03221 6.28313 3.00565 7.2091 3.27345Z" fill="#0AB7C9"/>
<path d="M3.92488 0.260534C4.58629 0.394433 4.8729 1.6888 4.56424 3.16169C4.25559 4.61227 3.48394 5.68347 2.82253 5.54957C2.18317 5.41567 1.87451 4.12131 2.18317 2.64841C2.51387 1.17551 3.28552 0.126634 3.92488 0.260534Z" fill="#0AB7C9"/>
<path d="M6.73053 18.4029C7.7653 18.3834 8.58197 17.1589 8.5546 15.6679C8.52724 14.1768 7.66621 12.9839 6.63143 13.0033C5.59666 13.0228 4.78 14.2473 4.80736 15.7383C4.83473 17.2294 5.69576 18.4223 6.73053 18.4029Z" fill="#24D6E0"/>
<path d="M2.35936 20.1668C2.11685 18.8055 2.57983 17.5781 3.39557 17.4219C4.21131 17.288 5.0491 18.2699 5.29162 19.6535C5.53413 21.0149 5.07115 22.2423 4.25541 22.3985C3.43967 22.5324 2.57983 21.5281 2.35936 20.1668Z" fill="#24D6E0"/>
<path d="M2.5142 22.8674C2.16145 21.64 1.41185 20.792 0.83863 20.9705C0.265408 21.149 0.0669846 22.2649 0.419737 23.4923C0.772489 24.7197 1.52209 25.5677 2.09531 25.3892C2.69058 25.233 2.86695 24.0948 2.5142 22.8674Z" fill="#24D6E0"/>
<path d="M5.05056 11.2177C5.02852 9.87866 4.36711 8.78515 3.59546 8.80746C2.82382 8.82978 2.22855 9.92329 2.25059 11.2623C2.27264 12.6013 2.912 13.6725 3.68365 13.6725C4.47734 13.6502 5.09466 12.5567 5.05056 11.2177Z" fill="#24D6E0"/>
<path d="M2.27153 7.6252C2.24949 6.4201 1.72036 5.46049 1.10304 5.4828C0.485727 5.50512 -0.0213542 6.48705 0.000692804 7.66983C0.0227398 8.87493 0.551868 9.83454 1.16918 9.81222C1.80855 9.81222 2.29358 8.83029 2.27153 7.6252Z" fill="#24D6E0"/>
<path d="M37.965 12.1997H32.4312V21.8405H29.3446V12.1997H23.877V9.6333H37.965V12.1997Z" fill="#0AB7C9"/>
<path d="M52.846 21.8628H40.8965V9.6333H52.846V12.1997H43.9831V14.5206H51.8098V16.9531H43.9831V19.3633H52.846V21.8628Z" fill="#0AB7C9"/>
<path d="M71.2793 21.8629H67.9943L66.8038 19.3858H59.4621L58.2496 21.8629H55.0527L61.2259 9.65576H65.04L71.2793 21.8629ZM65.7014 17.1318L63.166 12.2222L60.5865 17.1318H65.7014Z" fill="#0AB7C9"/>
<path d="M84.1105 21.8628H73.1973V9.6333H76.2838V19.1625H84.1105V21.8628Z" fill="#0AB7C9"/>
<path d="M89.7311 21.8628H86.6445V9.6333H89.7311V21.8628Z" fill="#0AB7C9"/>
<path d="M107.522 16.7523C107.522 20.7916 105.648 22.0636 100.114 22.0636C94.5804 22.0636 92.8828 20.9701 92.8828 16.7523V9.6333H95.9032V16.5291C95.9032 19.1179 97.3804 19.3857 100.136 19.3857C102.716 19.3857 104.524 18.9393 104.524 16.5291V9.6333H107.544V16.7523H107.522Z" fill="#0AB7C9"/>
<path d="M129.923 21.8629H126.638L125.161 12.3784L121.391 21.8629H117.886L114.204 12.3784L112.683 21.8629H109.508L111.624 9.65576H116.188L119.605 18.6047L123.243 9.65576H127.763L129.923 21.8629Z" fill="#0AB7C9"/>
<path d="M141.685 22.249V9.64902H146.815C148.159 9.64902 149.335 9.91902 150.343 10.459C151.363 10.987 152.155 11.725 152.719 12.673C153.283 13.621 153.565 14.713 153.565 15.949C153.565 17.185 153.283 18.277 152.719 19.225C152.155 20.173 151.363 20.917 150.343 21.457C149.335 21.985 148.159 22.249 146.815 22.249H141.685ZM143.017 21.097H146.743C147.859 21.097 148.825 20.881 149.641 20.449C150.469 20.005 151.111 19.399 151.567 18.631C152.023 17.851 152.251 16.957 152.251 15.949C152.251 14.929 152.023 14.035 151.567 13.267C151.111 12.499 150.469 11.899 149.641 11.467C148.825 11.023 147.859 10.801 146.743 10.801H143.017V21.097ZM160.138 22.339C159.226 22.339 158.404 22.135 157.672 21.727C156.952 21.307 156.382 20.737 155.962 20.017C155.542 19.285 155.332 18.451 155.332 17.515C155.332 16.567 155.542 15.733 155.962 15.013C156.382 14.293 156.952 13.729 157.672 13.321C158.392 12.913 159.214 12.709 160.138 12.709C161.074 12.709 161.902 12.913 162.622 13.321C163.354 13.729 163.924 14.293 164.332 15.013C164.752 15.733 164.962 16.567 164.962 17.515C164.962 18.451 164.752 19.285 164.332 20.017C163.924 20.737 163.354 21.307 162.622 21.727C161.89 22.135 161.062 22.339 160.138 22.339ZM160.138 21.205C160.822 21.205 161.428 21.055 161.956 20.755C162.484 20.443 162.898 20.011 163.198 19.459C163.51 18.895 163.666 18.247 163.666 17.515C163.666 16.771 163.51 16.123 163.198 15.571C162.898 15.019 162.484 14.593 161.956 14.293C161.428 13.981 160.828 13.825 160.156 13.825C159.484 13.825 158.884 13.981 158.356 14.293C157.828 14.593 157.408 15.019 157.096 15.571C156.784 16.123 156.628 16.771 156.628 17.515C156.628 18.247 156.784 18.895 157.096 19.459C157.408 20.011 157.828 20.443 158.356 20.755C158.884 21.055 159.478 21.205 160.138 21.205ZM171.495 22.339C170.559 22.339 169.719 22.135 168.975 21.727C168.243 21.307 167.667 20.737 167.247 20.017C166.827 19.285 166.617 18.451 166.617 17.515C166.617 16.567 166.827 15.733 167.247 15.013C167.667 14.293 168.243 13.729 168.975 13.321C169.719 12.913 170.559 12.709 171.495 12.709C172.299 12.709 173.025 12.865 173.673 13.177C174.321 13.489 174.831 13.957 175.203 14.581L174.249 15.229C173.925 14.749 173.523 14.395 173.043 14.167C172.563 13.939 172.041 13.825 171.477 13.825C170.805 13.825 170.199 13.981 169.659 14.293C169.119 14.593 168.693 15.019 168.381 15.571C168.069 16.123 167.913 16.771 167.913 17.515C167.913 18.259 168.069 18.907 168.381 19.459C168.693 20.011 169.119 20.443 169.659 20.755C170.199 21.055 170.805 21.205 171.477 21.205C172.041 21.205 172.563 21.091 173.043 20.863C173.523 20.635 173.925 20.287 174.249 19.819L175.203 20.467C174.831 21.079 174.321 21.547 173.673 21.871C173.025 22.183 172.299 22.339 171.495 22.339ZM180.252 22.339C179.472 22.339 178.734 22.231 178.038 22.015C177.342 21.787 176.796 21.505 176.4 21.169L176.976 20.161C177.36 20.449 177.852 20.701 178.452 20.917C179.052 21.121 179.682 21.223 180.342 21.223C181.242 21.223 181.89 21.085 182.286 20.809C182.682 20.521 182.88 20.143 182.88 19.675C182.88 19.327 182.766 19.057 182.538 18.865C182.322 18.661 182.034 18.511 181.674 18.415C181.314 18.307 180.912 18.217 180.468 18.145C180.024 18.073 179.58 17.989 179.136 17.893C178.704 17.797 178.308 17.659 177.948 17.479C177.588 17.287 177.294 17.029 177.066 16.705C176.85 16.381 176.742 15.949 176.742 15.409C176.742 14.893 176.886 14.431 177.174 14.023C177.462 13.615 177.882 13.297 178.434 13.069C178.998 12.829 179.682 12.709 180.486 12.709C181.098 12.709 181.71 12.793 182.322 12.961C182.934 13.117 183.438 13.327 183.834 13.591L183.276 14.617C182.856 14.329 182.406 14.125 181.926 14.005C181.446 13.873 180.966 13.807 180.486 13.807C179.634 13.807 179.004 13.957 178.596 14.257C178.2 14.545 178.002 14.917 178.002 15.373C178.002 15.733 178.11 16.015 178.326 16.219C178.554 16.423 178.848 16.585 179.208 16.705C179.58 16.813 179.982 16.903 180.414 16.975C180.858 17.047 181.296 17.137 181.728 17.245C182.172 17.341 182.574 17.479 182.934 17.659C183.306 17.827 183.6 18.073 183.816 18.397C184.044 18.709 184.158 19.123 184.158 19.639C184.158 20.191 184.002 20.671 183.69 21.079C183.39 21.475 182.946 21.787 182.358 22.015C181.782 22.231 181.08 22.339 180.252 22.339Z" fill="black"/>
</svg>
