<svg width="142" height="42" viewBox="0 0 142 42" fill="none" xmlns="http://www.w3.org/2000/svg">
<path d="M26.7643 21.6545C26.703 19.0677 24.5545 16.9982 21.9457 17.0287C19.3063 17.0895 17.2192 19.2199 17.2806 21.8067C17.342 24.3936 19.4904 26.463 22.0992 26.4326C24.708 26.4022 26.795 24.2414 26.7643 21.6545Z" fill="black"/>
<path d="M12.4944 25.5189C13.9676 24.6059 16.2081 25.5493 17.4972 27.6188C18.7862 29.6883 18.6328 32.0925 17.1596 33.0055C15.6864 33.9186 13.4459 32.9751 12.1568 30.9056C10.8678 28.8057 11.0519 26.4015 12.4944 25.5189Z" fill="black"/>
<path d="M7.95001 30.7847C9.20837 30.2673 10.8964 31.4847 11.7251 33.4629C12.5538 35.4715 12.2161 37.5105 10.9578 38.0279C9.69943 38.5452 8.01139 37.3583 7.18272 35.3497C6.35405 33.3411 6.72234 31.3021 7.95001 30.7847Z" fill="black"/>
<path d="M3.83734 34.8326C4.69671 34.4978 5.98576 35.776 6.72236 37.6933C7.42826 39.6106 7.3055 41.4062 6.44613 41.7105C5.58676 42.0453 4.26702 40.7671 3.56112 38.8498C2.82452 36.9325 2.94728 35.1369 3.83734 34.8326Z" fill="black"/>
<path d="M16.0834 9.48134C17.7407 9.96827 18.5387 12.2508 17.8635 14.5637C17.1883 16.9071 15.2547 18.3983 13.5973 17.9114C11.94 17.4245 11.142 15.142 11.8172 12.7986C12.4924 10.4856 14.426 8.9944 16.0834 9.48134Z" fill="black"/>
<path d="M10.036 4.12484C11.3557 4.49004 11.9389 6.46822 11.3557 8.53769C10.7726 10.6376 9.26871 12.0375 7.94896 11.6723C6.62922 11.3071 6.04608 9.3594 6.62922 7.22905C7.21236 5.15958 8.74695 3.75964 10.036 4.12484Z" fill="black"/>
<path d="M5.46371 0.0161851C6.38446 0.198786 6.78346 1.96393 6.35377 3.97254C5.92409 5.95071 4.84988 7.41152 3.92913 7.22892C3.03907 7.04632 2.60939 5.28118 3.03907 3.27257C3.49945 1.26396 4.57366 -0.166416 5.46371 0.0161851Z" fill="black"/>
<path d="M9.36927 24.7573C10.8098 24.7307 11.9467 23.0609 11.9086 21.0275C11.8705 18.9942 10.6718 17.3673 9.23131 17.3938C7.79081 17.4204 6.65393 19.0903 6.69202 21.1236C6.73012 23.157 7.92876 24.7838 9.36927 24.7573Z" fill="black"/>
<path d="M3.28404 27.1623C2.94644 25.3059 3.59096 23.632 4.72655 23.419C5.86214 23.2364 7.02843 24.5755 7.36603 26.4623C7.70364 28.3188 7.05912 29.9926 5.92353 30.2057C4.78794 30.3883 3.59096 29.0188 3.28404 27.1623Z" fill="black"/>
<path d="M3.5 30.8458C3.00893 29.1719 1.96541 28.0155 1.16743 28.2589C0.36945 28.5024 0.0932248 30.0241 0.584291 31.6979C1.07536 33.3718 2.11887 34.5282 2.91686 34.2848C3.74553 34.0717 3.99106 32.5196 3.5 30.8458Z" fill="black"/>
<path d="M7.0305 14.9587C6.99981 13.1327 6.07906 11.6414 5.00485 11.6718C3.93064 11.7023 3.10197 13.1935 3.13266 15.0195C3.16335 16.8455 4.05341 18.3063 5.12762 18.3063C6.23252 18.2759 7.09188 16.7847 7.0305 14.9587Z" fill="black"/>
<path d="M3.1622 10.0593C3.13151 8.41593 2.39491 7.10729 1.53555 7.13773C0.676181 7.16816 -0.0297272 8.50723 0.000964453 10.1202C0.0316561 11.7636 0.768256 13.0723 1.62762 13.0418C2.51768 13.0418 3.1929 11.7027 3.1622 10.0593Z" fill="black"/>
<path d="M68.5901 41.6999C73.8272 41.6999 77.6109 38.5175 77.6109 33.3306C77.6109 28.1436 73.8272 24.9863 68.565 24.9863H61.5488V41.6999H68.5901ZM68.565 37.9412H65.8588V28.745H68.5901C71.6471 28.745 73.2007 30.7496 73.2007 33.3306C73.2007 35.8113 71.4968 37.9412 68.565 37.9412Z" fill="black"/>
<path d="M85.443 42.0006C89.6026 42.0006 92.0583 39.0438 92.0583 35.6359C92.0583 32.228 89.6026 29.2963 85.443 29.2963C81.3335 29.2963 78.8779 32.228 78.8779 35.6359C78.8779 39.0438 81.3335 42.0006 85.443 42.0006ZM85.443 38.5927C83.7892 38.5927 82.837 37.2647 82.837 35.6359C82.837 34.0322 83.7892 32.7041 85.443 32.7041C87.1469 32.7041 88.0991 34.0322 88.0991 35.6359C88.0991 37.2647 87.1469 38.5927 85.443 38.5927Z" fill="black"/>
<path d="M99.9057 42.0006C102.537 42.0006 104.14 40.8229 104.867 39.7704L102.361 37.415C101.885 38.0916 101.108 38.5927 100.081 38.5927C98.4774 38.5927 97.2495 37.4651 97.2495 35.6359C97.2495 33.8067 98.4774 32.7041 100.081 32.7041C101.108 32.7041 101.885 33.1552 102.361 33.8568L104.867 31.5264C104.14 30.4489 102.537 29.2963 99.9057 29.2963C96.1219 29.2963 93.3155 31.8522 93.3155 35.6359C93.3155 39.4196 96.1219 42.0006 99.9057 42.0006Z" fill="black"/>
<path d="M111.282 42.0006C114.74 42.0006 116.77 40.3468 116.77 38.0414C116.77 33.08 109.753 34.4582 109.753 33.1301C109.753 32.654 110.355 32.3032 111.257 32.3032C112.71 32.3032 114.088 32.9297 114.815 33.6313L116.293 30.9C114.99 29.9478 113.287 29.2963 111.232 29.2963C107.899 29.2963 106.045 31.1505 106.045 33.2805C106.045 38.1918 113.086 36.6382 113.086 38.1417C113.086 38.6679 112.61 38.9936 111.457 38.9936C110.029 38.9936 108.1 38.1667 107.197 37.3649L105.594 40.1212C106.872 41.2739 109.102 42.0006 111.282 42.0006Z" fill="black"/>
<path d="M68.2147 17.0353V2.17605H73.5269V0.321777H60.8477V2.17605H66.1349V17.0353H68.2147Z" fill="black"/>
<path d="M78.8161 17.336C80.7706 17.336 82.3993 16.6595 83.6272 15.4567L82.7251 14.2289C81.7478 15.2312 80.3696 15.7824 78.9664 15.7824C76.3604 15.7824 74.7818 13.878 74.6314 11.5978H84.4039V11.1217C84.4039 7.48831 82.249 4.63172 78.5905 4.63172C75.1326 4.63172 72.6268 7.46325 72.6268 10.9713C72.6268 14.7551 75.2077 17.336 78.8161 17.336ZM82.5497 10.1946H74.6063C74.7066 8.36533 75.9845 6.1853 78.5655 6.1853C81.3218 6.1853 82.5246 8.41545 82.5497 10.1946Z" fill="black"/>
<path d="M96.8947 17.0353V8.71614C96.8947 5.78438 94.7898 4.63172 92.2089 4.63172C90.2293 4.63172 88.6757 5.28322 87.3727 6.63634L88.2497 7.93935C89.3272 6.76163 90.5049 6.26048 91.9583 6.26048C93.7123 6.26048 95.0153 7.18762 95.0153 8.79131V10.9713C94.0381 9.8688 92.6599 9.34259 91.0061 9.34259C88.9514 9.34259 86.7964 10.5955 86.7964 13.3268C86.7964 15.9578 88.9764 17.336 91.0061 17.336C92.6349 17.336 94.0381 16.7597 95.0153 15.6572V17.0353H96.8947ZM91.7077 15.9829C89.9286 15.9829 88.7008 14.8804 88.7008 13.3268C88.7008 11.7983 89.9286 10.6957 91.7077 10.6957C93.0107 10.6957 94.2887 11.1969 95.0153 12.1741V14.4794C94.2887 15.4817 93.0107 15.9829 91.7077 15.9829Z" fill="black"/>
<path d="M102.566 17.0353V0.321777H100.686V17.0353H102.566Z" fill="black"/>
<path d="M107.267 3.20342C107.968 3.20342 108.52 2.65215 108.52 1.95053C108.52 1.24892 107.968 0.672586 107.267 0.672586C106.565 0.672586 105.989 1.24892 105.989 1.95053C105.989 2.65215 106.565 3.20342 107.267 3.20342ZM108.194 17.0353V4.93241H106.315V17.0353H108.194Z" fill="black"/>
<path d="M121.991 17.0353V4.93241H120.112V13.8279C119.41 14.8052 118.007 15.6572 116.554 15.6572C114.9 15.6572 113.822 15.0307 113.822 12.9008V4.93241H111.943V13.4771C111.943 16.0831 113.271 17.336 115.802 17.336C117.606 17.336 119.185 16.3838 120.112 15.3314V17.0353H121.991Z" fill="black"/>
<path d="M142.232 17.0353V8.29016C142.232 5.85955 141.055 4.63172 138.849 4.63172C137.095 4.63172 135.467 5.78438 134.79 6.88692C134.439 5.63403 133.387 4.63172 131.558 4.63172C129.753 4.63172 128.15 5.90967 127.624 6.68646V4.93241H125.744V17.0353H127.624V8.18993C128.275 7.21267 129.578 6.31059 130.806 6.31059C132.41 6.31059 133.036 7.28785 133.036 8.81637V17.0353H134.915V8.16487C135.542 7.18762 136.87 6.31059 138.123 6.31059C139.701 6.31059 140.353 7.28785 140.353 8.81637V17.0353H142.232Z" fill="black"/>
<rect x="42.2969" y="0.000488281" width="0.69605" height="41.763" fill="black"/>
</svg>
