<?xml version="1.0" encoding="utf-8"?>
<!-- Generator: Adobe Illustrator 22.0.1, SVG Export Plug-In . SVG Version: 6.00 Build 0)  -->
<svg version="1.1" id="Layer_1" xmlns="http://www.w3.org/2000/svg" xmlns:xlink="http://www.w3.org/1999/xlink" x="0px" y="0px"
	 viewBox="0 0 92.2 140.9" style="enable-background:new 0 0 92.2 140.9;" xml:space="preserve">
<style type="text/css">
	.st0{fill:#0087E2;}
	.st1{fill:#959BA1;}
</style>
<g>
	<path class="st0" d="M89,73c-0.2-8.5-7.2-15.3-15.7-15.2C64.7,58,57.9,65,58.1,73.5c0.2,8.5,7.2,15.3,15.7,15.2
		C82.3,88.6,89.1,81.5,89,73z"/>
	<path class="st0" d="M42.5,85.7c4.8-3,12.1,0.1,16.3,6.9s3.7,14.7-1.1,17.7c-4.8,3-12.1-0.1-16.3-6.9
		C37.2,96.5,37.8,88.6,42.5,85.7z"/>
	<path class="st0" d="M27.7,103c4.1-1.7,9.6,2.3,12.3,8.8c2.7,6.6,1.6,13.3-2.5,15s-9.6-2.2-12.3-8.8
		C22.5,111.4,23.7,104.7,27.7,103z"/>
	<path class="st0" d="M14.3,116.3c2.8-1.1,7,3.1,9.4,9.4c2.3,6.3,1.9,12.2-0.9,13.2c-2.8,1.1-7.1-3.1-9.4-9.4
		C11,123.2,11.4,117.3,14.3,116.3z"/>
	<path class="st0" d="M54.2,33c5.4,1.6,8,9.1,5.8,16.7c-2.2,7.7-8.5,12.6-13.9,11c-5.4-1.6-8-9.1-5.8-16.8
		C42.5,36.3,48.8,31.4,54.2,33z"/>
	<path class="st0" d="M34.5,15.4c4.3,1.2,6.2,7.7,4.3,14.5c-1.9,6.9-6.8,11.5-11.1,10.3s-6.2-7.6-4.3-14.6
		C25.3,18.8,30.3,14.2,34.5,15.4z"/>
	<path class="st0" d="M19.6,1.9c3,0.6,4.3,6.4,2.9,13c-1.4,6.5-4.9,11.3-7.9,10.7c-2.9-0.6-4.3-6.4-2.9-13C13.2,6,16.7,1.3,19.6,1.9
		z"/>
	
		<ellipse transform="matrix(0.9998 -1.857482e-02 1.857482e-02 0.9998 -1.3151 0.6085)" class="st1" cx="32.1" cy="71.1" rx="8.5" ry="12.1"/>
	<path class="st1" d="M12.5,91.1c-1.1-6.1,1-11.6,4.7-12.3c3.7-0.6,7.5,3.8,8.6,10c1.1,6.1-1,11.6-4.7,12.3
		C17.4,101.7,13.5,97.2,12.5,91.1z"/>
	<path class="st1" d="M13.2,103.2c-1.6-5.5-5-9.3-7.6-8.5s-3.5,5.8-1.9,11.3s5,9.3,7.6,8.5C14,113.8,14.8,108.7,13.2,103.2z"/>
	<path class="st1" d="M24.7,51c-0.1-6-3.1-10.9-6.6-10.8c-3.5,0.1-6.2,5-6.1,11c0.1,6,3,10.8,6.5,10.8C22.1,61.9,24.9,57,24.7,51z"
		/>
	<path class="st1" d="M12.1,34.9c-0.1-5.4-2.5-9.7-5.3-9.6s-5.1,4.5-5,9.8c0.1,5.4,2.5,9.7,5.3,9.6C10,44.7,12.2,40.3,12.1,34.9z"/>
</g>
</svg>
