<?xml version="1.0" encoding="utf-8"?>
<!-- Generator: Adobe Illustrator 22.1.0, SVG Export Plug-In . SVG Version: 6.00 Build 0)  -->
<svg version="1.1" id="Layer_1" xmlns="http://www.w3.org/2000/svg" xmlns:xlink="http://www.w3.org/1999/xlink" x="0px" y="0px"
	 viewBox="0 0 334.6 107.2" style="enable-background:new 0 0 334.6 107.2;" xml:space="preserve">
<style type="text/css">
	.st0{fill:#FFFFFF;}
</style>
<g>
	<g>
		<g>
			<path class="st0" d="M9.6,11.1H0V7.6h23.4v3.5h-9.6v28.1H9.6V11.1z"/>
			<path class="st0" d="M25.7,28.6c0.1,5.6,3.7,7.9,7.8,7.9c3,0,4.7-0.5,6.3-1.2l0.7,3c-1.5,0.7-3.9,1.4-7.5,1.4
				c-7,0-11.1-4.6-11.1-11.4c0-6.8,4-12.2,10.6-12.2c7.4,0,9.4,6.5,9.4,10.7c0,0.8-0.1,1.5-0.1,1.9H25.7z M37.8,25.7
				c0-2.6-1.1-6.7-5.7-6.7c-4.2,0-6,3.8-6.3,6.7H37.8z"/>
			<path class="st0" d="M59.5,39.2l-0.3-2.9H59c-1.3,1.8-3.7,3.4-6.9,3.4c-4.6,0-6.9-3.2-6.9-6.5c0-5.5,4.9-8.5,13.6-8.4v-0.5
				c0-1.9-0.5-5.2-5.2-5.2c-2.1,0-4.3,0.7-5.9,1.7L46.8,18c1.9-1.2,4.6-2,7.4-2c6.9,0,8.6,4.7,8.6,9.3v8.5c0,2,0.1,3.9,0.4,5.4H59.5
				z M58.8,27.6c-4.5-0.1-9.6,0.7-9.6,5.1c0,2.7,1.8,3.9,3.9,3.9c3,0,4.8-1.9,5.5-3.8c0.1-0.4,0.2-0.9,0.2-1.3V27.6z"/>
			<path class="st0" d="M69.5,6h4.1v33.3h-4.1V6z"/>
			<path class="st0" d="M85.1,10.2c0,1.4-1,2.5-2.6,2.5c-1.5,0-2.5-1.1-2.5-2.5c0-1.5,1.1-2.6,2.6-2.6C84.1,7.6,85.1,8.7,85.1,10.2z
				 M80.5,39.2V16.5h4.1v22.7H80.5z"/>
			<path class="st0" d="M110.5,33c0,2.3,0,4.4,0.2,6.2H107l-0.2-3.7h-0.1c-1.1,1.8-3.5,4.2-7.5,4.2c-3.6,0-7.8-2-7.8-9.9V16.5h4.1
				v12.6c0,4.3,1.3,7.2,5.1,7.2c2.8,0,4.7-1.9,5.4-3.7c0.2-0.6,0.4-1.4,0.4-2.1V16.5h4.1V33z"/>
			<path class="st0" d="M117.3,22.7c0-2.3,0-4.3-0.2-6.1h3.6l0.2,3.7h0.1c1.3-2.2,3.4-4.2,7.1-4.2c3.1,0,5.4,1.9,6.4,4.5h0.1
				c0.7-1.3,1.6-2.2,2.5-3c1.4-1,2.9-1.6,5-1.6c3,0,7.4,2,7.4,9.8v13.4h-4V26.4c0-4.4-1.6-7-4.9-7c-2.3,0-4.2,1.7-4.9,3.7
				c-0.2,0.6-0.3,1.3-0.3,2.1v14h-4V25.6c0-3.6-1.6-6.2-4.7-6.2c-2.6,0-4.5,2.1-5.1,4.1c-0.2,0.6-0.3,1.3-0.3,2v13.7h-4V22.7z"/>
			<path class="st0" d="M3,64.3c2.7-0.4,6.3-0.7,10.1-0.7c6,0,9.8,1,13,3.1c3.5,2.4,5.7,6.3,5.7,12.1c0,6.4-2.4,10.6-5.5,13
				c-3.5,2.7-8.6,3.9-14.8,3.9c-4.1,0-6.8-0.3-8.4-0.6V64.3z M11.4,89.1c0.4,0.1,1.2,0.1,1.8,0.1c5.5,0.1,9.5-3,9.5-10.1
				c0-6.1-3.7-9-8.7-9c-1.4,0-2.2,0.1-2.6,0.2V89.1z"/>
			<path class="st0" d="M59.3,83.7c0,8.4-6,12.3-12.5,12.3c-6.9,0-12.2-4.4-12.2-11.9c0-7.3,4.8-12.2,12.7-12.2
				C54.5,71.9,59.3,76.7,59.3,83.7z M43.3,83.9c0,3.4,1.1,6.1,3.7,6.1c2.2,0,3.5-2.4,3.5-6.1c0-3.2-1-6.1-3.6-6.1
				C44.3,77.8,43.3,80.9,43.3,83.9z"/>
			<path class="st0" d="M81.2,95c-1.4,0.6-3.8,1-6.4,1c-7.6,0-12.5-4.5-12.5-11.9c0-6.6,4.5-12.2,13.5-12.2c1.7,0,3.7,0.2,5.3,0.8
				L80,78.9c-0.8-0.3-1.9-0.6-3.6-0.6c-3.2,0-5.4,2.2-5.4,5.5c0,3.7,2.6,5.5,5.6,5.5c1.5,0,2.7-0.1,3.7-0.6L81.2,95z"/>
			<path class="st0" d="M107.6,87.6c0,3.3,0.1,5.9,0.2,7.9h-7.3l-0.4-3H100c-0.8,1.3-2.9,3.6-7,3.6c-5.2,0-8.2-3.3-8.2-10V72.4h8.4
				v12.2c0,3,1,4.5,3,4.5c1.6,0,2.4-1.1,2.7-2c0.2-0.3,0.2-0.7,0.2-1.2V72.4h8.4V87.6z"/>
			<path class="st0" d="M112.9,80.2c0-3-0.1-5.7-0.2-7.8h7.1l0.3,2.9h0.2c0.8-1.1,2.9-3.4,6.8-3.4c3,0,5.2,1.4,6.2,3.7h0.1
				c0.9-1.2,2-2.1,3.2-2.7c1.2-0.6,2.5-0.9,4.1-0.9c5,0,7.8,3.6,7.8,10v13.6h-8.2V83.1c0-2.9-0.8-4.5-2.7-4.5c-1.4,0-2.2,0.9-2.6,2
				c-0.2,0.5-0.2,1.2-0.2,1.7v13.2h-8.2V82.9c0-2.6-0.8-4.3-2.7-4.3c-1.5,0-2.2,1.1-2.6,1.9c-0.2,0.5-0.2,1.1-0.2,1.7v13.2h-8.2
				V80.2z"/>
			<path class="st0" d="M160.6,86.9c0.3,1.8,3,2.9,5.9,2.9c2.2,0,4.3-0.2,6.3-0.9l1.1,5.6c-2.8,1.1-5.8,1.5-8.6,1.5
				c-8.1,0-12.7-4.5-12.7-11.8c0-5.4,3.5-12.3,11.9-12.3c7.4,0,10.6,5.5,10.6,11.8c0,1.4-0.2,2.6-0.3,3.2H160.6z M167.3,81.1
				c0-1.3-0.6-3.7-3.3-3.7c-2.5,0-3.5,2.3-3.6,3.7H167.3z"/>
			<path class="st0" d="M179,80.2c0-3-0.1-5.7-0.2-7.8h7.3l0.4,3h0.2c0.8-1.2,3-3.5,6.9-3.5c5.4,0,8.3,3.7,8.3,10v13.6h-8.4V82.9
				c0-2.7-0.9-4.2-3-4.2c-1.6,0-2.4,1.1-2.8,2c-0.2,0.4-0.2,1.1-0.2,1.7v13.1H179V80.2z"/>
			<path class="st0" d="M215.9,65.8v6.6h4.8v6.2h-4.8v6.6c0,2.8,0.7,3.9,2.7,3.9c1,0,1.3,0,2-0.2v6.4c-1,0.3-2.9,0.7-5,0.7
				c-2.5,0-4.5-0.9-5.8-2.1c-1.4-1.4-2.2-3.7-2.2-7.2v-8.1h-2.9v-6.2h2.9V68L215.9,65.8z"/>
			<path class="st0" d="M245.1,89.8c0,2.3,0.1,4.4,0.4,5.6h-7.6l-0.5-2h-0.1c-1.6,1.8-3.9,2.5-6.4,2.5c-4.7,0-7.6-3.4-7.6-7.3
				c0-6.2,5.5-8.9,13.4-8.9v-0.2c0-0.9-0.7-2-3.7-2c-2.4,0-5,0.8-6.5,1.7l-1.5-5.4c1.5-0.8,4.8-2.1,9.6-2.1
				c7.9,0,10.7,4.4,10.7,10.2V89.8z M236.9,84.9c-3.4,0-5.4,1-5.4,3c0,1.5,1,2.2,2.4,2.2c1.2,0,2.5-0.8,2.9-2.1
				c0.1-0.4,0.1-0.8,0.1-1.2V84.9z"/>
			<path class="st0" d="M259.1,65.8v6.6h4.8v6.2h-4.8v6.6c0,2.8,0.7,3.9,2.7,3.9c1,0,1.3,0,2-0.2v6.4c-1,0.3-2.9,0.7-5,0.7
				c-2.5,0-4.5-0.9-5.8-2.1c-1.4-1.4-2.2-3.7-2.2-7.2v-8.1H248v-6.2h2.9V68L259.1,65.8z"/>
			<path class="st0" d="M276.4,66c0,2.2-1.7,4-4.4,4c-2.6,0-4.3-1.8-4.3-4c0-2.3,1.7-4,4.3-4C274.7,62,276.3,63.7,276.4,66z
				 M267.8,95.4v-23h8.4v23H267.8z"/>
			<path class="st0" d="M305,83.7c0,8.4-6,12.3-12.5,12.3c-6.9,0-12.2-4.4-12.2-11.9c0-7.3,4.8-12.2,12.7-12.2
				C300.3,71.9,305,76.7,305,83.7z M289.1,83.9c0,3.4,1.1,6.1,3.7,6.1c2.2,0,3.5-2.4,3.5-6.1c0-3.2-1-6.1-3.6-6.1
				C290,77.8,289.1,80.9,289.1,83.9z"/>
			<path class="st0" d="M309.1,80.2c0-3-0.1-5.7-0.2-7.8h7.3l0.4,3h0.2c0.8-1.2,3-3.5,6.9-3.5c5.4,0,8.3,3.7,8.3,10v13.6h-8.4V82.9
				c0-2.7-0.9-4.2-3-4.2c-1.6,0-2.4,1.1-2.8,2c-0.2,0.4-0.2,1.1-0.2,1.7v13.1h-8.4V80.2z"/>
		</g>
	</g>
</g>
</svg>
