<svg width="181" height="32" viewBox="0 0 181 32" fill="none" xmlns="http://www.w3.org/2000/svg">
<path d="M19.8408 16.6287C19.7967 14.7318 18.2534 13.2143 16.3794 13.2366C14.4834 13.2812 12.9842 14.8434 13.0283 16.7403C13.0724 18.6372 14.6157 20.1547 16.4897 20.1324C18.3637 20.1101 19.8629 18.5256 19.8408 16.6287Z" fill="#007CC2"/>
<path d="M9.58985 19.4626C10.6481 18.7931 12.2575 19.4849 13.1835 21.0024C14.1095 22.52 13.9992 24.283 12.941 24.9525C11.8827 25.622 10.2733 24.9302 9.34733 23.4126C8.42136 21.8728 8.55364 20.1098 9.58985 19.4626Z" fill="#007CC2"/>
<path d="M6.32524 23.3237C7.22916 22.9443 8.44175 23.837 9.03702 25.2876C9.63229 26.7605 9.38977 28.2557 8.48584 28.6351C7.58191 29.0145 6.36933 28.1441 5.77406 26.6712C5.17879 25.1983 5.44336 23.7031 6.32524 23.3237Z" fill="#007CC2"/>
<path d="M3.3721 26.292C3.98941 26.0465 4.91539 26.9838 5.44452 28.3897C5.9516 29.7957 5.86341 31.1124 5.24609 31.3355C4.62878 31.581 3.68075 30.6437 3.17367 29.2378C2.64455 27.8318 2.73273 26.5151 3.3721 26.292Z" fill="#007CC2"/>
<path d="M12.1686 7.70187C13.3592 8.05894 13.9324 9.73268 13.4474 11.4287C12.9623 13.1471 11.5734 14.2406 10.3828 13.8836C9.19229 13.5265 8.61906 11.8528 9.1041 10.1344C9.58913 8.43832 10.9781 7.3448 12.1686 7.70187Z" fill="#007CC2"/>
<path d="M7.82434 3.77442C8.77236 4.04222 9.19125 5.4928 8.77236 7.01033C8.35346 8.55018 7.27316 9.57674 6.32514 9.30894C5.37712 9.04114 4.95823 7.61288 5.37712 6.05072C5.79601 4.53319 6.89836 3.50662 7.82434 3.77442Z" fill="#007CC2"/>
<path d="M4.54012 0.76151C5.20153 0.89541 5.48814 2.18977 5.17948 3.66267C4.87082 5.11325 4.09918 6.18444 3.43777 6.05055C2.7984 5.91665 2.48974 4.62228 2.7984 3.14939C3.12911 1.67649 3.90075 0.627611 4.54012 0.76151Z" fill="#007CC2"/>
<path d="M7.34674 18.9039C8.38151 18.8844 9.19818 17.6599 9.17081 16.1689C9.14345 14.6778 8.28242 13.4849 7.24764 13.5043C6.21287 13.5238 5.39621 14.7483 5.42357 16.2393C5.45094 17.7304 6.31197 18.9233 7.34674 18.9039Z" fill="#959BA1"/>
<path d="M2.97509 20.6678C2.73257 19.3065 3.19556 18.0791 4.0113 17.9229C4.82703 17.789 5.66482 18.7709 5.90734 20.1545C6.14985 21.5158 5.68687 22.7432 4.87113 22.8995C4.05539 23.0334 3.19556 22.0291 2.97509 20.6678Z" fill="#959BA1"/>
<path d="M3.12895 23.3684C2.7762 22.141 2.0266 21.293 1.45338 21.4715C0.880154 21.65 0.681731 22.7658 1.03448 23.9933C1.38723 25.2207 2.13683 26.0687 2.71006 25.8902C3.30532 25.734 3.4817 24.5958 3.12895 23.3684Z" fill="#959BA1"/>
<path d="M5.66482 11.7186C5.64277 10.3796 4.98136 9.28612 4.20972 9.30844C3.43807 9.33076 2.8428 10.4243 2.86485 11.7633C2.8869 13.1023 3.52626 14.1735 4.29791 14.1735C5.0916 14.1511 5.70891 13.0576 5.66482 11.7186Z" fill="#959BA1"/>
<path d="M2.88677 8.12617C2.86472 6.92108 2.33559 5.96146 1.71828 5.98378C1.10096 6.0061 0.59388 6.98803 0.615927 8.17081C0.637974 9.3759 1.1671 10.3355 1.78442 10.3132C2.42378 10.3132 2.90882 9.33127 2.88677 8.12617Z" fill="#959BA1"/>
<path d="M38.5812 12.7007H33.0474V22.3415H29.9608V12.7007H24.4932V10.1343H38.5812V12.7007Z" fill="#007CC2"/>
<path d="M53.4627 22.3638H41.5132V10.1343H53.4627V12.7007H44.5998V15.0216H52.4265V17.4541H44.5998V19.8643H53.4627V22.3638Z" fill="#007CC2"/>
<path d="M71.8951 22.3639H68.6101L67.4195 19.8868H60.0779L58.8653 22.3639H55.6685L61.8416 10.1567H65.6557L71.8951 22.3639ZM66.3172 17.6328L63.7818 12.7231L61.2023 17.6328H66.3172Z" fill="#007CC2"/>
<path d="M84.7263 22.3638H73.813V10.1343H76.8996V19.6635H84.7263V22.3638Z" fill="#007CC2"/>
<path d="M90.3473 22.3638H87.2607V10.1343H90.3473V22.3638Z" fill="#007CC2"/>
<path d="M108.139 17.2533C108.139 21.2926 106.265 22.5646 100.731 22.5646C95.1971 22.5646 93.4995 21.4711 93.4995 17.2533V10.1343H96.5199V17.0301C96.5199 19.6188 97.9971 19.8866 100.753 19.8866C103.332 19.8866 105.14 19.4403 105.14 17.0301V10.1343H108.161V17.2533H108.139Z" fill="#007CC2"/>
<path d="M130.539 22.3639H127.254L125.777 12.8794L122.007 22.3639H118.501L114.82 12.8794L113.298 22.3639H110.124L112.24 10.1567H116.804L120.221 19.1057L123.859 10.1567H128.378L130.539 22.3639Z" fill="#007CC2"/>
<path d="M146.189 22.2501C149.934 22.2501 152.544 19.8741 152.544 16.2381C152.544 12.6381 149.934 10.2441 146.172 10.2441H141.438V22.2501H146.189ZM146.172 20.0001H143.993V12.4941H146.189C148.637 12.4941 149.934 14.1321 149.934 16.2381C149.934 18.2901 148.548 20.0001 146.172 20.0001Z" fill="#737D8A"/>
<path d="M158.335 22.4661C161.215 22.4661 162.943 20.3601 162.943 17.8941C162.943 15.4281 161.215 13.3401 158.335 13.3401C155.473 13.3401 153.745 15.4281 153.745 17.8941C153.745 20.3601 155.473 22.4661 158.335 22.4661ZM158.335 20.4321C156.913 20.4321 156.121 19.2621 156.121 17.8941C156.121 16.5441 156.913 15.3741 158.335 15.3741C159.775 15.3741 160.567 16.5441 160.567 17.8941C160.567 19.2621 159.775 20.4321 158.335 20.4321Z" fill="#737D8A"/>
<path d="M168.707 22.4661C170.489 22.4661 171.569 21.6741 172.145 20.8821L170.651 19.4781C170.237 20.0721 169.607 20.4321 168.815 20.4321C167.429 20.4321 166.457 19.4061 166.457 17.8941C166.457 16.3821 167.429 15.3741 168.815 15.3741C169.607 15.3741 170.237 15.6981 170.651 16.3101L172.145 14.9061C171.569 14.1141 170.489 13.3401 168.707 13.3401C166.043 13.3401 164.099 15.2301 164.099 17.8941C164.099 20.5761 166.043 22.4661 168.707 22.4661Z" fill="#737D8A"/>
<path d="M176.771 22.4661C179.183 22.4661 180.551 21.2961 180.551 19.6941C180.551 16.1841 175.385 17.2641 175.385 15.9861C175.385 15.5001 175.925 15.1401 176.753 15.1401C177.815 15.1401 178.805 15.6081 179.327 16.1481L180.245 14.5281C179.381 13.8441 178.211 13.3401 176.753 13.3401C174.449 13.3401 173.189 14.6181 173.189 16.0761C173.189 19.4961 178.337 18.3261 178.337 19.7481C178.337 20.2881 177.869 20.6661 176.879 20.6661C175.799 20.6661 174.521 20.0721 173.873 19.4601L172.883 21.1161C173.801 21.9621 175.259 22.4661 176.771 22.4661Z" fill="#737D8A"/>
</svg>
