<?xml version="1.0" encoding="utf-8"?>
<!-- Generator: Adobe Illustrator 21.0.0, SVG Export Plug-In . SVG Version: 6.00 Build 0)  -->
<svg version="1.1" id="Layer_1" xmlns="http://www.w3.org/2000/svg" xmlns:xlink="http://www.w3.org/1999/xlink" x="0px" y="0px"
	 viewBox="0 0 216.1 52.6" style="enable-background:new 0 0 216.1 52.6;" xml:space="preserve">
<style type="text/css">
	.st0{fill:#010101;}
	.st1{fill:#2CBF58;}
</style>
<title>invoca-logo</title>
<path class="st0" d="M37.3,24.4c-1.8,0-3.3,1.3-3.6,3.1v14L19.9,24.4h-6v27.7h2.8c1.9,0,3.5-1.6,3.6-3.5V34.5l14.3,17.6h5.5V24.4
	H37.3z"/>
<path class="st0" d="M75.7,38.3L75.7,38.3c0-8,6.6-14.4,15.8-14.4s15.7,6.4,15.7,14.2v0.1c0,7.9-6.6,14.3-15.7,14.3
	C82.2,52.6,75.7,46.2,75.7,38.3z M100.3,38.3L100.3,38.3c0-4.8-3.8-8.8-8.7-8.8c-0.1,0-0.2,0-0.3,0c-4.8-0.2-8.7,3.6-8.9,8.3
	c0,0.1,0,0.2,0,0.3v0.1c0,4.8,3.9,8.7,8.7,8.7c0.1,0,0.2,0,0.3,0c4.7,0.2,8.7-3.4,8.9-8.1C100.3,38.7,100.3,38.5,100.3,38.3z"/>
<path class="st0" d="M160.2,24.2h-6l-12.7,27.9h4.3c1.4,0,2.8-0.9,3.3-2.2l1.8-4h12.5l1.8,4.1c0.6,1.3,1.9,2.1,3.3,2.1h4.4
	L160.2,24.2z M153.2,40.5l3.9-9l3.9,9H153.2L153.2,40.5z"/>
<path class="st0" d="M66.5,26.4c0.5-1.3,1.7-2.1,3.1-2.1h4.7l-11.9,28h-5.7l-12-27.9h4.9c1.3,0,2.6,0.8,3.1,2l6.9,17.5L66.5,26.4z"
	/>
<path class="st0" d="M6.5,48.5V24.4H0v27.7h2.9C4.9,52.1,6.5,50.5,6.5,48.5C6.5,48.5,6.5,48.5,6.5,48.5z"/>
<path class="st0" d="M165.5,27.8L165.5,27.8c0-1.2,1-2.2,2.2-2.2c1.2,0,2.2,1,2.2,2.2c0,0,0,0,0,0l0,0c0,1.2-1,2.2-2.2,2.2
	C166.5,30,165.5,29,165.5,27.8C165.5,27.8,165.5,27.8,165.5,27.8z M169.6,27.8L169.6,27.8c0-1-0.9-1.9-1.9-1.9c-1,0-1.9,0.9-1.9,1.9
	l0,0l0,0c0,1,0.9,1.9,1.9,1.9c1,0,1.9-0.8,1.9-1.8C169.6,27.9,169.6,27.8,169.6,27.8z M166.9,26.7h1c0.4,0,0.7,0.2,0.8,0.6
	c0,0.3-0.2,0.7-0.5,0.8l0.6,0.9h-0.4l-0.6-0.8h-0.5V29h-0.4L166.9,26.7L166.9,26.7L166.9,26.7z M167.8,27.8c0.2,0,0.5-0.2,0.5-0.4
	c0-0.2-0.2-0.4-0.4-0.4c0,0-0.1,0-0.1,0h-0.6v0.8H167.8z"/>
<path class="st0" d="M135.9,45.5c-0.5-0.5-1.1-0.8-1.8-0.8c-0.5,0-1,0.2-1.4,0.4l0,0c-1.7,1.2-3.8,1.9-5.9,1.9
	c-4.7,0.1-8.5-3.7-8.6-8.3c0-0.1,0-0.2,0-0.3v-0.1c-0.1-4.7,3.5-8.6,8.2-8.7c0.1,0,0.3,0,0.4,0c2.2-0.1,4.4,0.6,6.1,2
	c0.4,0.3,1,0.5,1.5,0.5c0.7,0,1.3-0.3,1.8-0.8l0,0l2.5-2.4c-3.1-3.4-7.5-5.2-12.1-5c-8.7,0-15.2,6.3-15.2,14.3v0.1
	c0,7.9,6.3,14.3,15.4,14.3c5.6,0,8.9-1.7,11.7-4.3L135.9,45.5L135.9,45.5z"/>
<path class="st1" d="M202.4,0h-14.6c-7.5,0-13.6,6.1-13.6,13.6v7c0,4.9,2.7,9.5,7,11.9l-6.6,6.8l17.9-5.1h10
	c7.5,0,13.6-6.1,13.6-13.6v-7C216,6.1,209.9,0,202.4,0z M207.8,20.6c0,2.8-2.1,5.1-4.9,5.4l0.4,4.4l-7.1-4.4h-8.5
	c-3,0-5.4-2.4-5.4-5.4c0,0,0,0,0,0v-7c0-3,2.4-5.4,5.4-5.4c0,0,0,0,0,0h14.6c3,0,5.4,2.4,5.4,5.4c0,0,0,0,0,0L207.8,20.6L207.8,20.6
	L207.8,20.6z"/>
</svg>
