<?xml version="1.0" encoding="utf-8"?>
<!-- Generator: Adobe Illustrator 22.1.0, SVG Export Plug-In . SVG Version: 6.00 Build 0)  -->
<svg version="1.1" id="Optimizely_x5F_Logo_x5F_Mono_x5F_Dark"
	 xmlns="http://www.w3.org/2000/svg" xmlns:xlink="http://www.w3.org/1999/xlink" x="0px" y="0px" viewBox="0 0 125.7 32"
	 style="enable-background:new 0 0 125.7 32;" xml:space="preserve">
<style type="text/css">
	.st0{fill:#0037FF;}
</style>
<g>
	<g>
		<g>
			<g>
				<path d="M56.4,14.9c2.8,0,4.6,2.1,4.6,5.2c0,3.1-1.9,5.2-4.6,5.2c-1.3,0-2.2-0.6-2.6-1c-0.1-0.1-0.2,0-0.2,0.1V29
					c0,0.1,0,0.1-0.1,0.1h-2.2c-0.1,0-0.1,0-0.1-0.1V15.2c0-0.1,0-0.1,0.1-0.1h1.5c0.1,0,0.2,0,0.3,0.1l0.5,0.7
					c0.1,0.1,0.2,0.1,0.3,0C54.3,15.3,55.4,14.9,56.4,14.9z M56,17.1c-1.6,0-2.4,1.3-2.4,3c0,2,0.8,3,2.4,3c1.7,0,2.6-1.3,2.6-3
					C58.5,18.3,57.7,17.1,56,17.1z"/>
				<path d="M121.9,26.6c-0.9,2.4-1,2.5-3.2,2.5h-2.9c-0.1,0-0.1,0-0.1-0.1v-1.9c0-0.1,0-0.1,0.1-0.1h2.4c1.3,0,1.3-0.4,0.8-2
					l-3.3-9.9c0-0.1,0-0.1,0.1-0.1h2.3c0.1,0,0.1,0,0.1,0.1l2.4,7.7c0,0.1,0.2,0.1,0.2,0l2.4-7.7c0-0.1,0.1-0.1,0.1-0.1h2.3
					c0.1,0,0.1,0,0.1,0.1L121.9,26.6z"/>
				<path d="M43.6,25.4c-4.2,0-6.3-3-6.3-7.2s2.1-7.2,6.3-7.2c4.2,0,6.3,3,6.3,7.2S47.8,25.4,43.6,25.4z M47.4,18.2
					c0-3.1-1.4-5-3.8-5c-2.5,0-3.8,1.9-3.8,5s1.4,5,3.8,5C46,23.2,47.4,21.3,47.4,18.2z"/>
				<path d="M61.3,17.2C61.2,17.2,61.2,17.1,61.3,17.2l-0.1-2c0-0.1,0-0.1,0.1-0.1h1.6c0.1,0,0.1,0,0.1-0.1v-2.7
					c0-0.1,0-0.1,0.1-0.1h2.2c0.1,0,0.1,0,0.1,0.1V15c0,0.1,0,0.1,0.1,0.1h2c0.1,0,0.1,0,0.1,0.1v1.9c0,0.1,0,0.1-0.1,0.1h-2
					c-0.1,0-0.1,0-0.1,0.1v5.1c0,0.4,0.3,0.6,0.7,0.6h1.4c0.1,0,0.1,0,0.1,0.1v2c0,0.1,0,0.1-0.1,0.1H66c-2.1,0-3-0.8-3-2.8v-5.1
					c0-0.1,0-0.1-0.1-0.1H61.3z"/>
				<g>
					<path d="M69.2,13.5C69.1,13.5,69.1,13.5,69.2,13.5l-0.1-2.3c0-0.1,0-0.1,0.1-0.1h2.2c0.1,0,0.1,0,0.1,0.1v2.2
						c0,0.1,0,0.1-0.1,0.1H69.2z"/>
					<path d="M69.2,25.2C69.1,25.2,69.1,25.1,69.2,25.2l-0.1-10c0-0.1,0-0.1,0.1-0.1h2.2c0.1,0,0.1,0,0.1,0.1v9.9
						c0,0.1,0,0.1-0.1,0.1H69.2z"/>
				</g>
				<path d="M85,25.2C85,25.2,84.9,25.1,85,25.2l-0.1-5.6c0-1.2-0.4-2.5-1.8-2.5c-1.4,0-1.8,1.1-1.8,2.5v5.5c0,0.1,0,0.1-0.1,0.1H79
					c-0.1,0-0.1,0-0.1-0.1v-5.5c0-1.2-0.4-2.5-1.8-2.5c-1.4,0-1.8,1.1-1.8,2.5v5.5c0,0.1,0,0.1-0.1,0.1H73c-0.1,0-0.1,0-0.1-0.1
					v-9.9c0-0.1,0-0.1,0.1-0.1h1.9c0.1,0,0.2,0,0.2,0.1l0.2,0.6c0,0.1,0.1,0.1,0.2,0c0.4-0.4,1.5-1,2.4-1c1.2,0,2.1,0.5,2.6,1.2
					c0,0.1,0.1,0.1,0.2,0c0.6-0.6,1.4-1.2,2.6-1.2c2.5,0,4,1.4,4,4.5v5.6c0,0.1,0,0.1-0.1,0.1H85z"/>
				<path d="M88.9,13.5C88.8,13.5,88.8,13.5,88.9,13.5l-0.1-2.3c0-0.1,0-0.1,0.1-0.1h2.2c0.1,0,0.1,0,0.1,0.1v2.2
					c0,0.1,0,0.1-0.1,0.1H88.9z"/>
				<path d="M88.9,25.2C88.8,25.2,88.8,25.1,88.9,25.2l-0.1-10c0-0.1,0-0.1,0.1-0.1h2.2c0.1,0,0.1,0,0.1,0.1v9.9
					c0,0.1,0,0.1-0.1,0.1H88.9z"/>
				<path d="M92.7,25.2C92.7,25.2,92.6,25.1,92.7,25.2l-0.1-2c0-0.1,0-0.1,0.1-0.2l4.8-5.5c0,0,0-0.2-0.1-0.2h-4.5
					c-0.1,0-0.1,0-0.1-0.1v-2c0-0.1,0-0.1,0.1-0.1h7.5c0.1,0,0.1,0,0.1,0.1v2c0,0.1,0,0.1,0,0.1l-4.8,5.6c0,0,0,0.2,0.1,0.2h4.9
					c0.1,0,0.1,0,0.1,0.1v2c0,0.1,0,0.1-0.1,0.1H92.7z"/>
				<path d="M110.7,21h-6.9c-0.1,0-0.1,0-0.1,0.1c0,1.1,1,2,2.4,2c0.9,0,1.6-0.2,1.9-0.9c0,0,0.1-0.1,0.2-0.1h2.3
					c0.1,0,0.1,0,0.1,0.1c-0.4,1.9-2.2,3.1-4.5,3.1c-2.9,0-4.9-2.1-4.9-5.2c0-3.1,1.9-5.2,4.9-5.2s4.9,2.1,4.9,5.2
					C110.9,20.5,110.9,20.7,110.7,21C110.8,21,110.8,21,110.7,21z M108.3,19.1C108.3,19.1,108.3,19,108.3,19.1c0.1-0.9-0.6-2-2.2-2
					c-1.6,0-2.4,1.1-2.4,1.9c0,0.1,0,0.1,0.1,0.1H108.3z"/>
				<path d="M112.2,25.2C112.1,25.2,112.1,25.1,112.2,25.2l-0.1-13.9c0-0.1,0-0.1,0.1-0.1h2.2c0.1,0,0.1,0,0.1,0.1v13.8
					c0,0.1,0,0.1-0.1,0.1H112.2z"/>
			</g>
		</g>
	</g>
</g>
<g>
	<path class="st0" d="M11.8,3.5C10.3,5,9.3,6.8,8.8,8.8C6.8,9.3,5,10.3,3.5,11.8C1.2,14.1,0,17.1,0,20.1l8.4-8.4
		c0,0.7,0.1,1.5,0.2,2.2l-8.4,8.4c0.2,1.2,0.6,2.4,1.2,3.5l5.4-5.4c-0.1-1.4,0.4-2.8,1.5-3.8c0.3-0.3,0.5-0.5,0.8-0.7l0,0
		c0.6,1.6,1.5,3,2.7,4.3c1.2,1.2,2.7,2.2,4.3,2.7l0,0c-0.2,0.3-0.4,0.6-0.7,0.8c-1.1,1.1-2.5,1.5-3.8,1.5l-5.4,5.4
		c1.1,0.6,2.3,1,3.5,1.2l8.4-8.4c0.7,0.1,1.5,0.2,2.2,0.2L11.9,32c3,0,6-1.2,8.2-3.5c1.5-1.5,2.5-3.4,3.1-5.3
		c1.9-0.5,3.8-1.5,5.3-3.1c4.6-4.6,4.6-12.1,0-16.7S16.4-1.2,11.8,3.5z M23.8,15.4c-2,2-5.2,2-7.1,0s-2-5.2,0-7.1c2-2,5.2-2,7.1,0
		S25.7,13.4,23.8,15.4z"/>
	<path class="st0" d="M8.2,23.8c-0.4-0.4-0.7-0.9-1-1.4l-4.9,4.9c0.3,0.4,0.7,0.9,1.1,1.3c0.4,0.4,0.8,0.8,1.3,1.1l4.9-4.9
		C9.1,24.5,8.7,24.2,8.2,23.8z"/>
</g>
</svg>
