<?xml version="1.0" encoding="UTF-8"?>
<svg width="141px" height="40px" viewBox="0 0 141 40" version="1.1" xmlns="http://www.w3.org/2000/svg" xmlns:xlink="http://www.w3.org/1999/xlink">
    <!-- Generator: Sketch 51.3 (57544) - http://www.bohemiancoding.com/sketch -->
    <title>QM LOGO</title>
    <desc>Created with Sketch.</desc>
    <defs></defs>
    <g id="Page-1" stroke="none" stroke-width="1" fill="none" fill-rule="evenodd">
        <g id="QM-LOGO">
            <path d="M36.6325354,23.7241861 L29.2721535,22.0054679 C29.5614185,21.0098346 29.7165927,19.9563275 29.7165927,18.8662314 C29.7165927,12.7169995 24.7788135,7.73206206 18.6877542,7.73206206 C12.5966949,7.73206206 7.65891565,12.7169995 7.65891565,18.8662314 C7.65891565,25.0154634 12.5966949,30.0004008 18.6877542,30.0004008 C19.6641782,30.0004008 20.6109657,29.8723002 21.5125269,29.631838 L25.1179302,36.4604207 C23.0993569,37.2163551 20.9158018,37.6293687 18.6366948,37.6293687 C8.34393245,37.6293687 0,29.2057476 0,18.8146843 C0,8.42362111 8.34393245,0 18.6366948,0 C28.929457,0 37.2733895,8.42362111 37.2733895,18.8146843 C37.2733895,20.5131478 37.0504622,22.1590466 36.6325354,23.7241861 Z M30.3262661,39.7448571 L20.9046031,23.5883711 C20.9046031,23.5883711 20.7177675,23.2006354 20.9445681,22.9433278 C21.1719668,22.6761476 21.6091635,22.8253333 21.6091635,22.8253333 L39.6755221,27.1583147 C39.6755221,27.1583147 39.870471,27.1943942 39.9483959,27.3414101 C40.0263208,27.4884259 40.0017796,27.6364027 39.9670757,27.7641376 C39.7623679,28.5176088 38.6937046,31.9050284 36.7153258,34.6801105 C34.736947,37.4551927 31.965137,39.4692329 31.3131493,39.8413568 C31.1341316,39.9435317 30.9384824,40 30.7286957,40 C30.518909,40 30.3262661,39.7448571 30.3262661,39.7448571 Z" id="Combined-Shape" fill="#3B4751"></path>
            <path d="M54.0783701,18.1642512 C49.6438397,18.1642512 46.6666667,14.6430192 46.6666667,10.5735714 L46.6666667,10.531401 C46.6666667,6.46195319 49.6854785,2.89855072 54.1200089,2.89855072 C58.5545394,2.89855072 61.5317124,6.41978274 61.5317124,10.4892305 L61.5317124,10.531401 C61.5317124,12.3869005 60.9071306,14.1158886 59.8037029,15.4864281 L61.1777827,16.6461152 C61.3859767,16.8358822 61.510893,17.0467345 61.510893,17.3419276 C61.510893,17.7847172 61.1569633,18.1642512 60.6989367,18.1642512 C60.449104,18.1642512 60.2617295,18.0588251 60.074355,17.8901433 L58.6586363,16.6039448 C57.4302922,17.573865 55.8688378,18.1642512 54.0783701,18.1642512 Z M55.2858949,13.6098433 C55.0568816,13.4200763 54.9319652,13.2303093 54.9319652,12.9351162 C54.9319652,12.4712414 55.3067143,12.0917074 55.7439215,12.0917074 C56.0145736,12.0917074 56.1811287,12.1971335 56.3685032,12.3658153 L58.5961782,14.432167 C59.387315,13.3779059 59.8245223,12.0495369 59.8245223,10.5735714 L59.8245223,10.531401 C59.8245223,7.17885072 57.4094728,4.43777191 54.0783701,4.43777191 C50.7472675,4.43777191 48.3738568,7.13668028 48.3738568,10.4892305 L48.3738568,10.531401 C48.3738568,13.8839512 50.7889062,16.62503 54.1200089,16.62503 C55.4108112,16.62503 56.5766972,16.2244108 57.4927504,15.5285985 L55.2858949,13.6098433 Z M73.9608893,7.72706649 C73.9608893,7.26319161 73.6069596,6.90474284 73.1697524,6.90474284 C72.7117258,6.90474284 72.3786155,7.26319161 72.3786155,7.72706649 L72.3786155,13.2513946 C72.3786155,15.2966611 70.9837163,16.6672005 69.1516098,16.6672005 C67.2570451,16.6672005 66.1744368,15.4020872 66.1744368,13.3779059 L66.1744368,7.72706649 C66.1744368,7.26319161 65.7996877,6.90474284 65.3624805,6.90474284 C64.9044539,6.90474284 64.5713436,7.26319161 64.5713436,7.72706649 L64.5713436,13.7785251 C64.5713436,16.3720074 66.0911592,18.143166 68.6935832,18.143166 C70.546509,18.143166 71.6499368,17.194331 72.3786155,16.0135586 L72.3786155,17.194331 C72.3786155,17.6582059 72.7325452,18.0166547 73.1697524,18.0166547 C73.627779,18.0166547 73.9608893,17.6371207 73.9608893,17.194331 L73.9608893,7.72706649 Z M80.7688304,18.143166 C78.7701688,18.143166 76.7506878,16.9834788 76.7506878,14.7484453 L76.7506878,14.7062749 C76.7506878,12.4079857 78.624433,11.1850428 81.3517734,11.1850428 C82.7258532,11.1850428 83.7043646,11.3748098 84.6620567,11.6489177 L84.6620567,11.2693837 C84.6620567,9.30845811 83.4753513,8.29636747 81.4558703,8.29636747 C80.373262,8.29636747 79.4572087,8.54939013 78.6660718,8.9078389 C78.5619749,8.95000934 78.4578779,8.97109456 78.3746003,8.97109456 C77.9998513,8.97109456 77.666741,8.65481624 77.666741,8.27528225 C77.666741,7.9379187 77.8957543,7.68489604 78.1039482,7.60055516 C79.1657372,7.13668028 80.2483456,6.8625724 81.6224255,6.8625724 C83.1422411,6.8625724 84.308127,7.26319161 85.0992639,8.06443003 C85.8279426,8.80241279 86.2026916,9.85667387 86.2026916,11.2482985 L86.2026916,17.2154162 C86.2026916,17.6792911 85.8695814,18.0166547 85.4323742,18.0166547 C84.9743475,18.0166547 84.6620567,17.6792911 84.6620567,17.2575867 L84.6620567,16.2665813 C83.9125586,17.2575867 82.663395,18.143166 80.7688304,18.143166 Z M81.0811213,16.8569675 C83.0589635,16.8569675 84.6828761,15.6340246 84.6828761,13.9050364 L84.6828761,12.8507753 C83.8917392,12.6188379 82.8299502,12.3869005 81.5183285,12.3869005 C79.4988475,12.3869005 78.3746003,13.2724798 78.3746003,14.6430192 L78.3746003,14.6851896 C78.3746003,16.055729 79.6237638,16.8569675 81.0811213,16.8569675 Z M89.6170719,17.194331 C89.6170719,17.6582059 89.9710016,18.0166547 90.4290282,18.0166547 C90.8870548,18.0166547 91.2201651,17.6582059 91.2201651,17.194331 L91.2201651,11.6700029 C91.2201651,9.62473643 92.5942449,8.25419703 94.4471708,8.25419703 C96.3417354,8.25419703 97.4243438,9.51931033 97.4243438,11.5434916 L97.4243438,17.194331 C97.4243438,17.6582059 97.7782735,18.0166547 98.2363001,18.0166547 C98.6735073,18.0166547 99.027437,17.6582059 99.027437,17.194331 L99.027437,11.1428724 C99.027437,8.54939013 97.5076214,6.77823151 94.9051974,6.77823151 C93.0522715,6.77823151 91.9280244,7.72706649 91.2201651,8.9078389 L91.2201651,7.72706649 C91.2201651,7.26319161 90.8662354,6.90474284 90.4082088,6.90474284 C89.9710016,6.90474284 89.6170719,7.28427683 89.6170719,7.72706649 L89.6170719,17.194331 Z M106.043572,18.1009955 C106.668154,18.1009955 107.167819,17.9955694 107.625846,17.8058024 C107.896498,17.7003763 108.083872,17.4684389 108.083872,17.1732458 C108.083872,16.7937118 107.771582,16.4774335 107.396832,16.4774335 C107.271916,16.4774335 106.980445,16.62503 106.418321,16.62503 C105.335713,16.62503 104.607034,16.1400699 104.607034,14.811701 L104.607034,8.44396402 L107.396832,8.44396402 C107.792401,8.44396402 108.125511,8.1276857 108.125511,7.72706649 C108.125511,7.3475325 107.792401,7.01016895 107.396832,7.01016895 L104.607034,7.01016895 L104.607034,4.43777191 C104.607034,3.99498225 104.232285,3.61544826 103.795078,3.61544826 C103.337051,3.61544826 103.003941,3.99498225 103.003941,4.43777191 L103.003941,7.01016895 L102.129526,7.01016895 C101.754777,7.01016895 101.421667,7.32644727 101.421667,7.72706649 C101.421667,8.10660048 101.754777,8.44396402 102.129526,8.44396402 L103.003941,8.44396402 L103.003941,15.0225532 C103.003941,17.2365015 104.315562,18.1009955 106.043572,18.1009955 Z M120.075842,7.72706649 C120.075842,7.26319161 119.721912,6.90474284 119.284705,6.90474284 C118.826679,6.90474284 118.493568,7.26319161 118.493568,7.72706649 L118.493568,13.2513946 C118.493568,15.2966611 117.098669,16.6672005 115.266563,16.6672005 C113.371998,16.6672005 112.28939,15.4020872 112.28939,13.3779059 L112.28939,7.72706649 C112.28939,7.26319161 111.91464,6.90474284 111.477433,6.90474284 C111.019407,6.90474284 110.686296,7.26319161 110.686296,7.72706649 L110.686296,13.7785251 C110.686296,16.3720074 112.206112,18.143166 114.808536,18.143166 C116.661462,18.143166 117.76489,17.194331 118.493568,16.0135586 L118.493568,17.194331 C118.493568,17.6582059 118.847498,18.0166547 119.284705,18.0166547 C119.742732,18.0166547 120.075842,17.6371207 120.075842,17.194331 L120.075842,7.72706649 Z M123.677597,17.194331 C123.677597,17.6582059 124.031527,18.0166547 124.489553,18.0166547 C124.94758,18.0166547 125.28069,17.6582059 125.28069,17.194331 L125.28069,11.6910882 C125.28069,9.6879921 126.571492,8.25419703 128.278682,8.25419703 C129.985873,8.25419703 131.047662,9.45605466 131.047662,11.5013212 L131.047662,17.194331 C131.047662,17.6582059 131.401591,18.0166547 131.838798,18.0166547 C132.296825,18.0166547 132.650755,17.6582059 132.650755,17.194331 L132.650755,11.6278325 C132.650755,9.47713988 133.983196,8.25419703 135.607108,8.25419703 C137.355937,8.25419703 138.396907,9.43496944 138.396907,11.5434916 L138.396907,17.194331 C138.396907,17.6582059 138.750836,18.0166547 139.208863,18.0166547 C139.64607,18.0166547 140,17.6582059 140,17.194331 L140,11.1639576 C140,8.46504924 138.480184,6.77823151 136.002677,6.77823151 C134.128932,6.77823151 132.983865,7.74815171 132.213547,8.95000934 C131.630605,7.72706649 130.506357,6.77823151 128.757528,6.77823151 C126.946241,6.77823151 125.988549,7.76923693 125.28069,8.84458323 L125.28069,7.72706649 C125.28069,7.26319161 124.92676,6.90474284 124.468734,6.90474284 C124.031527,6.90474284 123.677597,7.28427683 123.677597,7.72706649 L123.677597,17.194331 Z" id="Quantum" stroke="#3B4751" stroke-width="0.25" fill="#3B4751"></path>
            <path d="M47.6328502,34.3919115 C47.6328502,34.7636018 47.9228033,35.050817 48.2809807,35.050817 C48.6562141,35.050817 48.9461672,34.7636018 48.9461672,34.3919115 L48.9461672,25.5727146 L52.7496696,31.1142789 C52.9031742,31.3339141 53.0907909,31.4521792 53.3295758,31.4521792 C53.5683607,31.4521792 53.7389213,31.3339141 53.8924259,31.1142789 L57.7129843,25.5558195 L57.7129843,34.3750165 C57.7129843,34.7298118 58.0199935,35.050817 58.3952269,35.050817 C58.7534043,35.050817 59.0604134,34.7467068 59.0604134,34.3750165 L59.0604134,23.7480531 C59.0604134,23.3932578 58.7534043,23.0891476 58.3952269,23.0891476 L58.2417223,23.0891476 C57.9688253,23.0891476 57.7470965,23.2243077 57.610648,23.4439429 L53.3466318,29.7964679 L49.0826157,23.4439429 C48.9461672,23.2412027 48.7414944,23.0891476 48.4515413,23.0891476 L48.2980368,23.0891476 C47.9398594,23.0891476 47.6328502,23.3932578 47.6328502,23.7480531 L47.6328502,34.3919115 Z M63.0003643,30.1174731 L68.6800338,30.1174731 C68.5435853,28.5293419 67.6225578,27.1439508 65.8657831,27.1439508 C64.3307373,27.1439508 63.170925,28.4110768 63.0003643,30.1174731 Z M69.3963885,33.8512711 C68.5606413,34.6453367 67.5713896,35.1690821 66.0704559,35.1690821 C63.6484948,35.1690821 61.6699913,33.3275257 61.6699913,30.6243235 L61.6699913,30.5905335 C61.6699913,28.0731765 63.4608781,26.0457749 65.8998953,26.0457749 C68.5094731,26.0457749 69.9933507,28.1576516 69.9933507,30.4722684 C69.9933507,30.8270637 69.7033977,31.0804889 69.3793324,31.0804889 L63.0003643,31.0804889 C63.187981,32.9727304 64.5354101,34.0371162 66.1045681,34.0371162 C67.1961562,34.0371162 67.9977912,33.6147409 68.6459217,33.0234154 C68.748258,32.9389404 68.8676505,32.8713603 69.0211551,32.8713603 C69.3452203,32.8713603 69.6010613,33.1247855 69.6010613,33.4288958 C69.6010613,33.5809509 69.532837,33.733006 69.3963885,33.8512711 Z M75.2636747,35.1183971 C75.7753566,35.1183971 76.1847021,35.033922 76.5599356,34.8818669 C76.7816644,34.7973918 76.935169,34.6115467 76.935169,34.3750165 C76.935169,34.0709063 76.679328,33.8174811 76.3723189,33.8174811 C76.2699825,33.8174811 76.0311976,33.9357462 75.5706838,33.9357462 C74.6837685,33.9357462 74.0868062,33.5471608 74.0868062,32.482775 L74.0868062,27.380481 L76.3723189,27.380481 C76.6963841,27.380481 76.9692811,27.1270558 76.9692811,26.8060505 C76.9692811,26.5019403 76.6963841,26.2316201 76.3723189,26.2316201 L74.0868062,26.2316201 L74.0868062,24.1704284 C74.0868062,23.8156332 73.7797971,23.5115229 73.4216197,23.5115229 C73.0463863,23.5115229 72.7734893,23.8156332 72.7734893,24.1704284 L72.7734893,26.2316201 L72.0571345,26.2316201 C71.7501254,26.2316201 71.4772284,26.4850453 71.4772284,26.8060505 C71.4772284,27.1101608 71.7501254,27.380481 72.0571345,27.380481 L72.7734893,27.380481 L72.7734893,32.6517251 C72.7734893,34.4257015 73.8480213,35.1183971 75.2636747,35.1183971 Z M79.2036256,34.3919115 C79.2036256,34.7636018 79.4935787,35.050817 79.8688121,35.050817 C80.2440455,35.050817 80.5169425,34.7467068 80.5169425,34.3919115 L80.5169425,31.4183892 C80.5169425,28.9010322 81.9155398,27.6339062 83.6211463,27.431166 C83.9622675,27.380481 84.2010524,27.1270558 84.2010524,26.7722605 C84.2010524,26.4005702 83.9452115,26.113355 83.552922,26.113355 C82.4442778,26.113355 81.165073,26.9918957 80.5169425,28.4448668 L80.5169425,26.8060505 C80.5169425,26.4343602 80.2269894,26.147145 79.851756,26.147145 C79.4935787,26.147145 79.2036256,26.4512552 79.2036256,26.8060505 L79.2036256,34.3919115 Z M86.1113317,23.7142631 C86.1113317,24.1197434 86.452453,24.4069586 86.8788546,24.4069586 C87.3223122,24.4069586 87.6634335,24.1197434 87.6634335,23.7142631 L87.6634335,23.4946279 C87.6634335,23.0722526 87.3223122,22.8019324 86.8788546,22.8019324 C86.452453,22.8019324 86.1113317,23.0722526 86.1113317,23.4946279 L86.1113317,23.7142631 Z M86.2307241,34.3919115 C86.2307241,34.7636018 86.5206772,35.050817 86.8959106,35.050817 C87.271144,35.050817 87.5440411,34.7636018 87.5440411,34.3919115 L87.5440411,26.8060505 C87.5440411,26.4343602 87.254088,26.147145 86.8788546,26.147145 C86.5206772,26.147145 86.2307241,26.4512552 86.2307241,26.8060505 L86.2307241,34.3919115 Z M94.5711396,35.1690821 C96.0550172,35.1690821 97.061325,34.5946517 97.8970722,33.766796 C97.9994086,33.6654259 98.0676329,33.5133708 98.0676329,33.3613157 C98.0676329,33.0572055 97.7947358,32.7699902 97.4706706,32.7699902 C97.3001099,32.7699902 97.1807175,32.8544653 97.0954372,32.9389404 C96.4473067,33.5471608 95.6456717,34.0033262 94.6393639,34.0033262 C92.7973089,34.0033262 91.3987116,32.49967 91.3987116,30.6074285 L91.3987116,30.5736385 C91.3987116,28.698292 92.7631968,27.1946358 94.5540836,27.1946358 C95.6115596,27.1946358 96.3279143,27.6676962 96.9589887,28.2421267 C97.061325,28.3266017 97.2148296,28.3941818 97.3853903,28.3941818 C97.7265116,28.3941818 98.0164647,28.1238616 98.0164647,27.7690663 C98.0164647,27.5663261 97.9141283,27.397376 97.8117919,27.3129009 C97.0272129,26.6033104 96.0379612,26.0457749 94.5711396,26.0457749 C91.9956739,26.0457749 90.0512826,28.1407566 90.0512826,30.6074285 L90.0512826,30.6412186 C90.0512826,33.0909955 91.9956739,35.1690821 94.5711396,35.1690821 Z" id="Metric" fill="#8B97A1"></path>
        </g>
    </g>
</svg>